%TF.GenerationSoftware,KiCad,Pcbnew,8.0.5*%
%TF.CreationDate,2024-09-20T19:17:28+02:00*%
%TF.ProjectId,Symetric12VPS,53796d65-7472-4696-9331-325650532e6b,rev?*%
%TF.SameCoordinates,Original*%
%TF.FileFunction,Drillmap*%
%TF.FilePolarity,Positive*%
%FSLAX45Y45*%
G04 Gerber Fmt 4.5, Leading zero omitted, Abs format (unit mm)*
G04 Created by KiCad (PCBNEW 8.0.5) date 2024-09-20 19:17:28*
%MOMM*%
%LPD*%
G01*
G04 APERTURE LIST*
%ADD10C,0.050000*%
%ADD11C,0.200000*%
%ADD12C,0.100000*%
%ADD13C,0.110000*%
%ADD14C,0.130000*%
%ADD15C,0.317500*%
G04 APERTURE END LIST*
D10*
X9262110Y-8252460D02*
X20438110Y-8252460D01*
X20438110Y-8252460D02*
X20438110Y-12748260D01*
X9262110Y-12748260D02*
X9262110Y-8252460D01*
X20438110Y-12748260D02*
X9262110Y-12748260D01*
D11*
D12*
X17696185Y-12069602D02*
X17776185Y-12149602D01*
X17776185Y-12069602D02*
X17696185Y-12149602D01*
X17704862Y-8893911D02*
X17784862Y-8973911D01*
X17784862Y-8893911D02*
X17704862Y-8973911D01*
X17704862Y-10298161D02*
X17784862Y-10378161D01*
X17784862Y-10298161D02*
X17704862Y-10378161D01*
X17704862Y-10631017D02*
X17784862Y-10711017D01*
X17784862Y-10631017D02*
X17704862Y-10711017D01*
X17950185Y-12069602D02*
X18030185Y-12149602D01*
X18030185Y-12069602D02*
X17950185Y-12149602D01*
X17958862Y-8893911D02*
X18038862Y-8973911D01*
X18038862Y-8893911D02*
X17958862Y-8973911D01*
X17958862Y-10298161D02*
X18038862Y-10378161D01*
X18038862Y-10298161D02*
X17958862Y-10378161D01*
X17958862Y-10631017D02*
X18038862Y-10711017D01*
X18038862Y-10631017D02*
X17958862Y-10711017D01*
X10023808Y-9471660D02*
G75*
G02*
X9923808Y-9471660I-50000J0D01*
G01*
X9923808Y-9471660D02*
G75*
G02*
X10023808Y-9471660I50000J0D01*
G01*
X10023808Y-11554460D02*
G75*
G02*
X9923808Y-11554460I-50000J0D01*
G01*
X9923808Y-11554460D02*
G75*
G02*
X10023808Y-11554460I50000J0D01*
G01*
X10911812Y-9471660D02*
G75*
G02*
X10811812Y-9471660I-50000J0D01*
G01*
X10811812Y-9471660D02*
G75*
G02*
X10911812Y-9471660I50000J0D01*
G01*
X10911812Y-11554460D02*
G75*
G02*
X10811812Y-11554460I-50000J0D01*
G01*
X10811812Y-11554460D02*
G75*
G02*
X10911812Y-11554460I50000J0D01*
G01*
X12180959Y-9087871D02*
G75*
G02*
X12080959Y-9087871I-50000J0D01*
G01*
X12080959Y-9087871D02*
G75*
G02*
X12180959Y-9087871I50000J0D01*
G01*
X12180959Y-9837872D02*
G75*
G02*
X12080959Y-9837872I-50000J0D01*
G01*
X12080959Y-9837872D02*
G75*
G02*
X12180959Y-9837872I50000J0D01*
G01*
X12182310Y-11179459D02*
G75*
G02*
X12082310Y-11179459I-50000J0D01*
G01*
X12082310Y-11179459D02*
G75*
G02*
X12182310Y-11179459I50000J0D01*
G01*
X12182310Y-11929460D02*
G75*
G02*
X12082310Y-11929460I-50000J0D01*
G01*
X12082310Y-11929460D02*
G75*
G02*
X12182310Y-11929460I50000J0D01*
G01*
X14163510Y-9096659D02*
G75*
G02*
X14063510Y-9096659I-50000J0D01*
G01*
X14063510Y-9096659D02*
G75*
G02*
X14163510Y-9096659I50000J0D01*
G01*
X14163510Y-9846660D02*
G75*
G02*
X14063510Y-9846660I-50000J0D01*
G01*
X14063510Y-9846660D02*
G75*
G02*
X14163510Y-9846660I50000J0D01*
G01*
X14163510Y-11179459D02*
G75*
G02*
X14063510Y-11179459I-50000J0D01*
G01*
X14063510Y-11179459D02*
G75*
G02*
X14163510Y-11179459I50000J0D01*
G01*
X14163510Y-11929460D02*
G75*
G02*
X14063510Y-11929460I-50000J0D01*
G01*
X14063510Y-11929460D02*
G75*
G02*
X14163510Y-11929460I50000J0D01*
G01*
X16119310Y-9096659D02*
G75*
G02*
X16019310Y-9096659I-50000J0D01*
G01*
X16019310Y-9096659D02*
G75*
G02*
X16119310Y-9096659I50000J0D01*
G01*
X16119310Y-9846660D02*
G75*
G02*
X16019310Y-9846660I-50000J0D01*
G01*
X16019310Y-9846660D02*
G75*
G02*
X16119310Y-9846660I50000J0D01*
G01*
X16119310Y-11179459D02*
G75*
G02*
X16019310Y-11179459I-50000J0D01*
G01*
X16019310Y-11179459D02*
G75*
G02*
X16119310Y-11179459I50000J0D01*
G01*
X16119310Y-11929460D02*
G75*
G02*
X16019310Y-11929460I-50000J0D01*
G01*
X16019310Y-11929460D02*
G75*
G02*
X16119310Y-11929460I50000J0D01*
G01*
X17354924Y-9194394D02*
G75*
G02*
X17254924Y-9194394I-50000J0D01*
G01*
X17254924Y-9194394D02*
G75*
G02*
X17354924Y-9194394I50000J0D01*
G01*
X17354924Y-10082393D02*
G75*
G02*
X17254924Y-10082393I-50000J0D01*
G01*
X17254924Y-10082393D02*
G75*
G02*
X17354924Y-10082393I50000J0D01*
G01*
D13*
X17852360Y-9329396D02*
X17852360Y-9439396D01*
X17797360Y-9384396D02*
X17907360Y-9384396D01*
X17852360Y-9583396D02*
X17852360Y-9693396D01*
X17797360Y-9638396D02*
X17907360Y-9638396D01*
X17852360Y-9837396D02*
X17852360Y-9947396D01*
X17797360Y-9892396D02*
X17907360Y-9892396D01*
X17852360Y-11072049D02*
X17852360Y-11182049D01*
X17797360Y-11127049D02*
X17907360Y-11127049D01*
X17852360Y-11326049D02*
X17852360Y-11436049D01*
X17797360Y-11381049D02*
X17907360Y-11381049D01*
X17852360Y-11580049D02*
X17852360Y-11690049D01*
X17797360Y-11635049D02*
X17907360Y-11635049D01*
D14*
X10019770Y-10334420D02*
X10019770Y-10242496D01*
X9927846Y-10242496D01*
X9927846Y-10334420D01*
X10019770Y-10334420D01*
X10019770Y-10834419D02*
X10019770Y-10742495D01*
X9927846Y-10742495D01*
X9927846Y-10834419D01*
X10019770Y-10834419D01*
X19777872Y-10013423D02*
X19777872Y-9921499D01*
X19685948Y-9921499D01*
X19685948Y-10013423D01*
X19777872Y-10013423D01*
X19777872Y-10513422D02*
X19777872Y-10421498D01*
X19685948Y-10421498D01*
X19685948Y-10513422D01*
X19777872Y-10513422D01*
X19777872Y-11013421D02*
X19777872Y-10921497D01*
X19685948Y-10921497D01*
X19685948Y-11013421D01*
X19777872Y-11013421D01*
D15*
X9681210Y-8830310D02*
X9839960Y-8671560D01*
X9681210Y-8512810D01*
X9522460Y-8671560D01*
X9681210Y-8830310D01*
X9681210Y-12487910D02*
X9839960Y-12329160D01*
X9681210Y-12170410D01*
X9522460Y-12329160D01*
X9681210Y-12487910D01*
X20019010Y-8830310D02*
X20177760Y-8671560D01*
X20019010Y-8512810D01*
X19860260Y-8671560D01*
X20019010Y-8830310D01*
X20019010Y-12487910D02*
X20177760Y-12329160D01*
X20019010Y-12170410D01*
X19860260Y-12329160D01*
X20019010Y-12487910D01*
D11*
X9520387Y-13062244D02*
X9520387Y-12862244D01*
X9520387Y-12862244D02*
X9568006Y-12862244D01*
X9568006Y-12862244D02*
X9596577Y-12871768D01*
X9596577Y-12871768D02*
X9615625Y-12890815D01*
X9615625Y-12890815D02*
X9625149Y-12909863D01*
X9625149Y-12909863D02*
X9634673Y-12947958D01*
X9634673Y-12947958D02*
X9634673Y-12976529D01*
X9634673Y-12976529D02*
X9625149Y-13014625D01*
X9625149Y-13014625D02*
X9615625Y-13033672D01*
X9615625Y-13033672D02*
X9596577Y-13052720D01*
X9596577Y-13052720D02*
X9568006Y-13062244D01*
X9568006Y-13062244D02*
X9520387Y-13062244D01*
X9720387Y-13062244D02*
X9720387Y-12928910D01*
X9720387Y-12967006D02*
X9729911Y-12947958D01*
X9729911Y-12947958D02*
X9739434Y-12938434D01*
X9739434Y-12938434D02*
X9758482Y-12928910D01*
X9758482Y-12928910D02*
X9777530Y-12928910D01*
X9844196Y-13062244D02*
X9844196Y-12928910D01*
X9844196Y-12862244D02*
X9834673Y-12871768D01*
X9834673Y-12871768D02*
X9844196Y-12881291D01*
X9844196Y-12881291D02*
X9853720Y-12871768D01*
X9853720Y-12871768D02*
X9844196Y-12862244D01*
X9844196Y-12862244D02*
X9844196Y-12881291D01*
X9968006Y-13062244D02*
X9948958Y-13052720D01*
X9948958Y-13052720D02*
X9939434Y-13033672D01*
X9939434Y-13033672D02*
X9939434Y-12862244D01*
X10072768Y-13062244D02*
X10053720Y-13052720D01*
X10053720Y-13052720D02*
X10044196Y-13033672D01*
X10044196Y-13033672D02*
X10044196Y-12862244D01*
X10301339Y-13062244D02*
X10301339Y-12862244D01*
X10301339Y-12862244D02*
X10368006Y-13005101D01*
X10368006Y-13005101D02*
X10434673Y-12862244D01*
X10434673Y-12862244D02*
X10434673Y-13062244D01*
X10615625Y-13062244D02*
X10615625Y-12957482D01*
X10615625Y-12957482D02*
X10606101Y-12938434D01*
X10606101Y-12938434D02*
X10587054Y-12928910D01*
X10587054Y-12928910D02*
X10548958Y-12928910D01*
X10548958Y-12928910D02*
X10529911Y-12938434D01*
X10615625Y-13052720D02*
X10596577Y-13062244D01*
X10596577Y-13062244D02*
X10548958Y-13062244D01*
X10548958Y-13062244D02*
X10529911Y-13052720D01*
X10529911Y-13052720D02*
X10520387Y-13033672D01*
X10520387Y-13033672D02*
X10520387Y-13014625D01*
X10520387Y-13014625D02*
X10529911Y-12995577D01*
X10529911Y-12995577D02*
X10548958Y-12986053D01*
X10548958Y-12986053D02*
X10596577Y-12986053D01*
X10596577Y-12986053D02*
X10615625Y-12976529D01*
X10710863Y-12928910D02*
X10710863Y-13128910D01*
X10710863Y-12938434D02*
X10729911Y-12928910D01*
X10729911Y-12928910D02*
X10768006Y-12928910D01*
X10768006Y-12928910D02*
X10787054Y-12938434D01*
X10787054Y-12938434D02*
X10796577Y-12947958D01*
X10796577Y-12947958D02*
X10806101Y-12967006D01*
X10806101Y-12967006D02*
X10806101Y-13024148D01*
X10806101Y-13024148D02*
X10796577Y-13043196D01*
X10796577Y-13043196D02*
X10787054Y-13052720D01*
X10787054Y-13052720D02*
X10768006Y-13062244D01*
X10768006Y-13062244D02*
X10729911Y-13062244D01*
X10729911Y-13062244D02*
X10710863Y-13052720D01*
X10891815Y-13043196D02*
X10901339Y-13052720D01*
X10901339Y-13052720D02*
X10891815Y-13062244D01*
X10891815Y-13062244D02*
X10882292Y-13052720D01*
X10882292Y-13052720D02*
X10891815Y-13043196D01*
X10891815Y-13043196D02*
X10891815Y-13062244D01*
X10891815Y-12938434D02*
X10901339Y-12947958D01*
X10901339Y-12947958D02*
X10891815Y-12957482D01*
X10891815Y-12957482D02*
X10882292Y-12947958D01*
X10882292Y-12947958D02*
X10891815Y-12938434D01*
X10891815Y-12938434D02*
X10891815Y-12957482D01*
D12*
X9179610Y-13350760D02*
X9259610Y-13430760D01*
X9259610Y-13350760D02*
X9179610Y-13430760D01*
D11*
X9558482Y-13282244D02*
X9577530Y-13282244D01*
X9577530Y-13282244D02*
X9596577Y-13291768D01*
X9596577Y-13291768D02*
X9606101Y-13301291D01*
X9606101Y-13301291D02*
X9615625Y-13320339D01*
X9615625Y-13320339D02*
X9625149Y-13358434D01*
X9625149Y-13358434D02*
X9625149Y-13406053D01*
X9625149Y-13406053D02*
X9615625Y-13444148D01*
X9615625Y-13444148D02*
X9606101Y-13463196D01*
X9606101Y-13463196D02*
X9596577Y-13472720D01*
X9596577Y-13472720D02*
X9577530Y-13482244D01*
X9577530Y-13482244D02*
X9558482Y-13482244D01*
X9558482Y-13482244D02*
X9539434Y-13472720D01*
X9539434Y-13472720D02*
X9529911Y-13463196D01*
X9529911Y-13463196D02*
X9520387Y-13444148D01*
X9520387Y-13444148D02*
X9510863Y-13406053D01*
X9510863Y-13406053D02*
X9510863Y-13358434D01*
X9510863Y-13358434D02*
X9520387Y-13320339D01*
X9520387Y-13320339D02*
X9529911Y-13301291D01*
X9529911Y-13301291D02*
X9539434Y-13291768D01*
X9539434Y-13291768D02*
X9558482Y-13282244D01*
X9710863Y-13463196D02*
X9720387Y-13472720D01*
X9720387Y-13472720D02*
X9710863Y-13482244D01*
X9710863Y-13482244D02*
X9701339Y-13472720D01*
X9701339Y-13472720D02*
X9710863Y-13463196D01*
X9710863Y-13463196D02*
X9710863Y-13482244D01*
X9834673Y-13367958D02*
X9815625Y-13358434D01*
X9815625Y-13358434D02*
X9806101Y-13348910D01*
X9806101Y-13348910D02*
X9796577Y-13329863D01*
X9796577Y-13329863D02*
X9796577Y-13320339D01*
X9796577Y-13320339D02*
X9806101Y-13301291D01*
X9806101Y-13301291D02*
X9815625Y-13291768D01*
X9815625Y-13291768D02*
X9834673Y-13282244D01*
X9834673Y-13282244D02*
X9872768Y-13282244D01*
X9872768Y-13282244D02*
X9891815Y-13291768D01*
X9891815Y-13291768D02*
X9901339Y-13301291D01*
X9901339Y-13301291D02*
X9910863Y-13320339D01*
X9910863Y-13320339D02*
X9910863Y-13329863D01*
X9910863Y-13329863D02*
X9901339Y-13348910D01*
X9901339Y-13348910D02*
X9891815Y-13358434D01*
X9891815Y-13358434D02*
X9872768Y-13367958D01*
X9872768Y-13367958D02*
X9834673Y-13367958D01*
X9834673Y-13367958D02*
X9815625Y-13377482D01*
X9815625Y-13377482D02*
X9806101Y-13387006D01*
X9806101Y-13387006D02*
X9796577Y-13406053D01*
X9796577Y-13406053D02*
X9796577Y-13444148D01*
X9796577Y-13444148D02*
X9806101Y-13463196D01*
X9806101Y-13463196D02*
X9815625Y-13472720D01*
X9815625Y-13472720D02*
X9834673Y-13482244D01*
X9834673Y-13482244D02*
X9872768Y-13482244D01*
X9872768Y-13482244D02*
X9891815Y-13472720D01*
X9891815Y-13472720D02*
X9901339Y-13463196D01*
X9901339Y-13463196D02*
X9910863Y-13444148D01*
X9910863Y-13444148D02*
X9910863Y-13406053D01*
X9910863Y-13406053D02*
X9901339Y-13387006D01*
X9901339Y-13387006D02*
X9891815Y-13377482D01*
X9891815Y-13377482D02*
X9872768Y-13367958D01*
X10034673Y-13282244D02*
X10053720Y-13282244D01*
X10053720Y-13282244D02*
X10072768Y-13291768D01*
X10072768Y-13291768D02*
X10082292Y-13301291D01*
X10082292Y-13301291D02*
X10091815Y-13320339D01*
X10091815Y-13320339D02*
X10101339Y-13358434D01*
X10101339Y-13358434D02*
X10101339Y-13406053D01*
X10101339Y-13406053D02*
X10091815Y-13444148D01*
X10091815Y-13444148D02*
X10082292Y-13463196D01*
X10082292Y-13463196D02*
X10072768Y-13472720D01*
X10072768Y-13472720D02*
X10053720Y-13482244D01*
X10053720Y-13482244D02*
X10034673Y-13482244D01*
X10034673Y-13482244D02*
X10015625Y-13472720D01*
X10015625Y-13472720D02*
X10006101Y-13463196D01*
X10006101Y-13463196D02*
X9996577Y-13444148D01*
X9996577Y-13444148D02*
X9987054Y-13406053D01*
X9987054Y-13406053D02*
X9987054Y-13358434D01*
X9987054Y-13358434D02*
X9996577Y-13320339D01*
X9996577Y-13320339D02*
X10006101Y-13301291D01*
X10006101Y-13301291D02*
X10015625Y-13291768D01*
X10015625Y-13291768D02*
X10034673Y-13282244D01*
X10225149Y-13282244D02*
X10244196Y-13282244D01*
X10244196Y-13282244D02*
X10263244Y-13291768D01*
X10263244Y-13291768D02*
X10272768Y-13301291D01*
X10272768Y-13301291D02*
X10282292Y-13320339D01*
X10282292Y-13320339D02*
X10291815Y-13358434D01*
X10291815Y-13358434D02*
X10291815Y-13406053D01*
X10291815Y-13406053D02*
X10282292Y-13444148D01*
X10282292Y-13444148D02*
X10272768Y-13463196D01*
X10272768Y-13463196D02*
X10263244Y-13472720D01*
X10263244Y-13472720D02*
X10244196Y-13482244D01*
X10244196Y-13482244D02*
X10225149Y-13482244D01*
X10225149Y-13482244D02*
X10206101Y-13472720D01*
X10206101Y-13472720D02*
X10196577Y-13463196D01*
X10196577Y-13463196D02*
X10187054Y-13444148D01*
X10187054Y-13444148D02*
X10177530Y-13406053D01*
X10177530Y-13406053D02*
X10177530Y-13358434D01*
X10177530Y-13358434D02*
X10187054Y-13320339D01*
X10187054Y-13320339D02*
X10196577Y-13301291D01*
X10196577Y-13301291D02*
X10206101Y-13291768D01*
X10206101Y-13291768D02*
X10225149Y-13282244D01*
X10377530Y-13482244D02*
X10377530Y-13348910D01*
X10377530Y-13367958D02*
X10387054Y-13358434D01*
X10387054Y-13358434D02*
X10406101Y-13348910D01*
X10406101Y-13348910D02*
X10434673Y-13348910D01*
X10434673Y-13348910D02*
X10453720Y-13358434D01*
X10453720Y-13358434D02*
X10463244Y-13377482D01*
X10463244Y-13377482D02*
X10463244Y-13482244D01*
X10463244Y-13377482D02*
X10472768Y-13358434D01*
X10472768Y-13358434D02*
X10491815Y-13348910D01*
X10491815Y-13348910D02*
X10520387Y-13348910D01*
X10520387Y-13348910D02*
X10539435Y-13358434D01*
X10539435Y-13358434D02*
X10548958Y-13377482D01*
X10548958Y-13377482D02*
X10548958Y-13482244D01*
X10644196Y-13482244D02*
X10644196Y-13348910D01*
X10644196Y-13367958D02*
X10653720Y-13358434D01*
X10653720Y-13358434D02*
X10672768Y-13348910D01*
X10672768Y-13348910D02*
X10701339Y-13348910D01*
X10701339Y-13348910D02*
X10720387Y-13358434D01*
X10720387Y-13358434D02*
X10729911Y-13377482D01*
X10729911Y-13377482D02*
X10729911Y-13482244D01*
X10729911Y-13377482D02*
X10739435Y-13358434D01*
X10739435Y-13358434D02*
X10758482Y-13348910D01*
X10758482Y-13348910D02*
X10787054Y-13348910D01*
X10787054Y-13348910D02*
X10806101Y-13358434D01*
X10806101Y-13358434D02*
X10815625Y-13377482D01*
X10815625Y-13377482D02*
X10815625Y-13482244D01*
X11206101Y-13272720D02*
X11034673Y-13529863D01*
X11463244Y-13282244D02*
X11482292Y-13282244D01*
X11482292Y-13282244D02*
X11501339Y-13291768D01*
X11501339Y-13291768D02*
X11510863Y-13301291D01*
X11510863Y-13301291D02*
X11520387Y-13320339D01*
X11520387Y-13320339D02*
X11529911Y-13358434D01*
X11529911Y-13358434D02*
X11529911Y-13406053D01*
X11529911Y-13406053D02*
X11520387Y-13444148D01*
X11520387Y-13444148D02*
X11510863Y-13463196D01*
X11510863Y-13463196D02*
X11501339Y-13472720D01*
X11501339Y-13472720D02*
X11482292Y-13482244D01*
X11482292Y-13482244D02*
X11463244Y-13482244D01*
X11463244Y-13482244D02*
X11444196Y-13472720D01*
X11444196Y-13472720D02*
X11434673Y-13463196D01*
X11434673Y-13463196D02*
X11425149Y-13444148D01*
X11425149Y-13444148D02*
X11415625Y-13406053D01*
X11415625Y-13406053D02*
X11415625Y-13358434D01*
X11415625Y-13358434D02*
X11425149Y-13320339D01*
X11425149Y-13320339D02*
X11434673Y-13301291D01*
X11434673Y-13301291D02*
X11444196Y-13291768D01*
X11444196Y-13291768D02*
X11463244Y-13282244D01*
X11615625Y-13463196D02*
X11625149Y-13472720D01*
X11625149Y-13472720D02*
X11615625Y-13482244D01*
X11615625Y-13482244D02*
X11606101Y-13472720D01*
X11606101Y-13472720D02*
X11615625Y-13463196D01*
X11615625Y-13463196D02*
X11615625Y-13482244D01*
X11748958Y-13282244D02*
X11768006Y-13282244D01*
X11768006Y-13282244D02*
X11787054Y-13291768D01*
X11787054Y-13291768D02*
X11796577Y-13301291D01*
X11796577Y-13301291D02*
X11806101Y-13320339D01*
X11806101Y-13320339D02*
X11815625Y-13358434D01*
X11815625Y-13358434D02*
X11815625Y-13406053D01*
X11815625Y-13406053D02*
X11806101Y-13444148D01*
X11806101Y-13444148D02*
X11796577Y-13463196D01*
X11796577Y-13463196D02*
X11787054Y-13472720D01*
X11787054Y-13472720D02*
X11768006Y-13482244D01*
X11768006Y-13482244D02*
X11748958Y-13482244D01*
X11748958Y-13482244D02*
X11729911Y-13472720D01*
X11729911Y-13472720D02*
X11720387Y-13463196D01*
X11720387Y-13463196D02*
X11710863Y-13444148D01*
X11710863Y-13444148D02*
X11701339Y-13406053D01*
X11701339Y-13406053D02*
X11701339Y-13358434D01*
X11701339Y-13358434D02*
X11710863Y-13320339D01*
X11710863Y-13320339D02*
X11720387Y-13301291D01*
X11720387Y-13301291D02*
X11729911Y-13291768D01*
X11729911Y-13291768D02*
X11748958Y-13282244D01*
X11882292Y-13282244D02*
X12006101Y-13282244D01*
X12006101Y-13282244D02*
X11939435Y-13358434D01*
X11939435Y-13358434D02*
X11968006Y-13358434D01*
X11968006Y-13358434D02*
X11987054Y-13367958D01*
X11987054Y-13367958D02*
X11996577Y-13377482D01*
X11996577Y-13377482D02*
X12006101Y-13396529D01*
X12006101Y-13396529D02*
X12006101Y-13444148D01*
X12006101Y-13444148D02*
X11996577Y-13463196D01*
X11996577Y-13463196D02*
X11987054Y-13472720D01*
X11987054Y-13472720D02*
X11968006Y-13482244D01*
X11968006Y-13482244D02*
X11910863Y-13482244D01*
X11910863Y-13482244D02*
X11891816Y-13472720D01*
X11891816Y-13472720D02*
X11882292Y-13463196D01*
X12196577Y-13482244D02*
X12082292Y-13482244D01*
X12139435Y-13482244D02*
X12139435Y-13282244D01*
X12139435Y-13282244D02*
X12120387Y-13310815D01*
X12120387Y-13310815D02*
X12101339Y-13329863D01*
X12101339Y-13329863D02*
X12082292Y-13339387D01*
X12377530Y-13282244D02*
X12282292Y-13282244D01*
X12282292Y-13282244D02*
X12272768Y-13377482D01*
X12272768Y-13377482D02*
X12282292Y-13367958D01*
X12282292Y-13367958D02*
X12301339Y-13358434D01*
X12301339Y-13358434D02*
X12348958Y-13358434D01*
X12348958Y-13358434D02*
X12368006Y-13367958D01*
X12368006Y-13367958D02*
X12377530Y-13377482D01*
X12377530Y-13377482D02*
X12387054Y-13396529D01*
X12387054Y-13396529D02*
X12387054Y-13444148D01*
X12387054Y-13444148D02*
X12377530Y-13463196D01*
X12377530Y-13463196D02*
X12368006Y-13472720D01*
X12368006Y-13472720D02*
X12348958Y-13482244D01*
X12348958Y-13482244D02*
X12301339Y-13482244D01*
X12301339Y-13482244D02*
X12282292Y-13472720D01*
X12282292Y-13472720D02*
X12272768Y-13463196D01*
X12463244Y-13282244D02*
X12463244Y-13320339D01*
X12539435Y-13282244D02*
X12539435Y-13320339D01*
X12834673Y-13558434D02*
X12825149Y-13548910D01*
X12825149Y-13548910D02*
X12806101Y-13520339D01*
X12806101Y-13520339D02*
X12796578Y-13501291D01*
X12796578Y-13501291D02*
X12787054Y-13472720D01*
X12787054Y-13472720D02*
X12777530Y-13425101D01*
X12777530Y-13425101D02*
X12777530Y-13387006D01*
X12777530Y-13387006D02*
X12787054Y-13339387D01*
X12787054Y-13339387D02*
X12796578Y-13310815D01*
X12796578Y-13310815D02*
X12806101Y-13291768D01*
X12806101Y-13291768D02*
X12825149Y-13263196D01*
X12825149Y-13263196D02*
X12834673Y-13253672D01*
X12939435Y-13367958D02*
X12920387Y-13358434D01*
X12920387Y-13358434D02*
X12910863Y-13348910D01*
X12910863Y-13348910D02*
X12901339Y-13329863D01*
X12901339Y-13329863D02*
X12901339Y-13320339D01*
X12901339Y-13320339D02*
X12910863Y-13301291D01*
X12910863Y-13301291D02*
X12920387Y-13291768D01*
X12920387Y-13291768D02*
X12939435Y-13282244D01*
X12939435Y-13282244D02*
X12977530Y-13282244D01*
X12977530Y-13282244D02*
X12996578Y-13291768D01*
X12996578Y-13291768D02*
X13006101Y-13301291D01*
X13006101Y-13301291D02*
X13015625Y-13320339D01*
X13015625Y-13320339D02*
X13015625Y-13329863D01*
X13015625Y-13329863D02*
X13006101Y-13348910D01*
X13006101Y-13348910D02*
X12996578Y-13358434D01*
X12996578Y-13358434D02*
X12977530Y-13367958D01*
X12977530Y-13367958D02*
X12939435Y-13367958D01*
X12939435Y-13367958D02*
X12920387Y-13377482D01*
X12920387Y-13377482D02*
X12910863Y-13387006D01*
X12910863Y-13387006D02*
X12901339Y-13406053D01*
X12901339Y-13406053D02*
X12901339Y-13444148D01*
X12901339Y-13444148D02*
X12910863Y-13463196D01*
X12910863Y-13463196D02*
X12920387Y-13472720D01*
X12920387Y-13472720D02*
X12939435Y-13482244D01*
X12939435Y-13482244D02*
X12977530Y-13482244D01*
X12977530Y-13482244D02*
X12996578Y-13472720D01*
X12996578Y-13472720D02*
X13006101Y-13463196D01*
X13006101Y-13463196D02*
X13015625Y-13444148D01*
X13015625Y-13444148D02*
X13015625Y-13406053D01*
X13015625Y-13406053D02*
X13006101Y-13387006D01*
X13006101Y-13387006D02*
X12996578Y-13377482D01*
X12996578Y-13377482D02*
X12977530Y-13367958D01*
X13253720Y-13482244D02*
X13253720Y-13282244D01*
X13339435Y-13482244D02*
X13339435Y-13377482D01*
X13339435Y-13377482D02*
X13329911Y-13358434D01*
X13329911Y-13358434D02*
X13310863Y-13348910D01*
X13310863Y-13348910D02*
X13282292Y-13348910D01*
X13282292Y-13348910D02*
X13263244Y-13358434D01*
X13263244Y-13358434D02*
X13253720Y-13367958D01*
X13463244Y-13482244D02*
X13444197Y-13472720D01*
X13444197Y-13472720D02*
X13434673Y-13463196D01*
X13434673Y-13463196D02*
X13425149Y-13444148D01*
X13425149Y-13444148D02*
X13425149Y-13387006D01*
X13425149Y-13387006D02*
X13434673Y-13367958D01*
X13434673Y-13367958D02*
X13444197Y-13358434D01*
X13444197Y-13358434D02*
X13463244Y-13348910D01*
X13463244Y-13348910D02*
X13491816Y-13348910D01*
X13491816Y-13348910D02*
X13510863Y-13358434D01*
X13510863Y-13358434D02*
X13520387Y-13367958D01*
X13520387Y-13367958D02*
X13529911Y-13387006D01*
X13529911Y-13387006D02*
X13529911Y-13444148D01*
X13529911Y-13444148D02*
X13520387Y-13463196D01*
X13520387Y-13463196D02*
X13510863Y-13472720D01*
X13510863Y-13472720D02*
X13491816Y-13482244D01*
X13491816Y-13482244D02*
X13463244Y-13482244D01*
X13644197Y-13482244D02*
X13625149Y-13472720D01*
X13625149Y-13472720D02*
X13615625Y-13453672D01*
X13615625Y-13453672D02*
X13615625Y-13282244D01*
X13796578Y-13472720D02*
X13777530Y-13482244D01*
X13777530Y-13482244D02*
X13739435Y-13482244D01*
X13739435Y-13482244D02*
X13720387Y-13472720D01*
X13720387Y-13472720D02*
X13710863Y-13453672D01*
X13710863Y-13453672D02*
X13710863Y-13377482D01*
X13710863Y-13377482D02*
X13720387Y-13358434D01*
X13720387Y-13358434D02*
X13739435Y-13348910D01*
X13739435Y-13348910D02*
X13777530Y-13348910D01*
X13777530Y-13348910D02*
X13796578Y-13358434D01*
X13796578Y-13358434D02*
X13806101Y-13377482D01*
X13806101Y-13377482D02*
X13806101Y-13396529D01*
X13806101Y-13396529D02*
X13710863Y-13415577D01*
X13882292Y-13472720D02*
X13901340Y-13482244D01*
X13901340Y-13482244D02*
X13939435Y-13482244D01*
X13939435Y-13482244D02*
X13958482Y-13472720D01*
X13958482Y-13472720D02*
X13968006Y-13453672D01*
X13968006Y-13453672D02*
X13968006Y-13444148D01*
X13968006Y-13444148D02*
X13958482Y-13425101D01*
X13958482Y-13425101D02*
X13939435Y-13415577D01*
X13939435Y-13415577D02*
X13910863Y-13415577D01*
X13910863Y-13415577D02*
X13891816Y-13406053D01*
X13891816Y-13406053D02*
X13882292Y-13387006D01*
X13882292Y-13387006D02*
X13882292Y-13377482D01*
X13882292Y-13377482D02*
X13891816Y-13358434D01*
X13891816Y-13358434D02*
X13910863Y-13348910D01*
X13910863Y-13348910D02*
X13939435Y-13348910D01*
X13939435Y-13348910D02*
X13958482Y-13358434D01*
X14034673Y-13558434D02*
X14044197Y-13548910D01*
X14044197Y-13548910D02*
X14063244Y-13520339D01*
X14063244Y-13520339D02*
X14072768Y-13501291D01*
X14072768Y-13501291D02*
X14082292Y-13472720D01*
X14082292Y-13472720D02*
X14091816Y-13425101D01*
X14091816Y-13425101D02*
X14091816Y-13387006D01*
X14091816Y-13387006D02*
X14082292Y-13339387D01*
X14082292Y-13339387D02*
X14072768Y-13310815D01*
X14072768Y-13310815D02*
X14063244Y-13291768D01*
X14063244Y-13291768D02*
X14044197Y-13263196D01*
X14044197Y-13263196D02*
X14034673Y-13253672D01*
D12*
X9259610Y-13654760D02*
G75*
G02*
X9159610Y-13654760I-50000J0D01*
G01*
X9159610Y-13654760D02*
G75*
G02*
X9259610Y-13654760I50000J0D01*
G01*
D11*
X9625149Y-13746244D02*
X9510863Y-13746244D01*
X9568006Y-13746244D02*
X9568006Y-13546244D01*
X9568006Y-13546244D02*
X9548958Y-13574815D01*
X9548958Y-13574815D02*
X9529911Y-13593863D01*
X9529911Y-13593863D02*
X9510863Y-13603387D01*
X9710863Y-13727196D02*
X9720387Y-13736720D01*
X9720387Y-13736720D02*
X9710863Y-13746244D01*
X9710863Y-13746244D02*
X9701339Y-13736720D01*
X9701339Y-13736720D02*
X9710863Y-13727196D01*
X9710863Y-13727196D02*
X9710863Y-13746244D01*
X9844196Y-13546244D02*
X9863244Y-13546244D01*
X9863244Y-13546244D02*
X9882292Y-13555768D01*
X9882292Y-13555768D02*
X9891815Y-13565291D01*
X9891815Y-13565291D02*
X9901339Y-13584339D01*
X9901339Y-13584339D02*
X9910863Y-13622434D01*
X9910863Y-13622434D02*
X9910863Y-13670053D01*
X9910863Y-13670053D02*
X9901339Y-13708148D01*
X9901339Y-13708148D02*
X9891815Y-13727196D01*
X9891815Y-13727196D02*
X9882292Y-13736720D01*
X9882292Y-13736720D02*
X9863244Y-13746244D01*
X9863244Y-13746244D02*
X9844196Y-13746244D01*
X9844196Y-13746244D02*
X9825149Y-13736720D01*
X9825149Y-13736720D02*
X9815625Y-13727196D01*
X9815625Y-13727196D02*
X9806101Y-13708148D01*
X9806101Y-13708148D02*
X9796577Y-13670053D01*
X9796577Y-13670053D02*
X9796577Y-13622434D01*
X9796577Y-13622434D02*
X9806101Y-13584339D01*
X9806101Y-13584339D02*
X9815625Y-13565291D01*
X9815625Y-13565291D02*
X9825149Y-13555768D01*
X9825149Y-13555768D02*
X9844196Y-13546244D01*
X10034673Y-13546244D02*
X10053720Y-13546244D01*
X10053720Y-13546244D02*
X10072768Y-13555768D01*
X10072768Y-13555768D02*
X10082292Y-13565291D01*
X10082292Y-13565291D02*
X10091815Y-13584339D01*
X10091815Y-13584339D02*
X10101339Y-13622434D01*
X10101339Y-13622434D02*
X10101339Y-13670053D01*
X10101339Y-13670053D02*
X10091815Y-13708148D01*
X10091815Y-13708148D02*
X10082292Y-13727196D01*
X10082292Y-13727196D02*
X10072768Y-13736720D01*
X10072768Y-13736720D02*
X10053720Y-13746244D01*
X10053720Y-13746244D02*
X10034673Y-13746244D01*
X10034673Y-13746244D02*
X10015625Y-13736720D01*
X10015625Y-13736720D02*
X10006101Y-13727196D01*
X10006101Y-13727196D02*
X9996577Y-13708148D01*
X9996577Y-13708148D02*
X9987054Y-13670053D01*
X9987054Y-13670053D02*
X9987054Y-13622434D01*
X9987054Y-13622434D02*
X9996577Y-13584339D01*
X9996577Y-13584339D02*
X10006101Y-13565291D01*
X10006101Y-13565291D02*
X10015625Y-13555768D01*
X10015625Y-13555768D02*
X10034673Y-13546244D01*
X10225149Y-13546244D02*
X10244196Y-13546244D01*
X10244196Y-13546244D02*
X10263244Y-13555768D01*
X10263244Y-13555768D02*
X10272768Y-13565291D01*
X10272768Y-13565291D02*
X10282292Y-13584339D01*
X10282292Y-13584339D02*
X10291815Y-13622434D01*
X10291815Y-13622434D02*
X10291815Y-13670053D01*
X10291815Y-13670053D02*
X10282292Y-13708148D01*
X10282292Y-13708148D02*
X10272768Y-13727196D01*
X10272768Y-13727196D02*
X10263244Y-13736720D01*
X10263244Y-13736720D02*
X10244196Y-13746244D01*
X10244196Y-13746244D02*
X10225149Y-13746244D01*
X10225149Y-13746244D02*
X10206101Y-13736720D01*
X10206101Y-13736720D02*
X10196577Y-13727196D01*
X10196577Y-13727196D02*
X10187054Y-13708148D01*
X10187054Y-13708148D02*
X10177530Y-13670053D01*
X10177530Y-13670053D02*
X10177530Y-13622434D01*
X10177530Y-13622434D02*
X10187054Y-13584339D01*
X10187054Y-13584339D02*
X10196577Y-13565291D01*
X10196577Y-13565291D02*
X10206101Y-13555768D01*
X10206101Y-13555768D02*
X10225149Y-13546244D01*
X10377530Y-13746244D02*
X10377530Y-13612910D01*
X10377530Y-13631958D02*
X10387054Y-13622434D01*
X10387054Y-13622434D02*
X10406101Y-13612910D01*
X10406101Y-13612910D02*
X10434673Y-13612910D01*
X10434673Y-13612910D02*
X10453720Y-13622434D01*
X10453720Y-13622434D02*
X10463244Y-13641482D01*
X10463244Y-13641482D02*
X10463244Y-13746244D01*
X10463244Y-13641482D02*
X10472768Y-13622434D01*
X10472768Y-13622434D02*
X10491815Y-13612910D01*
X10491815Y-13612910D02*
X10520387Y-13612910D01*
X10520387Y-13612910D02*
X10539435Y-13622434D01*
X10539435Y-13622434D02*
X10548958Y-13641482D01*
X10548958Y-13641482D02*
X10548958Y-13746244D01*
X10644196Y-13746244D02*
X10644196Y-13612910D01*
X10644196Y-13631958D02*
X10653720Y-13622434D01*
X10653720Y-13622434D02*
X10672768Y-13612910D01*
X10672768Y-13612910D02*
X10701339Y-13612910D01*
X10701339Y-13612910D02*
X10720387Y-13622434D01*
X10720387Y-13622434D02*
X10729911Y-13641482D01*
X10729911Y-13641482D02*
X10729911Y-13746244D01*
X10729911Y-13641482D02*
X10739435Y-13622434D01*
X10739435Y-13622434D02*
X10758482Y-13612910D01*
X10758482Y-13612910D02*
X10787054Y-13612910D01*
X10787054Y-13612910D02*
X10806101Y-13622434D01*
X10806101Y-13622434D02*
X10815625Y-13641482D01*
X10815625Y-13641482D02*
X10815625Y-13746244D01*
X11206101Y-13536720D02*
X11034673Y-13793863D01*
X11463244Y-13546244D02*
X11482292Y-13546244D01*
X11482292Y-13546244D02*
X11501339Y-13555768D01*
X11501339Y-13555768D02*
X11510863Y-13565291D01*
X11510863Y-13565291D02*
X11520387Y-13584339D01*
X11520387Y-13584339D02*
X11529911Y-13622434D01*
X11529911Y-13622434D02*
X11529911Y-13670053D01*
X11529911Y-13670053D02*
X11520387Y-13708148D01*
X11520387Y-13708148D02*
X11510863Y-13727196D01*
X11510863Y-13727196D02*
X11501339Y-13736720D01*
X11501339Y-13736720D02*
X11482292Y-13746244D01*
X11482292Y-13746244D02*
X11463244Y-13746244D01*
X11463244Y-13746244D02*
X11444196Y-13736720D01*
X11444196Y-13736720D02*
X11434673Y-13727196D01*
X11434673Y-13727196D02*
X11425149Y-13708148D01*
X11425149Y-13708148D02*
X11415625Y-13670053D01*
X11415625Y-13670053D02*
X11415625Y-13622434D01*
X11415625Y-13622434D02*
X11425149Y-13584339D01*
X11425149Y-13584339D02*
X11434673Y-13565291D01*
X11434673Y-13565291D02*
X11444196Y-13555768D01*
X11444196Y-13555768D02*
X11463244Y-13546244D01*
X11615625Y-13727196D02*
X11625149Y-13736720D01*
X11625149Y-13736720D02*
X11615625Y-13746244D01*
X11615625Y-13746244D02*
X11606101Y-13736720D01*
X11606101Y-13736720D02*
X11615625Y-13727196D01*
X11615625Y-13727196D02*
X11615625Y-13746244D01*
X11748958Y-13546244D02*
X11768006Y-13546244D01*
X11768006Y-13546244D02*
X11787054Y-13555768D01*
X11787054Y-13555768D02*
X11796577Y-13565291D01*
X11796577Y-13565291D02*
X11806101Y-13584339D01*
X11806101Y-13584339D02*
X11815625Y-13622434D01*
X11815625Y-13622434D02*
X11815625Y-13670053D01*
X11815625Y-13670053D02*
X11806101Y-13708148D01*
X11806101Y-13708148D02*
X11796577Y-13727196D01*
X11796577Y-13727196D02*
X11787054Y-13736720D01*
X11787054Y-13736720D02*
X11768006Y-13746244D01*
X11768006Y-13746244D02*
X11748958Y-13746244D01*
X11748958Y-13746244D02*
X11729911Y-13736720D01*
X11729911Y-13736720D02*
X11720387Y-13727196D01*
X11720387Y-13727196D02*
X11710863Y-13708148D01*
X11710863Y-13708148D02*
X11701339Y-13670053D01*
X11701339Y-13670053D02*
X11701339Y-13622434D01*
X11701339Y-13622434D02*
X11710863Y-13584339D01*
X11710863Y-13584339D02*
X11720387Y-13565291D01*
X11720387Y-13565291D02*
X11729911Y-13555768D01*
X11729911Y-13555768D02*
X11748958Y-13546244D01*
X11882292Y-13546244D02*
X12006101Y-13546244D01*
X12006101Y-13546244D02*
X11939435Y-13622434D01*
X11939435Y-13622434D02*
X11968006Y-13622434D01*
X11968006Y-13622434D02*
X11987054Y-13631958D01*
X11987054Y-13631958D02*
X11996577Y-13641482D01*
X11996577Y-13641482D02*
X12006101Y-13660529D01*
X12006101Y-13660529D02*
X12006101Y-13708148D01*
X12006101Y-13708148D02*
X11996577Y-13727196D01*
X11996577Y-13727196D02*
X11987054Y-13736720D01*
X11987054Y-13736720D02*
X11968006Y-13746244D01*
X11968006Y-13746244D02*
X11910863Y-13746244D01*
X11910863Y-13746244D02*
X11891816Y-13736720D01*
X11891816Y-13736720D02*
X11882292Y-13727196D01*
X12101339Y-13746244D02*
X12139435Y-13746244D01*
X12139435Y-13746244D02*
X12158482Y-13736720D01*
X12158482Y-13736720D02*
X12168006Y-13727196D01*
X12168006Y-13727196D02*
X12187054Y-13698625D01*
X12187054Y-13698625D02*
X12196577Y-13660529D01*
X12196577Y-13660529D02*
X12196577Y-13584339D01*
X12196577Y-13584339D02*
X12187054Y-13565291D01*
X12187054Y-13565291D02*
X12177530Y-13555768D01*
X12177530Y-13555768D02*
X12158482Y-13546244D01*
X12158482Y-13546244D02*
X12120387Y-13546244D01*
X12120387Y-13546244D02*
X12101339Y-13555768D01*
X12101339Y-13555768D02*
X12091816Y-13565291D01*
X12091816Y-13565291D02*
X12082292Y-13584339D01*
X12082292Y-13584339D02*
X12082292Y-13631958D01*
X12082292Y-13631958D02*
X12091816Y-13651006D01*
X12091816Y-13651006D02*
X12101339Y-13660529D01*
X12101339Y-13660529D02*
X12120387Y-13670053D01*
X12120387Y-13670053D02*
X12158482Y-13670053D01*
X12158482Y-13670053D02*
X12177530Y-13660529D01*
X12177530Y-13660529D02*
X12187054Y-13651006D01*
X12187054Y-13651006D02*
X12196577Y-13631958D01*
X12368006Y-13612910D02*
X12368006Y-13746244D01*
X12320387Y-13536720D02*
X12272768Y-13679577D01*
X12272768Y-13679577D02*
X12396577Y-13679577D01*
X12463244Y-13546244D02*
X12463244Y-13584339D01*
X12539435Y-13546244D02*
X12539435Y-13584339D01*
X12834673Y-13822434D02*
X12825149Y-13812910D01*
X12825149Y-13812910D02*
X12806101Y-13784339D01*
X12806101Y-13784339D02*
X12796578Y-13765291D01*
X12796578Y-13765291D02*
X12787054Y-13736720D01*
X12787054Y-13736720D02*
X12777530Y-13689101D01*
X12777530Y-13689101D02*
X12777530Y-13651006D01*
X12777530Y-13651006D02*
X12787054Y-13603387D01*
X12787054Y-13603387D02*
X12796578Y-13574815D01*
X12796578Y-13574815D02*
X12806101Y-13555768D01*
X12806101Y-13555768D02*
X12825149Y-13527196D01*
X12825149Y-13527196D02*
X12834673Y-13517672D01*
X13015625Y-13746244D02*
X12901339Y-13746244D01*
X12958482Y-13746244D02*
X12958482Y-13546244D01*
X12958482Y-13546244D02*
X12939435Y-13574815D01*
X12939435Y-13574815D02*
X12920387Y-13593863D01*
X12920387Y-13593863D02*
X12901339Y-13603387D01*
X13129911Y-13631958D02*
X13110863Y-13622434D01*
X13110863Y-13622434D02*
X13101339Y-13612910D01*
X13101339Y-13612910D02*
X13091816Y-13593863D01*
X13091816Y-13593863D02*
X13091816Y-13584339D01*
X13091816Y-13584339D02*
X13101339Y-13565291D01*
X13101339Y-13565291D02*
X13110863Y-13555768D01*
X13110863Y-13555768D02*
X13129911Y-13546244D01*
X13129911Y-13546244D02*
X13168006Y-13546244D01*
X13168006Y-13546244D02*
X13187054Y-13555768D01*
X13187054Y-13555768D02*
X13196578Y-13565291D01*
X13196578Y-13565291D02*
X13206101Y-13584339D01*
X13206101Y-13584339D02*
X13206101Y-13593863D01*
X13206101Y-13593863D02*
X13196578Y-13612910D01*
X13196578Y-13612910D02*
X13187054Y-13622434D01*
X13187054Y-13622434D02*
X13168006Y-13631958D01*
X13168006Y-13631958D02*
X13129911Y-13631958D01*
X13129911Y-13631958D02*
X13110863Y-13641482D01*
X13110863Y-13641482D02*
X13101339Y-13651006D01*
X13101339Y-13651006D02*
X13091816Y-13670053D01*
X13091816Y-13670053D02*
X13091816Y-13708148D01*
X13091816Y-13708148D02*
X13101339Y-13727196D01*
X13101339Y-13727196D02*
X13110863Y-13736720D01*
X13110863Y-13736720D02*
X13129911Y-13746244D01*
X13129911Y-13746244D02*
X13168006Y-13746244D01*
X13168006Y-13746244D02*
X13187054Y-13736720D01*
X13187054Y-13736720D02*
X13196578Y-13727196D01*
X13196578Y-13727196D02*
X13206101Y-13708148D01*
X13206101Y-13708148D02*
X13206101Y-13670053D01*
X13206101Y-13670053D02*
X13196578Y-13651006D01*
X13196578Y-13651006D02*
X13187054Y-13641482D01*
X13187054Y-13641482D02*
X13168006Y-13631958D01*
X13444197Y-13746244D02*
X13444197Y-13546244D01*
X13529911Y-13746244D02*
X13529911Y-13641482D01*
X13529911Y-13641482D02*
X13520387Y-13622434D01*
X13520387Y-13622434D02*
X13501340Y-13612910D01*
X13501340Y-13612910D02*
X13472768Y-13612910D01*
X13472768Y-13612910D02*
X13453720Y-13622434D01*
X13453720Y-13622434D02*
X13444197Y-13631958D01*
X13653720Y-13746244D02*
X13634673Y-13736720D01*
X13634673Y-13736720D02*
X13625149Y-13727196D01*
X13625149Y-13727196D02*
X13615625Y-13708148D01*
X13615625Y-13708148D02*
X13615625Y-13651006D01*
X13615625Y-13651006D02*
X13625149Y-13631958D01*
X13625149Y-13631958D02*
X13634673Y-13622434D01*
X13634673Y-13622434D02*
X13653720Y-13612910D01*
X13653720Y-13612910D02*
X13682292Y-13612910D01*
X13682292Y-13612910D02*
X13701340Y-13622434D01*
X13701340Y-13622434D02*
X13710863Y-13631958D01*
X13710863Y-13631958D02*
X13720387Y-13651006D01*
X13720387Y-13651006D02*
X13720387Y-13708148D01*
X13720387Y-13708148D02*
X13710863Y-13727196D01*
X13710863Y-13727196D02*
X13701340Y-13736720D01*
X13701340Y-13736720D02*
X13682292Y-13746244D01*
X13682292Y-13746244D02*
X13653720Y-13746244D01*
X13834673Y-13746244D02*
X13815625Y-13736720D01*
X13815625Y-13736720D02*
X13806101Y-13717672D01*
X13806101Y-13717672D02*
X13806101Y-13546244D01*
X13987054Y-13736720D02*
X13968006Y-13746244D01*
X13968006Y-13746244D02*
X13929911Y-13746244D01*
X13929911Y-13746244D02*
X13910863Y-13736720D01*
X13910863Y-13736720D02*
X13901340Y-13717672D01*
X13901340Y-13717672D02*
X13901340Y-13641482D01*
X13901340Y-13641482D02*
X13910863Y-13622434D01*
X13910863Y-13622434D02*
X13929911Y-13612910D01*
X13929911Y-13612910D02*
X13968006Y-13612910D01*
X13968006Y-13612910D02*
X13987054Y-13622434D01*
X13987054Y-13622434D02*
X13996578Y-13641482D01*
X13996578Y-13641482D02*
X13996578Y-13660529D01*
X13996578Y-13660529D02*
X13901340Y-13679577D01*
X14072768Y-13736720D02*
X14091816Y-13746244D01*
X14091816Y-13746244D02*
X14129911Y-13746244D01*
X14129911Y-13746244D02*
X14148959Y-13736720D01*
X14148959Y-13736720D02*
X14158482Y-13717672D01*
X14158482Y-13717672D02*
X14158482Y-13708148D01*
X14158482Y-13708148D02*
X14148959Y-13689101D01*
X14148959Y-13689101D02*
X14129911Y-13679577D01*
X14129911Y-13679577D02*
X14101340Y-13679577D01*
X14101340Y-13679577D02*
X14082292Y-13670053D01*
X14082292Y-13670053D02*
X14072768Y-13651006D01*
X14072768Y-13651006D02*
X14072768Y-13641482D01*
X14072768Y-13641482D02*
X14082292Y-13622434D01*
X14082292Y-13622434D02*
X14101340Y-13612910D01*
X14101340Y-13612910D02*
X14129911Y-13612910D01*
X14129911Y-13612910D02*
X14148959Y-13622434D01*
X14225149Y-13822434D02*
X14234673Y-13812910D01*
X14234673Y-13812910D02*
X14253721Y-13784339D01*
X14253721Y-13784339D02*
X14263244Y-13765291D01*
X14263244Y-13765291D02*
X14272768Y-13736720D01*
X14272768Y-13736720D02*
X14282292Y-13689101D01*
X14282292Y-13689101D02*
X14282292Y-13651006D01*
X14282292Y-13651006D02*
X14272768Y-13603387D01*
X14272768Y-13603387D02*
X14263244Y-13574815D01*
X14263244Y-13574815D02*
X14253721Y-13555768D01*
X14253721Y-13555768D02*
X14234673Y-13527196D01*
X14234673Y-13527196D02*
X14225149Y-13517672D01*
D13*
X9204610Y-13863760D02*
X9204610Y-13973760D01*
X9149610Y-13918760D02*
X9259610Y-13918760D01*
D11*
X9625149Y-14010244D02*
X9510863Y-14010244D01*
X9568006Y-14010244D02*
X9568006Y-13810244D01*
X9568006Y-13810244D02*
X9548958Y-13838815D01*
X9548958Y-13838815D02*
X9529911Y-13857863D01*
X9529911Y-13857863D02*
X9510863Y-13867387D01*
X9710863Y-13991196D02*
X9720387Y-14000720D01*
X9720387Y-14000720D02*
X9710863Y-14010244D01*
X9710863Y-14010244D02*
X9701339Y-14000720D01*
X9701339Y-14000720D02*
X9710863Y-13991196D01*
X9710863Y-13991196D02*
X9710863Y-14010244D01*
X9910863Y-14010244D02*
X9796577Y-14010244D01*
X9853720Y-14010244D02*
X9853720Y-13810244D01*
X9853720Y-13810244D02*
X9834673Y-13838815D01*
X9834673Y-13838815D02*
X9815625Y-13857863D01*
X9815625Y-13857863D02*
X9796577Y-13867387D01*
X10034673Y-13810244D02*
X10053720Y-13810244D01*
X10053720Y-13810244D02*
X10072768Y-13819768D01*
X10072768Y-13819768D02*
X10082292Y-13829291D01*
X10082292Y-13829291D02*
X10091815Y-13848339D01*
X10091815Y-13848339D02*
X10101339Y-13886434D01*
X10101339Y-13886434D02*
X10101339Y-13934053D01*
X10101339Y-13934053D02*
X10091815Y-13972148D01*
X10091815Y-13972148D02*
X10082292Y-13991196D01*
X10082292Y-13991196D02*
X10072768Y-14000720D01*
X10072768Y-14000720D02*
X10053720Y-14010244D01*
X10053720Y-14010244D02*
X10034673Y-14010244D01*
X10034673Y-14010244D02*
X10015625Y-14000720D01*
X10015625Y-14000720D02*
X10006101Y-13991196D01*
X10006101Y-13991196D02*
X9996577Y-13972148D01*
X9996577Y-13972148D02*
X9987054Y-13934053D01*
X9987054Y-13934053D02*
X9987054Y-13886434D01*
X9987054Y-13886434D02*
X9996577Y-13848339D01*
X9996577Y-13848339D02*
X10006101Y-13829291D01*
X10006101Y-13829291D02*
X10015625Y-13819768D01*
X10015625Y-13819768D02*
X10034673Y-13810244D01*
X10225149Y-13810244D02*
X10244196Y-13810244D01*
X10244196Y-13810244D02*
X10263244Y-13819768D01*
X10263244Y-13819768D02*
X10272768Y-13829291D01*
X10272768Y-13829291D02*
X10282292Y-13848339D01*
X10282292Y-13848339D02*
X10291815Y-13886434D01*
X10291815Y-13886434D02*
X10291815Y-13934053D01*
X10291815Y-13934053D02*
X10282292Y-13972148D01*
X10282292Y-13972148D02*
X10272768Y-13991196D01*
X10272768Y-13991196D02*
X10263244Y-14000720D01*
X10263244Y-14000720D02*
X10244196Y-14010244D01*
X10244196Y-14010244D02*
X10225149Y-14010244D01*
X10225149Y-14010244D02*
X10206101Y-14000720D01*
X10206101Y-14000720D02*
X10196577Y-13991196D01*
X10196577Y-13991196D02*
X10187054Y-13972148D01*
X10187054Y-13972148D02*
X10177530Y-13934053D01*
X10177530Y-13934053D02*
X10177530Y-13886434D01*
X10177530Y-13886434D02*
X10187054Y-13848339D01*
X10187054Y-13848339D02*
X10196577Y-13829291D01*
X10196577Y-13829291D02*
X10206101Y-13819768D01*
X10206101Y-13819768D02*
X10225149Y-13810244D01*
X10377530Y-14010244D02*
X10377530Y-13876910D01*
X10377530Y-13895958D02*
X10387054Y-13886434D01*
X10387054Y-13886434D02*
X10406101Y-13876910D01*
X10406101Y-13876910D02*
X10434673Y-13876910D01*
X10434673Y-13876910D02*
X10453720Y-13886434D01*
X10453720Y-13886434D02*
X10463244Y-13905482D01*
X10463244Y-13905482D02*
X10463244Y-14010244D01*
X10463244Y-13905482D02*
X10472768Y-13886434D01*
X10472768Y-13886434D02*
X10491815Y-13876910D01*
X10491815Y-13876910D02*
X10520387Y-13876910D01*
X10520387Y-13876910D02*
X10539435Y-13886434D01*
X10539435Y-13886434D02*
X10548958Y-13905482D01*
X10548958Y-13905482D02*
X10548958Y-14010244D01*
X10644196Y-14010244D02*
X10644196Y-13876910D01*
X10644196Y-13895958D02*
X10653720Y-13886434D01*
X10653720Y-13886434D02*
X10672768Y-13876910D01*
X10672768Y-13876910D02*
X10701339Y-13876910D01*
X10701339Y-13876910D02*
X10720387Y-13886434D01*
X10720387Y-13886434D02*
X10729911Y-13905482D01*
X10729911Y-13905482D02*
X10729911Y-14010244D01*
X10729911Y-13905482D02*
X10739435Y-13886434D01*
X10739435Y-13886434D02*
X10758482Y-13876910D01*
X10758482Y-13876910D02*
X10787054Y-13876910D01*
X10787054Y-13876910D02*
X10806101Y-13886434D01*
X10806101Y-13886434D02*
X10815625Y-13905482D01*
X10815625Y-13905482D02*
X10815625Y-14010244D01*
X11206101Y-13800720D02*
X11034673Y-14057863D01*
X11463244Y-13810244D02*
X11482292Y-13810244D01*
X11482292Y-13810244D02*
X11501339Y-13819768D01*
X11501339Y-13819768D02*
X11510863Y-13829291D01*
X11510863Y-13829291D02*
X11520387Y-13848339D01*
X11520387Y-13848339D02*
X11529911Y-13886434D01*
X11529911Y-13886434D02*
X11529911Y-13934053D01*
X11529911Y-13934053D02*
X11520387Y-13972148D01*
X11520387Y-13972148D02*
X11510863Y-13991196D01*
X11510863Y-13991196D02*
X11501339Y-14000720D01*
X11501339Y-14000720D02*
X11482292Y-14010244D01*
X11482292Y-14010244D02*
X11463244Y-14010244D01*
X11463244Y-14010244D02*
X11444196Y-14000720D01*
X11444196Y-14000720D02*
X11434673Y-13991196D01*
X11434673Y-13991196D02*
X11425149Y-13972148D01*
X11425149Y-13972148D02*
X11415625Y-13934053D01*
X11415625Y-13934053D02*
X11415625Y-13886434D01*
X11415625Y-13886434D02*
X11425149Y-13848339D01*
X11425149Y-13848339D02*
X11434673Y-13829291D01*
X11434673Y-13829291D02*
X11444196Y-13819768D01*
X11444196Y-13819768D02*
X11463244Y-13810244D01*
X11615625Y-13991196D02*
X11625149Y-14000720D01*
X11625149Y-14000720D02*
X11615625Y-14010244D01*
X11615625Y-14010244D02*
X11606101Y-14000720D01*
X11606101Y-14000720D02*
X11615625Y-13991196D01*
X11615625Y-13991196D02*
X11615625Y-14010244D01*
X11748958Y-13810244D02*
X11768006Y-13810244D01*
X11768006Y-13810244D02*
X11787054Y-13819768D01*
X11787054Y-13819768D02*
X11796577Y-13829291D01*
X11796577Y-13829291D02*
X11806101Y-13848339D01*
X11806101Y-13848339D02*
X11815625Y-13886434D01*
X11815625Y-13886434D02*
X11815625Y-13934053D01*
X11815625Y-13934053D02*
X11806101Y-13972148D01*
X11806101Y-13972148D02*
X11796577Y-13991196D01*
X11796577Y-13991196D02*
X11787054Y-14000720D01*
X11787054Y-14000720D02*
X11768006Y-14010244D01*
X11768006Y-14010244D02*
X11748958Y-14010244D01*
X11748958Y-14010244D02*
X11729911Y-14000720D01*
X11729911Y-14000720D02*
X11720387Y-13991196D01*
X11720387Y-13991196D02*
X11710863Y-13972148D01*
X11710863Y-13972148D02*
X11701339Y-13934053D01*
X11701339Y-13934053D02*
X11701339Y-13886434D01*
X11701339Y-13886434D02*
X11710863Y-13848339D01*
X11710863Y-13848339D02*
X11720387Y-13829291D01*
X11720387Y-13829291D02*
X11729911Y-13819768D01*
X11729911Y-13819768D02*
X11748958Y-13810244D01*
X11987054Y-13876910D02*
X11987054Y-14010244D01*
X11939435Y-13800720D02*
X11891816Y-13943577D01*
X11891816Y-13943577D02*
X12015625Y-13943577D01*
X12072768Y-13810244D02*
X12196577Y-13810244D01*
X12196577Y-13810244D02*
X12129911Y-13886434D01*
X12129911Y-13886434D02*
X12158482Y-13886434D01*
X12158482Y-13886434D02*
X12177530Y-13895958D01*
X12177530Y-13895958D02*
X12187054Y-13905482D01*
X12187054Y-13905482D02*
X12196577Y-13924529D01*
X12196577Y-13924529D02*
X12196577Y-13972148D01*
X12196577Y-13972148D02*
X12187054Y-13991196D01*
X12187054Y-13991196D02*
X12177530Y-14000720D01*
X12177530Y-14000720D02*
X12158482Y-14010244D01*
X12158482Y-14010244D02*
X12101339Y-14010244D01*
X12101339Y-14010244D02*
X12082292Y-14000720D01*
X12082292Y-14000720D02*
X12072768Y-13991196D01*
X12263244Y-13810244D02*
X12387054Y-13810244D01*
X12387054Y-13810244D02*
X12320387Y-13886434D01*
X12320387Y-13886434D02*
X12348958Y-13886434D01*
X12348958Y-13886434D02*
X12368006Y-13895958D01*
X12368006Y-13895958D02*
X12377530Y-13905482D01*
X12377530Y-13905482D02*
X12387054Y-13924529D01*
X12387054Y-13924529D02*
X12387054Y-13972148D01*
X12387054Y-13972148D02*
X12377530Y-13991196D01*
X12377530Y-13991196D02*
X12368006Y-14000720D01*
X12368006Y-14000720D02*
X12348958Y-14010244D01*
X12348958Y-14010244D02*
X12291816Y-14010244D01*
X12291816Y-14010244D02*
X12272768Y-14000720D01*
X12272768Y-14000720D02*
X12263244Y-13991196D01*
X12463244Y-13810244D02*
X12463244Y-13848339D01*
X12539435Y-13810244D02*
X12539435Y-13848339D01*
X12834673Y-14086434D02*
X12825149Y-14076910D01*
X12825149Y-14076910D02*
X12806101Y-14048339D01*
X12806101Y-14048339D02*
X12796578Y-14029291D01*
X12796578Y-14029291D02*
X12787054Y-14000720D01*
X12787054Y-14000720D02*
X12777530Y-13953101D01*
X12777530Y-13953101D02*
X12777530Y-13915006D01*
X12777530Y-13915006D02*
X12787054Y-13867387D01*
X12787054Y-13867387D02*
X12796578Y-13838815D01*
X12796578Y-13838815D02*
X12806101Y-13819768D01*
X12806101Y-13819768D02*
X12825149Y-13791196D01*
X12825149Y-13791196D02*
X12834673Y-13781672D01*
X12996578Y-13810244D02*
X12958482Y-13810244D01*
X12958482Y-13810244D02*
X12939435Y-13819768D01*
X12939435Y-13819768D02*
X12929911Y-13829291D01*
X12929911Y-13829291D02*
X12910863Y-13857863D01*
X12910863Y-13857863D02*
X12901339Y-13895958D01*
X12901339Y-13895958D02*
X12901339Y-13972148D01*
X12901339Y-13972148D02*
X12910863Y-13991196D01*
X12910863Y-13991196D02*
X12920387Y-14000720D01*
X12920387Y-14000720D02*
X12939435Y-14010244D01*
X12939435Y-14010244D02*
X12977530Y-14010244D01*
X12977530Y-14010244D02*
X12996578Y-14000720D01*
X12996578Y-14000720D02*
X13006101Y-13991196D01*
X13006101Y-13991196D02*
X13015625Y-13972148D01*
X13015625Y-13972148D02*
X13015625Y-13924529D01*
X13015625Y-13924529D02*
X13006101Y-13905482D01*
X13006101Y-13905482D02*
X12996578Y-13895958D01*
X12996578Y-13895958D02*
X12977530Y-13886434D01*
X12977530Y-13886434D02*
X12939435Y-13886434D01*
X12939435Y-13886434D02*
X12920387Y-13895958D01*
X12920387Y-13895958D02*
X12910863Y-13905482D01*
X12910863Y-13905482D02*
X12901339Y-13924529D01*
X13253720Y-14010244D02*
X13253720Y-13810244D01*
X13339435Y-14010244D02*
X13339435Y-13905482D01*
X13339435Y-13905482D02*
X13329911Y-13886434D01*
X13329911Y-13886434D02*
X13310863Y-13876910D01*
X13310863Y-13876910D02*
X13282292Y-13876910D01*
X13282292Y-13876910D02*
X13263244Y-13886434D01*
X13263244Y-13886434D02*
X13253720Y-13895958D01*
X13463244Y-14010244D02*
X13444197Y-14000720D01*
X13444197Y-14000720D02*
X13434673Y-13991196D01*
X13434673Y-13991196D02*
X13425149Y-13972148D01*
X13425149Y-13972148D02*
X13425149Y-13915006D01*
X13425149Y-13915006D02*
X13434673Y-13895958D01*
X13434673Y-13895958D02*
X13444197Y-13886434D01*
X13444197Y-13886434D02*
X13463244Y-13876910D01*
X13463244Y-13876910D02*
X13491816Y-13876910D01*
X13491816Y-13876910D02*
X13510863Y-13886434D01*
X13510863Y-13886434D02*
X13520387Y-13895958D01*
X13520387Y-13895958D02*
X13529911Y-13915006D01*
X13529911Y-13915006D02*
X13529911Y-13972148D01*
X13529911Y-13972148D02*
X13520387Y-13991196D01*
X13520387Y-13991196D02*
X13510863Y-14000720D01*
X13510863Y-14000720D02*
X13491816Y-14010244D01*
X13491816Y-14010244D02*
X13463244Y-14010244D01*
X13644197Y-14010244D02*
X13625149Y-14000720D01*
X13625149Y-14000720D02*
X13615625Y-13981672D01*
X13615625Y-13981672D02*
X13615625Y-13810244D01*
X13796578Y-14000720D02*
X13777530Y-14010244D01*
X13777530Y-14010244D02*
X13739435Y-14010244D01*
X13739435Y-14010244D02*
X13720387Y-14000720D01*
X13720387Y-14000720D02*
X13710863Y-13981672D01*
X13710863Y-13981672D02*
X13710863Y-13905482D01*
X13710863Y-13905482D02*
X13720387Y-13886434D01*
X13720387Y-13886434D02*
X13739435Y-13876910D01*
X13739435Y-13876910D02*
X13777530Y-13876910D01*
X13777530Y-13876910D02*
X13796578Y-13886434D01*
X13796578Y-13886434D02*
X13806101Y-13905482D01*
X13806101Y-13905482D02*
X13806101Y-13924529D01*
X13806101Y-13924529D02*
X13710863Y-13943577D01*
X13882292Y-14000720D02*
X13901340Y-14010244D01*
X13901340Y-14010244D02*
X13939435Y-14010244D01*
X13939435Y-14010244D02*
X13958482Y-14000720D01*
X13958482Y-14000720D02*
X13968006Y-13981672D01*
X13968006Y-13981672D02*
X13968006Y-13972148D01*
X13968006Y-13972148D02*
X13958482Y-13953101D01*
X13958482Y-13953101D02*
X13939435Y-13943577D01*
X13939435Y-13943577D02*
X13910863Y-13943577D01*
X13910863Y-13943577D02*
X13891816Y-13934053D01*
X13891816Y-13934053D02*
X13882292Y-13915006D01*
X13882292Y-13915006D02*
X13882292Y-13905482D01*
X13882292Y-13905482D02*
X13891816Y-13886434D01*
X13891816Y-13886434D02*
X13910863Y-13876910D01*
X13910863Y-13876910D02*
X13939435Y-13876910D01*
X13939435Y-13876910D02*
X13958482Y-13886434D01*
X14034673Y-14086434D02*
X14044197Y-14076910D01*
X14044197Y-14076910D02*
X14063244Y-14048339D01*
X14063244Y-14048339D02*
X14072768Y-14029291D01*
X14072768Y-14029291D02*
X14082292Y-14000720D01*
X14082292Y-14000720D02*
X14091816Y-13953101D01*
X14091816Y-13953101D02*
X14091816Y-13915006D01*
X14091816Y-13915006D02*
X14082292Y-13867387D01*
X14082292Y-13867387D02*
X14072768Y-13838815D01*
X14072768Y-13838815D02*
X14063244Y-13819768D01*
X14063244Y-13819768D02*
X14044197Y-13791196D01*
X14044197Y-13791196D02*
X14034673Y-13781672D01*
D14*
X9240572Y-14228722D02*
X9240572Y-14136798D01*
X9148648Y-14136798D01*
X9148648Y-14228722D01*
X9240572Y-14228722D01*
D11*
X9625149Y-14274244D02*
X9510863Y-14274244D01*
X9568006Y-14274244D02*
X9568006Y-14074244D01*
X9568006Y-14074244D02*
X9548958Y-14102815D01*
X9548958Y-14102815D02*
X9529911Y-14121863D01*
X9529911Y-14121863D02*
X9510863Y-14131387D01*
X9710863Y-14255196D02*
X9720387Y-14264720D01*
X9720387Y-14264720D02*
X9710863Y-14274244D01*
X9710863Y-14274244D02*
X9701339Y-14264720D01*
X9701339Y-14264720D02*
X9710863Y-14255196D01*
X9710863Y-14255196D02*
X9710863Y-14274244D01*
X9787054Y-14074244D02*
X9910863Y-14074244D01*
X9910863Y-14074244D02*
X9844196Y-14150434D01*
X9844196Y-14150434D02*
X9872768Y-14150434D01*
X9872768Y-14150434D02*
X9891815Y-14159958D01*
X9891815Y-14159958D02*
X9901339Y-14169482D01*
X9901339Y-14169482D02*
X9910863Y-14188529D01*
X9910863Y-14188529D02*
X9910863Y-14236148D01*
X9910863Y-14236148D02*
X9901339Y-14255196D01*
X9901339Y-14255196D02*
X9891815Y-14264720D01*
X9891815Y-14264720D02*
X9872768Y-14274244D01*
X9872768Y-14274244D02*
X9815625Y-14274244D01*
X9815625Y-14274244D02*
X9796577Y-14264720D01*
X9796577Y-14264720D02*
X9787054Y-14255196D01*
X10034673Y-14074244D02*
X10053720Y-14074244D01*
X10053720Y-14074244D02*
X10072768Y-14083768D01*
X10072768Y-14083768D02*
X10082292Y-14093291D01*
X10082292Y-14093291D02*
X10091815Y-14112339D01*
X10091815Y-14112339D02*
X10101339Y-14150434D01*
X10101339Y-14150434D02*
X10101339Y-14198053D01*
X10101339Y-14198053D02*
X10091815Y-14236148D01*
X10091815Y-14236148D02*
X10082292Y-14255196D01*
X10082292Y-14255196D02*
X10072768Y-14264720D01*
X10072768Y-14264720D02*
X10053720Y-14274244D01*
X10053720Y-14274244D02*
X10034673Y-14274244D01*
X10034673Y-14274244D02*
X10015625Y-14264720D01*
X10015625Y-14264720D02*
X10006101Y-14255196D01*
X10006101Y-14255196D02*
X9996577Y-14236148D01*
X9996577Y-14236148D02*
X9987054Y-14198053D01*
X9987054Y-14198053D02*
X9987054Y-14150434D01*
X9987054Y-14150434D02*
X9996577Y-14112339D01*
X9996577Y-14112339D02*
X10006101Y-14093291D01*
X10006101Y-14093291D02*
X10015625Y-14083768D01*
X10015625Y-14083768D02*
X10034673Y-14074244D01*
X10225149Y-14074244D02*
X10244196Y-14074244D01*
X10244196Y-14074244D02*
X10263244Y-14083768D01*
X10263244Y-14083768D02*
X10272768Y-14093291D01*
X10272768Y-14093291D02*
X10282292Y-14112339D01*
X10282292Y-14112339D02*
X10291815Y-14150434D01*
X10291815Y-14150434D02*
X10291815Y-14198053D01*
X10291815Y-14198053D02*
X10282292Y-14236148D01*
X10282292Y-14236148D02*
X10272768Y-14255196D01*
X10272768Y-14255196D02*
X10263244Y-14264720D01*
X10263244Y-14264720D02*
X10244196Y-14274244D01*
X10244196Y-14274244D02*
X10225149Y-14274244D01*
X10225149Y-14274244D02*
X10206101Y-14264720D01*
X10206101Y-14264720D02*
X10196577Y-14255196D01*
X10196577Y-14255196D02*
X10187054Y-14236148D01*
X10187054Y-14236148D02*
X10177530Y-14198053D01*
X10177530Y-14198053D02*
X10177530Y-14150434D01*
X10177530Y-14150434D02*
X10187054Y-14112339D01*
X10187054Y-14112339D02*
X10196577Y-14093291D01*
X10196577Y-14093291D02*
X10206101Y-14083768D01*
X10206101Y-14083768D02*
X10225149Y-14074244D01*
X10377530Y-14274244D02*
X10377530Y-14140910D01*
X10377530Y-14159958D02*
X10387054Y-14150434D01*
X10387054Y-14150434D02*
X10406101Y-14140910D01*
X10406101Y-14140910D02*
X10434673Y-14140910D01*
X10434673Y-14140910D02*
X10453720Y-14150434D01*
X10453720Y-14150434D02*
X10463244Y-14169482D01*
X10463244Y-14169482D02*
X10463244Y-14274244D01*
X10463244Y-14169482D02*
X10472768Y-14150434D01*
X10472768Y-14150434D02*
X10491815Y-14140910D01*
X10491815Y-14140910D02*
X10520387Y-14140910D01*
X10520387Y-14140910D02*
X10539435Y-14150434D01*
X10539435Y-14150434D02*
X10548958Y-14169482D01*
X10548958Y-14169482D02*
X10548958Y-14274244D01*
X10644196Y-14274244D02*
X10644196Y-14140910D01*
X10644196Y-14159958D02*
X10653720Y-14150434D01*
X10653720Y-14150434D02*
X10672768Y-14140910D01*
X10672768Y-14140910D02*
X10701339Y-14140910D01*
X10701339Y-14140910D02*
X10720387Y-14150434D01*
X10720387Y-14150434D02*
X10729911Y-14169482D01*
X10729911Y-14169482D02*
X10729911Y-14274244D01*
X10729911Y-14169482D02*
X10739435Y-14150434D01*
X10739435Y-14150434D02*
X10758482Y-14140910D01*
X10758482Y-14140910D02*
X10787054Y-14140910D01*
X10787054Y-14140910D02*
X10806101Y-14150434D01*
X10806101Y-14150434D02*
X10815625Y-14169482D01*
X10815625Y-14169482D02*
X10815625Y-14274244D01*
X11206101Y-14064720D02*
X11034673Y-14321863D01*
X11463244Y-14074244D02*
X11482292Y-14074244D01*
X11482292Y-14074244D02*
X11501339Y-14083768D01*
X11501339Y-14083768D02*
X11510863Y-14093291D01*
X11510863Y-14093291D02*
X11520387Y-14112339D01*
X11520387Y-14112339D02*
X11529911Y-14150434D01*
X11529911Y-14150434D02*
X11529911Y-14198053D01*
X11529911Y-14198053D02*
X11520387Y-14236148D01*
X11520387Y-14236148D02*
X11510863Y-14255196D01*
X11510863Y-14255196D02*
X11501339Y-14264720D01*
X11501339Y-14264720D02*
X11482292Y-14274244D01*
X11482292Y-14274244D02*
X11463244Y-14274244D01*
X11463244Y-14274244D02*
X11444196Y-14264720D01*
X11444196Y-14264720D02*
X11434673Y-14255196D01*
X11434673Y-14255196D02*
X11425149Y-14236148D01*
X11425149Y-14236148D02*
X11415625Y-14198053D01*
X11415625Y-14198053D02*
X11415625Y-14150434D01*
X11415625Y-14150434D02*
X11425149Y-14112339D01*
X11425149Y-14112339D02*
X11434673Y-14093291D01*
X11434673Y-14093291D02*
X11444196Y-14083768D01*
X11444196Y-14083768D02*
X11463244Y-14074244D01*
X11615625Y-14255196D02*
X11625149Y-14264720D01*
X11625149Y-14264720D02*
X11615625Y-14274244D01*
X11615625Y-14274244D02*
X11606101Y-14264720D01*
X11606101Y-14264720D02*
X11615625Y-14255196D01*
X11615625Y-14255196D02*
X11615625Y-14274244D01*
X11748958Y-14074244D02*
X11768006Y-14074244D01*
X11768006Y-14074244D02*
X11787054Y-14083768D01*
X11787054Y-14083768D02*
X11796577Y-14093291D01*
X11796577Y-14093291D02*
X11806101Y-14112339D01*
X11806101Y-14112339D02*
X11815625Y-14150434D01*
X11815625Y-14150434D02*
X11815625Y-14198053D01*
X11815625Y-14198053D02*
X11806101Y-14236148D01*
X11806101Y-14236148D02*
X11796577Y-14255196D01*
X11796577Y-14255196D02*
X11787054Y-14264720D01*
X11787054Y-14264720D02*
X11768006Y-14274244D01*
X11768006Y-14274244D02*
X11748958Y-14274244D01*
X11748958Y-14274244D02*
X11729911Y-14264720D01*
X11729911Y-14264720D02*
X11720387Y-14255196D01*
X11720387Y-14255196D02*
X11710863Y-14236148D01*
X11710863Y-14236148D02*
X11701339Y-14198053D01*
X11701339Y-14198053D02*
X11701339Y-14150434D01*
X11701339Y-14150434D02*
X11710863Y-14112339D01*
X11710863Y-14112339D02*
X11720387Y-14093291D01*
X11720387Y-14093291D02*
X11729911Y-14083768D01*
X11729911Y-14083768D02*
X11748958Y-14074244D01*
X11996577Y-14074244D02*
X11901339Y-14074244D01*
X11901339Y-14074244D02*
X11891816Y-14169482D01*
X11891816Y-14169482D02*
X11901339Y-14159958D01*
X11901339Y-14159958D02*
X11920387Y-14150434D01*
X11920387Y-14150434D02*
X11968006Y-14150434D01*
X11968006Y-14150434D02*
X11987054Y-14159958D01*
X11987054Y-14159958D02*
X11996577Y-14169482D01*
X11996577Y-14169482D02*
X12006101Y-14188529D01*
X12006101Y-14188529D02*
X12006101Y-14236148D01*
X12006101Y-14236148D02*
X11996577Y-14255196D01*
X11996577Y-14255196D02*
X11987054Y-14264720D01*
X11987054Y-14264720D02*
X11968006Y-14274244D01*
X11968006Y-14274244D02*
X11920387Y-14274244D01*
X11920387Y-14274244D02*
X11901339Y-14264720D01*
X11901339Y-14264720D02*
X11891816Y-14255196D01*
X12196577Y-14274244D02*
X12082292Y-14274244D01*
X12139435Y-14274244D02*
X12139435Y-14074244D01*
X12139435Y-14074244D02*
X12120387Y-14102815D01*
X12120387Y-14102815D02*
X12101339Y-14121863D01*
X12101339Y-14121863D02*
X12082292Y-14131387D01*
X12272768Y-14093291D02*
X12282292Y-14083768D01*
X12282292Y-14083768D02*
X12301339Y-14074244D01*
X12301339Y-14074244D02*
X12348958Y-14074244D01*
X12348958Y-14074244D02*
X12368006Y-14083768D01*
X12368006Y-14083768D02*
X12377530Y-14093291D01*
X12377530Y-14093291D02*
X12387054Y-14112339D01*
X12387054Y-14112339D02*
X12387054Y-14131387D01*
X12387054Y-14131387D02*
X12377530Y-14159958D01*
X12377530Y-14159958D02*
X12263244Y-14274244D01*
X12263244Y-14274244D02*
X12387054Y-14274244D01*
X12463244Y-14074244D02*
X12463244Y-14112339D01*
X12539435Y-14074244D02*
X12539435Y-14112339D01*
X12834673Y-14350434D02*
X12825149Y-14340910D01*
X12825149Y-14340910D02*
X12806101Y-14312339D01*
X12806101Y-14312339D02*
X12796578Y-14293291D01*
X12796578Y-14293291D02*
X12787054Y-14264720D01*
X12787054Y-14264720D02*
X12777530Y-14217101D01*
X12777530Y-14217101D02*
X12777530Y-14179006D01*
X12777530Y-14179006D02*
X12787054Y-14131387D01*
X12787054Y-14131387D02*
X12796578Y-14102815D01*
X12796578Y-14102815D02*
X12806101Y-14083768D01*
X12806101Y-14083768D02*
X12825149Y-14055196D01*
X12825149Y-14055196D02*
X12834673Y-14045672D01*
X13006101Y-14074244D02*
X12910863Y-14074244D01*
X12910863Y-14074244D02*
X12901339Y-14169482D01*
X12901339Y-14169482D02*
X12910863Y-14159958D01*
X12910863Y-14159958D02*
X12929911Y-14150434D01*
X12929911Y-14150434D02*
X12977530Y-14150434D01*
X12977530Y-14150434D02*
X12996578Y-14159958D01*
X12996578Y-14159958D02*
X13006101Y-14169482D01*
X13006101Y-14169482D02*
X13015625Y-14188529D01*
X13015625Y-14188529D02*
X13015625Y-14236148D01*
X13015625Y-14236148D02*
X13006101Y-14255196D01*
X13006101Y-14255196D02*
X12996578Y-14264720D01*
X12996578Y-14264720D02*
X12977530Y-14274244D01*
X12977530Y-14274244D02*
X12929911Y-14274244D01*
X12929911Y-14274244D02*
X12910863Y-14264720D01*
X12910863Y-14264720D02*
X12901339Y-14255196D01*
X13253720Y-14274244D02*
X13253720Y-14074244D01*
X13339435Y-14274244D02*
X13339435Y-14169482D01*
X13339435Y-14169482D02*
X13329911Y-14150434D01*
X13329911Y-14150434D02*
X13310863Y-14140910D01*
X13310863Y-14140910D02*
X13282292Y-14140910D01*
X13282292Y-14140910D02*
X13263244Y-14150434D01*
X13263244Y-14150434D02*
X13253720Y-14159958D01*
X13463244Y-14274244D02*
X13444197Y-14264720D01*
X13444197Y-14264720D02*
X13434673Y-14255196D01*
X13434673Y-14255196D02*
X13425149Y-14236148D01*
X13425149Y-14236148D02*
X13425149Y-14179006D01*
X13425149Y-14179006D02*
X13434673Y-14159958D01*
X13434673Y-14159958D02*
X13444197Y-14150434D01*
X13444197Y-14150434D02*
X13463244Y-14140910D01*
X13463244Y-14140910D02*
X13491816Y-14140910D01*
X13491816Y-14140910D02*
X13510863Y-14150434D01*
X13510863Y-14150434D02*
X13520387Y-14159958D01*
X13520387Y-14159958D02*
X13529911Y-14179006D01*
X13529911Y-14179006D02*
X13529911Y-14236148D01*
X13529911Y-14236148D02*
X13520387Y-14255196D01*
X13520387Y-14255196D02*
X13510863Y-14264720D01*
X13510863Y-14264720D02*
X13491816Y-14274244D01*
X13491816Y-14274244D02*
X13463244Y-14274244D01*
X13644197Y-14274244D02*
X13625149Y-14264720D01*
X13625149Y-14264720D02*
X13615625Y-14245672D01*
X13615625Y-14245672D02*
X13615625Y-14074244D01*
X13796578Y-14264720D02*
X13777530Y-14274244D01*
X13777530Y-14274244D02*
X13739435Y-14274244D01*
X13739435Y-14274244D02*
X13720387Y-14264720D01*
X13720387Y-14264720D02*
X13710863Y-14245672D01*
X13710863Y-14245672D02*
X13710863Y-14169482D01*
X13710863Y-14169482D02*
X13720387Y-14150434D01*
X13720387Y-14150434D02*
X13739435Y-14140910D01*
X13739435Y-14140910D02*
X13777530Y-14140910D01*
X13777530Y-14140910D02*
X13796578Y-14150434D01*
X13796578Y-14150434D02*
X13806101Y-14169482D01*
X13806101Y-14169482D02*
X13806101Y-14188529D01*
X13806101Y-14188529D02*
X13710863Y-14207577D01*
X13882292Y-14264720D02*
X13901340Y-14274244D01*
X13901340Y-14274244D02*
X13939435Y-14274244D01*
X13939435Y-14274244D02*
X13958482Y-14264720D01*
X13958482Y-14264720D02*
X13968006Y-14245672D01*
X13968006Y-14245672D02*
X13968006Y-14236148D01*
X13968006Y-14236148D02*
X13958482Y-14217101D01*
X13958482Y-14217101D02*
X13939435Y-14207577D01*
X13939435Y-14207577D02*
X13910863Y-14207577D01*
X13910863Y-14207577D02*
X13891816Y-14198053D01*
X13891816Y-14198053D02*
X13882292Y-14179006D01*
X13882292Y-14179006D02*
X13882292Y-14169482D01*
X13882292Y-14169482D02*
X13891816Y-14150434D01*
X13891816Y-14150434D02*
X13910863Y-14140910D01*
X13910863Y-14140910D02*
X13939435Y-14140910D01*
X13939435Y-14140910D02*
X13958482Y-14150434D01*
X14034673Y-14350434D02*
X14044197Y-14340910D01*
X14044197Y-14340910D02*
X14063244Y-14312339D01*
X14063244Y-14312339D02*
X14072768Y-14293291D01*
X14072768Y-14293291D02*
X14082292Y-14264720D01*
X14082292Y-14264720D02*
X14091816Y-14217101D01*
X14091816Y-14217101D02*
X14091816Y-14179006D01*
X14091816Y-14179006D02*
X14082292Y-14131387D01*
X14082292Y-14131387D02*
X14072768Y-14102815D01*
X14072768Y-14102815D02*
X14063244Y-14083768D01*
X14063244Y-14083768D02*
X14044197Y-14055196D01*
X14044197Y-14055196D02*
X14034673Y-14045672D01*
X9159610Y-14546760D02*
X9259610Y-14446760D01*
X9159610Y-14346760D01*
X9059610Y-14446760D01*
X9159610Y-14546760D01*
X9501339Y-14338244D02*
X9625149Y-14338244D01*
X9625149Y-14338244D02*
X9558482Y-14414434D01*
X9558482Y-14414434D02*
X9587054Y-14414434D01*
X9587054Y-14414434D02*
X9606101Y-14423958D01*
X9606101Y-14423958D02*
X9615625Y-14433482D01*
X9615625Y-14433482D02*
X9625149Y-14452529D01*
X9625149Y-14452529D02*
X9625149Y-14500148D01*
X9625149Y-14500148D02*
X9615625Y-14519196D01*
X9615625Y-14519196D02*
X9606101Y-14528720D01*
X9606101Y-14528720D02*
X9587054Y-14538244D01*
X9587054Y-14538244D02*
X9529911Y-14538244D01*
X9529911Y-14538244D02*
X9510863Y-14528720D01*
X9510863Y-14528720D02*
X9501339Y-14519196D01*
X9710863Y-14519196D02*
X9720387Y-14528720D01*
X9720387Y-14528720D02*
X9710863Y-14538244D01*
X9710863Y-14538244D02*
X9701339Y-14528720D01*
X9701339Y-14528720D02*
X9710863Y-14519196D01*
X9710863Y-14519196D02*
X9710863Y-14538244D01*
X9910863Y-14538244D02*
X9796577Y-14538244D01*
X9853720Y-14538244D02*
X9853720Y-14338244D01*
X9853720Y-14338244D02*
X9834673Y-14366815D01*
X9834673Y-14366815D02*
X9815625Y-14385863D01*
X9815625Y-14385863D02*
X9796577Y-14395387D01*
X9977530Y-14338244D02*
X10110863Y-14338244D01*
X10110863Y-14338244D02*
X10025149Y-14538244D01*
X10282292Y-14338244D02*
X10187054Y-14338244D01*
X10187054Y-14338244D02*
X10177530Y-14433482D01*
X10177530Y-14433482D02*
X10187054Y-14423958D01*
X10187054Y-14423958D02*
X10206101Y-14414434D01*
X10206101Y-14414434D02*
X10253720Y-14414434D01*
X10253720Y-14414434D02*
X10272768Y-14423958D01*
X10272768Y-14423958D02*
X10282292Y-14433482D01*
X10282292Y-14433482D02*
X10291815Y-14452529D01*
X10291815Y-14452529D02*
X10291815Y-14500148D01*
X10291815Y-14500148D02*
X10282292Y-14519196D01*
X10282292Y-14519196D02*
X10272768Y-14528720D01*
X10272768Y-14528720D02*
X10253720Y-14538244D01*
X10253720Y-14538244D02*
X10206101Y-14538244D01*
X10206101Y-14538244D02*
X10187054Y-14528720D01*
X10187054Y-14528720D02*
X10177530Y-14519196D01*
X10377530Y-14538244D02*
X10377530Y-14404910D01*
X10377530Y-14423958D02*
X10387054Y-14414434D01*
X10387054Y-14414434D02*
X10406101Y-14404910D01*
X10406101Y-14404910D02*
X10434673Y-14404910D01*
X10434673Y-14404910D02*
X10453720Y-14414434D01*
X10453720Y-14414434D02*
X10463244Y-14433482D01*
X10463244Y-14433482D02*
X10463244Y-14538244D01*
X10463244Y-14433482D02*
X10472768Y-14414434D01*
X10472768Y-14414434D02*
X10491815Y-14404910D01*
X10491815Y-14404910D02*
X10520387Y-14404910D01*
X10520387Y-14404910D02*
X10539435Y-14414434D01*
X10539435Y-14414434D02*
X10548958Y-14433482D01*
X10548958Y-14433482D02*
X10548958Y-14538244D01*
X10644196Y-14538244D02*
X10644196Y-14404910D01*
X10644196Y-14423958D02*
X10653720Y-14414434D01*
X10653720Y-14414434D02*
X10672768Y-14404910D01*
X10672768Y-14404910D02*
X10701339Y-14404910D01*
X10701339Y-14404910D02*
X10720387Y-14414434D01*
X10720387Y-14414434D02*
X10729911Y-14433482D01*
X10729911Y-14433482D02*
X10729911Y-14538244D01*
X10729911Y-14433482D02*
X10739435Y-14414434D01*
X10739435Y-14414434D02*
X10758482Y-14404910D01*
X10758482Y-14404910D02*
X10787054Y-14404910D01*
X10787054Y-14404910D02*
X10806101Y-14414434D01*
X10806101Y-14414434D02*
X10815625Y-14433482D01*
X10815625Y-14433482D02*
X10815625Y-14538244D01*
X11206101Y-14328720D02*
X11034673Y-14585863D01*
X11463244Y-14338244D02*
X11482292Y-14338244D01*
X11482292Y-14338244D02*
X11501339Y-14347768D01*
X11501339Y-14347768D02*
X11510863Y-14357291D01*
X11510863Y-14357291D02*
X11520387Y-14376339D01*
X11520387Y-14376339D02*
X11529911Y-14414434D01*
X11529911Y-14414434D02*
X11529911Y-14462053D01*
X11529911Y-14462053D02*
X11520387Y-14500148D01*
X11520387Y-14500148D02*
X11510863Y-14519196D01*
X11510863Y-14519196D02*
X11501339Y-14528720D01*
X11501339Y-14528720D02*
X11482292Y-14538244D01*
X11482292Y-14538244D02*
X11463244Y-14538244D01*
X11463244Y-14538244D02*
X11444196Y-14528720D01*
X11444196Y-14528720D02*
X11434673Y-14519196D01*
X11434673Y-14519196D02*
X11425149Y-14500148D01*
X11425149Y-14500148D02*
X11415625Y-14462053D01*
X11415625Y-14462053D02*
X11415625Y-14414434D01*
X11415625Y-14414434D02*
X11425149Y-14376339D01*
X11425149Y-14376339D02*
X11434673Y-14357291D01*
X11434673Y-14357291D02*
X11444196Y-14347768D01*
X11444196Y-14347768D02*
X11463244Y-14338244D01*
X11615625Y-14519196D02*
X11625149Y-14528720D01*
X11625149Y-14528720D02*
X11615625Y-14538244D01*
X11615625Y-14538244D02*
X11606101Y-14528720D01*
X11606101Y-14528720D02*
X11615625Y-14519196D01*
X11615625Y-14519196D02*
X11615625Y-14538244D01*
X11815625Y-14538244D02*
X11701339Y-14538244D01*
X11758482Y-14538244D02*
X11758482Y-14338244D01*
X11758482Y-14338244D02*
X11739435Y-14366815D01*
X11739435Y-14366815D02*
X11720387Y-14385863D01*
X11720387Y-14385863D02*
X11701339Y-14395387D01*
X11891816Y-14357291D02*
X11901339Y-14347768D01*
X11901339Y-14347768D02*
X11920387Y-14338244D01*
X11920387Y-14338244D02*
X11968006Y-14338244D01*
X11968006Y-14338244D02*
X11987054Y-14347768D01*
X11987054Y-14347768D02*
X11996577Y-14357291D01*
X11996577Y-14357291D02*
X12006101Y-14376339D01*
X12006101Y-14376339D02*
X12006101Y-14395387D01*
X12006101Y-14395387D02*
X11996577Y-14423958D01*
X11996577Y-14423958D02*
X11882292Y-14538244D01*
X11882292Y-14538244D02*
X12006101Y-14538244D01*
X12187054Y-14338244D02*
X12091816Y-14338244D01*
X12091816Y-14338244D02*
X12082292Y-14433482D01*
X12082292Y-14433482D02*
X12091816Y-14423958D01*
X12091816Y-14423958D02*
X12110863Y-14414434D01*
X12110863Y-14414434D02*
X12158482Y-14414434D01*
X12158482Y-14414434D02*
X12177530Y-14423958D01*
X12177530Y-14423958D02*
X12187054Y-14433482D01*
X12187054Y-14433482D02*
X12196577Y-14452529D01*
X12196577Y-14452529D02*
X12196577Y-14500148D01*
X12196577Y-14500148D02*
X12187054Y-14519196D01*
X12187054Y-14519196D02*
X12177530Y-14528720D01*
X12177530Y-14528720D02*
X12158482Y-14538244D01*
X12158482Y-14538244D02*
X12110863Y-14538244D01*
X12110863Y-14538244D02*
X12091816Y-14528720D01*
X12091816Y-14528720D02*
X12082292Y-14519196D01*
X12320387Y-14338244D02*
X12339435Y-14338244D01*
X12339435Y-14338244D02*
X12358482Y-14347768D01*
X12358482Y-14347768D02*
X12368006Y-14357291D01*
X12368006Y-14357291D02*
X12377530Y-14376339D01*
X12377530Y-14376339D02*
X12387054Y-14414434D01*
X12387054Y-14414434D02*
X12387054Y-14462053D01*
X12387054Y-14462053D02*
X12377530Y-14500148D01*
X12377530Y-14500148D02*
X12368006Y-14519196D01*
X12368006Y-14519196D02*
X12358482Y-14528720D01*
X12358482Y-14528720D02*
X12339435Y-14538244D01*
X12339435Y-14538244D02*
X12320387Y-14538244D01*
X12320387Y-14538244D02*
X12301339Y-14528720D01*
X12301339Y-14528720D02*
X12291816Y-14519196D01*
X12291816Y-14519196D02*
X12282292Y-14500148D01*
X12282292Y-14500148D02*
X12272768Y-14462053D01*
X12272768Y-14462053D02*
X12272768Y-14414434D01*
X12272768Y-14414434D02*
X12282292Y-14376339D01*
X12282292Y-14376339D02*
X12291816Y-14357291D01*
X12291816Y-14357291D02*
X12301339Y-14347768D01*
X12301339Y-14347768D02*
X12320387Y-14338244D01*
X12463244Y-14338244D02*
X12463244Y-14376339D01*
X12539435Y-14338244D02*
X12539435Y-14376339D01*
X12834673Y-14614434D02*
X12825149Y-14604910D01*
X12825149Y-14604910D02*
X12806101Y-14576339D01*
X12806101Y-14576339D02*
X12796578Y-14557291D01*
X12796578Y-14557291D02*
X12787054Y-14528720D01*
X12787054Y-14528720D02*
X12777530Y-14481101D01*
X12777530Y-14481101D02*
X12777530Y-14443006D01*
X12777530Y-14443006D02*
X12787054Y-14395387D01*
X12787054Y-14395387D02*
X12796578Y-14366815D01*
X12796578Y-14366815D02*
X12806101Y-14347768D01*
X12806101Y-14347768D02*
X12825149Y-14319196D01*
X12825149Y-14319196D02*
X12834673Y-14309672D01*
X12996578Y-14404910D02*
X12996578Y-14538244D01*
X12948958Y-14328720D02*
X12901339Y-14471577D01*
X12901339Y-14471577D02*
X13025149Y-14471577D01*
X13253720Y-14538244D02*
X13253720Y-14338244D01*
X13339435Y-14538244D02*
X13339435Y-14433482D01*
X13339435Y-14433482D02*
X13329911Y-14414434D01*
X13329911Y-14414434D02*
X13310863Y-14404910D01*
X13310863Y-14404910D02*
X13282292Y-14404910D01*
X13282292Y-14404910D02*
X13263244Y-14414434D01*
X13263244Y-14414434D02*
X13253720Y-14423958D01*
X13463244Y-14538244D02*
X13444197Y-14528720D01*
X13444197Y-14528720D02*
X13434673Y-14519196D01*
X13434673Y-14519196D02*
X13425149Y-14500148D01*
X13425149Y-14500148D02*
X13425149Y-14443006D01*
X13425149Y-14443006D02*
X13434673Y-14423958D01*
X13434673Y-14423958D02*
X13444197Y-14414434D01*
X13444197Y-14414434D02*
X13463244Y-14404910D01*
X13463244Y-14404910D02*
X13491816Y-14404910D01*
X13491816Y-14404910D02*
X13510863Y-14414434D01*
X13510863Y-14414434D02*
X13520387Y-14423958D01*
X13520387Y-14423958D02*
X13529911Y-14443006D01*
X13529911Y-14443006D02*
X13529911Y-14500148D01*
X13529911Y-14500148D02*
X13520387Y-14519196D01*
X13520387Y-14519196D02*
X13510863Y-14528720D01*
X13510863Y-14528720D02*
X13491816Y-14538244D01*
X13491816Y-14538244D02*
X13463244Y-14538244D01*
X13644197Y-14538244D02*
X13625149Y-14528720D01*
X13625149Y-14528720D02*
X13615625Y-14509672D01*
X13615625Y-14509672D02*
X13615625Y-14338244D01*
X13796578Y-14528720D02*
X13777530Y-14538244D01*
X13777530Y-14538244D02*
X13739435Y-14538244D01*
X13739435Y-14538244D02*
X13720387Y-14528720D01*
X13720387Y-14528720D02*
X13710863Y-14509672D01*
X13710863Y-14509672D02*
X13710863Y-14433482D01*
X13710863Y-14433482D02*
X13720387Y-14414434D01*
X13720387Y-14414434D02*
X13739435Y-14404910D01*
X13739435Y-14404910D02*
X13777530Y-14404910D01*
X13777530Y-14404910D02*
X13796578Y-14414434D01*
X13796578Y-14414434D02*
X13806101Y-14433482D01*
X13806101Y-14433482D02*
X13806101Y-14452529D01*
X13806101Y-14452529D02*
X13710863Y-14471577D01*
X13882292Y-14528720D02*
X13901340Y-14538244D01*
X13901340Y-14538244D02*
X13939435Y-14538244D01*
X13939435Y-14538244D02*
X13958482Y-14528720D01*
X13958482Y-14528720D02*
X13968006Y-14509672D01*
X13968006Y-14509672D02*
X13968006Y-14500148D01*
X13968006Y-14500148D02*
X13958482Y-14481101D01*
X13958482Y-14481101D02*
X13939435Y-14471577D01*
X13939435Y-14471577D02*
X13910863Y-14471577D01*
X13910863Y-14471577D02*
X13891816Y-14462053D01*
X13891816Y-14462053D02*
X13882292Y-14443006D01*
X13882292Y-14443006D02*
X13882292Y-14433482D01*
X13882292Y-14433482D02*
X13891816Y-14414434D01*
X13891816Y-14414434D02*
X13910863Y-14404910D01*
X13910863Y-14404910D02*
X13939435Y-14404910D01*
X13939435Y-14404910D02*
X13958482Y-14414434D01*
X14034673Y-14614434D02*
X14044197Y-14604910D01*
X14044197Y-14604910D02*
X14063244Y-14576339D01*
X14063244Y-14576339D02*
X14072768Y-14557291D01*
X14072768Y-14557291D02*
X14082292Y-14528720D01*
X14082292Y-14528720D02*
X14091816Y-14481101D01*
X14091816Y-14481101D02*
X14091816Y-14443006D01*
X14091816Y-14443006D02*
X14082292Y-14395387D01*
X14082292Y-14395387D02*
X14072768Y-14366815D01*
X14072768Y-14366815D02*
X14063244Y-14347768D01*
X14063244Y-14347768D02*
X14044197Y-14319196D01*
X14044197Y-14319196D02*
X14034673Y-14309672D01*
M02*
