M48
; DRILL file {KiCad 8.0.5} date 2024-09-20T19:17:26+0200
; FORMAT={-:-/ absolute / inch / decimal}
; #@! TF.CreationDate,2024-09-20T19:17:26+02:00
; #@! TF.GenerationSoftware,Kicad,Pcbnew,8.0.5
; #@! TF.FileFunction,Plated,1,2,PTH
FMAT,2
INCH
; #@! TA.AperFunction,Plated,PTH,ComponentDrill
T1C0.0315
; #@! TA.AperFunction,Plated,PTH,ComponentDrill
T2C0.0394
; #@! TA.AperFunction,Plated,PTH,ComponentDrill
T3C0.0433
; #@! TA.AperFunction,Plated,PTH,ComponentDrill
T4C0.0512
; #@! TA.AperFunction,Plated,PTH,ComponentDrill
T5C0.1250
%
G90
G05
T1
X6.9828Y-4.7676
X6.9862Y-3.5173
X6.9862Y-4.0701
X6.9862Y-4.2012
X7.0827Y-4.7676
X7.0862Y-3.5173
X7.0862Y-4.0701
X7.0862Y-4.2012
T2
X3.9267Y-3.729
X3.9267Y-4.549
X4.2763Y-3.729
X4.2763Y-4.549
X4.776Y-3.5779
X4.776Y-3.8732
X4.7765Y-4.4014
X4.7765Y-4.6966
X5.5565Y-3.5814
X5.5565Y-3.8766
X5.5565Y-4.4014
X5.5565Y-4.6966
X6.3265Y-3.5814
X6.3265Y-3.8766
X6.3265Y-4.4014
X6.3265Y-4.6966
X6.813Y-3.6198
X6.813Y-3.9694
T3
X7.0285Y-3.6946
X7.0285Y-3.7946
X7.0285Y-3.8946
X7.0285Y-4.3807
X7.0285Y-4.4807
X7.0285Y-4.5807
T4
X3.9267Y-4.0506
X3.9267Y-4.2474
X7.7685Y-3.9242
X7.7685Y-4.121
X7.7685Y-4.3179
T5
X3.8115Y-3.414
X3.8115Y-4.854
X7.8815Y-3.414
X7.8815Y-4.854
M30
