%TF.GenerationSoftware,KiCad,Pcbnew,8.0.5*%
%TF.CreationDate,2024-09-20T19:17:19+02:00*%
%TF.ProjectId,Symetric12VPS,53796d65-7472-4696-9331-325650532e6b,rev?*%
%TF.SameCoordinates,Original*%
%TF.FileFunction,Legend,Top*%
%TF.FilePolarity,Positive*%
%FSLAX46Y46*%
G04 Gerber Fmt 4.6, Leading zero omitted, Abs format (unit mm)*
G04 Created by KiCad (PCBNEW 8.0.5) date 2024-09-20 19:17:19*
%MOMM*%
%LPD*%
G01*
G04 APERTURE LIST*
%ADD10C,0.254000*%
%ADD11C,0.200000*%
%ADD12C,0.150000*%
%ADD13C,0.250000*%
G04 APERTURE END LIST*
D10*
X141135100Y-95317132D02*
X141062528Y-95389704D01*
X141062528Y-95389704D02*
X140844814Y-95462275D01*
X140844814Y-95462275D02*
X140699671Y-95462275D01*
X140699671Y-95462275D02*
X140481957Y-95389704D01*
X140481957Y-95389704D02*
X140336814Y-95244561D01*
X140336814Y-95244561D02*
X140264243Y-95099418D01*
X140264243Y-95099418D02*
X140191671Y-94809132D01*
X140191671Y-94809132D02*
X140191671Y-94591418D01*
X140191671Y-94591418D02*
X140264243Y-94301132D01*
X140264243Y-94301132D02*
X140336814Y-94155989D01*
X140336814Y-94155989D02*
X140481957Y-94010846D01*
X140481957Y-94010846D02*
X140699671Y-93938275D01*
X140699671Y-93938275D02*
X140844814Y-93938275D01*
X140844814Y-93938275D02*
X141062528Y-94010846D01*
X141062528Y-94010846D02*
X141135100Y-94083418D01*
X141715671Y-94083418D02*
X141788243Y-94010846D01*
X141788243Y-94010846D02*
X141933386Y-93938275D01*
X141933386Y-93938275D02*
X142296243Y-93938275D01*
X142296243Y-93938275D02*
X142441386Y-94010846D01*
X142441386Y-94010846D02*
X142513957Y-94083418D01*
X142513957Y-94083418D02*
X142586528Y-94228561D01*
X142586528Y-94228561D02*
X142586528Y-94373704D01*
X142586528Y-94373704D02*
X142513957Y-94591418D01*
X142513957Y-94591418D02*
X141643100Y-95462275D01*
X141643100Y-95462275D02*
X142586528Y-95462275D01*
X178473100Y-87189132D02*
X178400528Y-87261704D01*
X178400528Y-87261704D02*
X178182814Y-87334275D01*
X178182814Y-87334275D02*
X178037671Y-87334275D01*
X178037671Y-87334275D02*
X177819957Y-87261704D01*
X177819957Y-87261704D02*
X177674814Y-87116561D01*
X177674814Y-87116561D02*
X177602243Y-86971418D01*
X177602243Y-86971418D02*
X177529671Y-86681132D01*
X177529671Y-86681132D02*
X177529671Y-86463418D01*
X177529671Y-86463418D02*
X177602243Y-86173132D01*
X177602243Y-86173132D02*
X177674814Y-86027989D01*
X177674814Y-86027989D02*
X177819957Y-85882846D01*
X177819957Y-85882846D02*
X178037671Y-85810275D01*
X178037671Y-85810275D02*
X178182814Y-85810275D01*
X178182814Y-85810275D02*
X178400528Y-85882846D01*
X178400528Y-85882846D02*
X178473100Y-85955418D01*
X179779386Y-86318275D02*
X179779386Y-87334275D01*
X179416528Y-85737704D02*
X179053671Y-86826275D01*
X179053671Y-86826275D02*
X179997100Y-86826275D01*
X182528610Y-103982132D02*
X182456038Y-104054704D01*
X182456038Y-104054704D02*
X182238324Y-104127275D01*
X182238324Y-104127275D02*
X182093181Y-104127275D01*
X182093181Y-104127275D02*
X181875467Y-104054704D01*
X181875467Y-104054704D02*
X181730324Y-103909561D01*
X181730324Y-103909561D02*
X181657753Y-103764418D01*
X181657753Y-103764418D02*
X181585181Y-103474132D01*
X181585181Y-103474132D02*
X181585181Y-103256418D01*
X181585181Y-103256418D02*
X181657753Y-102966132D01*
X181657753Y-102966132D02*
X181730324Y-102820989D01*
X181730324Y-102820989D02*
X181875467Y-102675846D01*
X181875467Y-102675846D02*
X182093181Y-102603275D01*
X182093181Y-102603275D02*
X182238324Y-102603275D01*
X182238324Y-102603275D02*
X182456038Y-102675846D01*
X182456038Y-102675846D02*
X182528610Y-102748418D01*
X183907467Y-102603275D02*
X183181753Y-102603275D01*
X183181753Y-102603275D02*
X183109181Y-103328989D01*
X183109181Y-103328989D02*
X183181753Y-103256418D01*
X183181753Y-103256418D02*
X183326896Y-103183846D01*
X183326896Y-103183846D02*
X183689753Y-103183846D01*
X183689753Y-103183846D02*
X183834896Y-103256418D01*
X183834896Y-103256418D02*
X183907467Y-103328989D01*
X183907467Y-103328989D02*
X183980038Y-103474132D01*
X183980038Y-103474132D02*
X183980038Y-103836989D01*
X183980038Y-103836989D02*
X183907467Y-103982132D01*
X183907467Y-103982132D02*
X183834896Y-104054704D01*
X183834896Y-104054704D02*
X183689753Y-104127275D01*
X183689753Y-104127275D02*
X183326896Y-104127275D01*
X183326896Y-104127275D02*
X183181753Y-104054704D01*
X183181753Y-104054704D02*
X183109181Y-103982132D01*
X103180243Y-98256275D02*
X103180243Y-96732275D01*
X103180243Y-96732275D02*
X103543100Y-96732275D01*
X103543100Y-96732275D02*
X103760814Y-96804846D01*
X103760814Y-96804846D02*
X103905957Y-96949989D01*
X103905957Y-96949989D02*
X103978528Y-97095132D01*
X103978528Y-97095132D02*
X104051100Y-97385418D01*
X104051100Y-97385418D02*
X104051100Y-97603132D01*
X104051100Y-97603132D02*
X103978528Y-97893418D01*
X103978528Y-97893418D02*
X103905957Y-98038561D01*
X103905957Y-98038561D02*
X103760814Y-98183704D01*
X103760814Y-98183704D02*
X103543100Y-98256275D01*
X103543100Y-98256275D02*
X103180243Y-98256275D01*
X104631671Y-96877418D02*
X104704243Y-96804846D01*
X104704243Y-96804846D02*
X104849386Y-96732275D01*
X104849386Y-96732275D02*
X105212243Y-96732275D01*
X105212243Y-96732275D02*
X105357386Y-96804846D01*
X105357386Y-96804846D02*
X105429957Y-96877418D01*
X105429957Y-96877418D02*
X105502528Y-97022561D01*
X105502528Y-97022561D02*
X105502528Y-97167704D01*
X105502528Y-97167704D02*
X105429957Y-97385418D01*
X105429957Y-97385418D02*
X104559100Y-98256275D01*
X104559100Y-98256275D02*
X105502528Y-98256275D01*
X141135100Y-116399132D02*
X141062528Y-116471704D01*
X141062528Y-116471704D02*
X140844814Y-116544275D01*
X140844814Y-116544275D02*
X140699671Y-116544275D01*
X140699671Y-116544275D02*
X140481957Y-116471704D01*
X140481957Y-116471704D02*
X140336814Y-116326561D01*
X140336814Y-116326561D02*
X140264243Y-116181418D01*
X140264243Y-116181418D02*
X140191671Y-115891132D01*
X140191671Y-115891132D02*
X140191671Y-115673418D01*
X140191671Y-115673418D02*
X140264243Y-115383132D01*
X140264243Y-115383132D02*
X140336814Y-115237989D01*
X140336814Y-115237989D02*
X140481957Y-115092846D01*
X140481957Y-115092846D02*
X140699671Y-115020275D01*
X140699671Y-115020275D02*
X140844814Y-115020275D01*
X140844814Y-115020275D02*
X141062528Y-115092846D01*
X141062528Y-115092846D02*
X141135100Y-115165418D01*
X141643100Y-115020275D02*
X142659100Y-115020275D01*
X142659100Y-115020275D02*
X142005957Y-116544275D01*
X160643430Y-95321062D02*
X160570858Y-95393634D01*
X160570858Y-95393634D02*
X160353144Y-95466205D01*
X160353144Y-95466205D02*
X160208001Y-95466205D01*
X160208001Y-95466205D02*
X159990287Y-95393634D01*
X159990287Y-95393634D02*
X159845144Y-95248491D01*
X159845144Y-95248491D02*
X159772573Y-95103348D01*
X159772573Y-95103348D02*
X159700001Y-94813062D01*
X159700001Y-94813062D02*
X159700001Y-94595348D01*
X159700001Y-94595348D02*
X159772573Y-94305062D01*
X159772573Y-94305062D02*
X159845144Y-94159919D01*
X159845144Y-94159919D02*
X159990287Y-94014776D01*
X159990287Y-94014776D02*
X160208001Y-93942205D01*
X160208001Y-93942205D02*
X160353144Y-93942205D01*
X160353144Y-93942205D02*
X160570858Y-94014776D01*
X160570858Y-94014776D02*
X160643430Y-94087348D01*
X161151430Y-93942205D02*
X162094858Y-93942205D01*
X162094858Y-93942205D02*
X161586858Y-94522776D01*
X161586858Y-94522776D02*
X161804573Y-94522776D01*
X161804573Y-94522776D02*
X161949716Y-94595348D01*
X161949716Y-94595348D02*
X162022287Y-94667919D01*
X162022287Y-94667919D02*
X162094858Y-94813062D01*
X162094858Y-94813062D02*
X162094858Y-95175919D01*
X162094858Y-95175919D02*
X162022287Y-95321062D01*
X162022287Y-95321062D02*
X161949716Y-95393634D01*
X161949716Y-95393634D02*
X161804573Y-95466205D01*
X161804573Y-95466205D02*
X161369144Y-95466205D01*
X161369144Y-95466205D02*
X161224001Y-95393634D01*
X161224001Y-95393634D02*
X161151430Y-95321062D01*
X182188457Y-99754335D02*
X182188457Y-100988049D01*
X182188457Y-100988049D02*
X182261028Y-101133192D01*
X182261028Y-101133192D02*
X182333600Y-101205764D01*
X182333600Y-101205764D02*
X182478742Y-101278335D01*
X182478742Y-101278335D02*
X182769028Y-101278335D01*
X182769028Y-101278335D02*
X182914171Y-101205764D01*
X182914171Y-101205764D02*
X182986742Y-101133192D01*
X182986742Y-101133192D02*
X183059314Y-100988049D01*
X183059314Y-100988049D02*
X183059314Y-99754335D01*
X184583313Y-101278335D02*
X183712456Y-101278335D01*
X184147885Y-101278335D02*
X184147885Y-99754335D01*
X184147885Y-99754335D02*
X184002742Y-99972049D01*
X184002742Y-99972049D02*
X183857599Y-100117192D01*
X183857599Y-100117192D02*
X183712456Y-100189764D01*
X105575099Y-104860275D02*
X105575099Y-105948846D01*
X105575099Y-105948846D02*
X105502528Y-106166561D01*
X105502528Y-106166561D02*
X105357385Y-106311704D01*
X105357385Y-106311704D02*
X105139671Y-106384275D01*
X105139671Y-106384275D02*
X104994528Y-106384275D01*
X107099099Y-106384275D02*
X106228242Y-106384275D01*
X106663671Y-106384275D02*
X106663671Y-104860275D01*
X106663671Y-104860275D02*
X106518528Y-105077989D01*
X106518528Y-105077989D02*
X106373385Y-105223132D01*
X106373385Y-105223132D02*
X106228242Y-105295704D01*
X121323100Y-95063132D02*
X121250528Y-95135704D01*
X121250528Y-95135704D02*
X121032814Y-95208275D01*
X121032814Y-95208275D02*
X120887671Y-95208275D01*
X120887671Y-95208275D02*
X120669957Y-95135704D01*
X120669957Y-95135704D02*
X120524814Y-94990561D01*
X120524814Y-94990561D02*
X120452243Y-94845418D01*
X120452243Y-94845418D02*
X120379671Y-94555132D01*
X120379671Y-94555132D02*
X120379671Y-94337418D01*
X120379671Y-94337418D02*
X120452243Y-94047132D01*
X120452243Y-94047132D02*
X120524814Y-93901989D01*
X120524814Y-93901989D02*
X120669957Y-93756846D01*
X120669957Y-93756846D02*
X120887671Y-93684275D01*
X120887671Y-93684275D02*
X121032814Y-93684275D01*
X121032814Y-93684275D02*
X121250528Y-93756846D01*
X121250528Y-93756846D02*
X121323100Y-93829418D01*
X122774528Y-95208275D02*
X121903671Y-95208275D01*
X122339100Y-95208275D02*
X122339100Y-93684275D01*
X122339100Y-93684275D02*
X122193957Y-93901989D01*
X122193957Y-93901989D02*
X122048814Y-94047132D01*
X122048814Y-94047132D02*
X121903671Y-94119704D01*
X182590467Y-117096175D02*
X182590467Y-118329889D01*
X182590467Y-118329889D02*
X182663038Y-118475032D01*
X182663038Y-118475032D02*
X182735610Y-118547604D01*
X182735610Y-118547604D02*
X182880752Y-118620175D01*
X182880752Y-118620175D02*
X183171038Y-118620175D01*
X183171038Y-118620175D02*
X183316181Y-118547604D01*
X183316181Y-118547604D02*
X183388752Y-118475032D01*
X183388752Y-118475032D02*
X183461324Y-118329889D01*
X183461324Y-118329889D02*
X183461324Y-117096175D01*
X184114466Y-117241318D02*
X184187038Y-117168746D01*
X184187038Y-117168746D02*
X184332181Y-117096175D01*
X184332181Y-117096175D02*
X184695038Y-117096175D01*
X184695038Y-117096175D02*
X184840181Y-117168746D01*
X184840181Y-117168746D02*
X184912752Y-117241318D01*
X184912752Y-117241318D02*
X184985323Y-117386461D01*
X184985323Y-117386461D02*
X184985323Y-117531604D01*
X184985323Y-117531604D02*
X184912752Y-117749318D01*
X184912752Y-117749318D02*
X184041895Y-118620175D01*
X184041895Y-118620175D02*
X184985323Y-118620175D01*
X103434243Y-118830275D02*
X103434243Y-117306275D01*
X103434243Y-117306275D02*
X103797100Y-117306275D01*
X103797100Y-117306275D02*
X104014814Y-117378846D01*
X104014814Y-117378846D02*
X104159957Y-117523989D01*
X104159957Y-117523989D02*
X104232528Y-117669132D01*
X104232528Y-117669132D02*
X104305100Y-117959418D01*
X104305100Y-117959418D02*
X104305100Y-118177132D01*
X104305100Y-118177132D02*
X104232528Y-118467418D01*
X104232528Y-118467418D02*
X104159957Y-118612561D01*
X104159957Y-118612561D02*
X104014814Y-118757704D01*
X104014814Y-118757704D02*
X103797100Y-118830275D01*
X103797100Y-118830275D02*
X103434243Y-118830275D01*
X104813100Y-117306275D02*
X105756528Y-117306275D01*
X105756528Y-117306275D02*
X105248528Y-117886846D01*
X105248528Y-117886846D02*
X105466243Y-117886846D01*
X105466243Y-117886846D02*
X105611386Y-117959418D01*
X105611386Y-117959418D02*
X105683957Y-118031989D01*
X105683957Y-118031989D02*
X105756528Y-118177132D01*
X105756528Y-118177132D02*
X105756528Y-118539989D01*
X105756528Y-118539989D02*
X105683957Y-118685132D01*
X105683957Y-118685132D02*
X105611386Y-118757704D01*
X105611386Y-118757704D02*
X105466243Y-118830275D01*
X105466243Y-118830275D02*
X105030814Y-118830275D01*
X105030814Y-118830275D02*
X104885671Y-118757704D01*
X104885671Y-118757704D02*
X104813100Y-118685132D01*
X121323100Y-116145132D02*
X121250528Y-116217704D01*
X121250528Y-116217704D02*
X121032814Y-116290275D01*
X121032814Y-116290275D02*
X120887671Y-116290275D01*
X120887671Y-116290275D02*
X120669957Y-116217704D01*
X120669957Y-116217704D02*
X120524814Y-116072561D01*
X120524814Y-116072561D02*
X120452243Y-115927418D01*
X120452243Y-115927418D02*
X120379671Y-115637132D01*
X120379671Y-115637132D02*
X120379671Y-115419418D01*
X120379671Y-115419418D02*
X120452243Y-115129132D01*
X120452243Y-115129132D02*
X120524814Y-114983989D01*
X120524814Y-114983989D02*
X120669957Y-114838846D01*
X120669957Y-114838846D02*
X120887671Y-114766275D01*
X120887671Y-114766275D02*
X121032814Y-114766275D01*
X121032814Y-114766275D02*
X121250528Y-114838846D01*
X121250528Y-114838846D02*
X121323100Y-114911418D01*
X122629386Y-114766275D02*
X122339100Y-114766275D01*
X122339100Y-114766275D02*
X122193957Y-114838846D01*
X122193957Y-114838846D02*
X122121386Y-114911418D01*
X122121386Y-114911418D02*
X121976243Y-115129132D01*
X121976243Y-115129132D02*
X121903671Y-115419418D01*
X121903671Y-115419418D02*
X121903671Y-115999989D01*
X121903671Y-115999989D02*
X121976243Y-116145132D01*
X121976243Y-116145132D02*
X122048814Y-116217704D01*
X122048814Y-116217704D02*
X122193957Y-116290275D01*
X122193957Y-116290275D02*
X122484243Y-116290275D01*
X122484243Y-116290275D02*
X122629386Y-116217704D01*
X122629386Y-116217704D02*
X122701957Y-116145132D01*
X122701957Y-116145132D02*
X122774528Y-115999989D01*
X122774528Y-115999989D02*
X122774528Y-115637132D01*
X122774528Y-115637132D02*
X122701957Y-115491989D01*
X122701957Y-115491989D02*
X122629386Y-115419418D01*
X122629386Y-115419418D02*
X122484243Y-115346846D01*
X122484243Y-115346846D02*
X122193957Y-115346846D01*
X122193957Y-115346846D02*
X122048814Y-115419418D01*
X122048814Y-115419418D02*
X121976243Y-115491989D01*
X121976243Y-115491989D02*
X121903671Y-115637132D01*
X178001390Y-124273132D02*
X177928818Y-124345704D01*
X177928818Y-124345704D02*
X177711104Y-124418275D01*
X177711104Y-124418275D02*
X177565961Y-124418275D01*
X177565961Y-124418275D02*
X177348247Y-124345704D01*
X177348247Y-124345704D02*
X177203104Y-124200561D01*
X177203104Y-124200561D02*
X177130533Y-124055418D01*
X177130533Y-124055418D02*
X177057961Y-123765132D01*
X177057961Y-123765132D02*
X177057961Y-123547418D01*
X177057961Y-123547418D02*
X177130533Y-123257132D01*
X177130533Y-123257132D02*
X177203104Y-123111989D01*
X177203104Y-123111989D02*
X177348247Y-122966846D01*
X177348247Y-122966846D02*
X177565961Y-122894275D01*
X177565961Y-122894275D02*
X177711104Y-122894275D01*
X177711104Y-122894275D02*
X177928818Y-122966846D01*
X177928818Y-122966846D02*
X178001390Y-123039418D01*
X179452818Y-124418275D02*
X178581961Y-124418275D01*
X179017390Y-124418275D02*
X179017390Y-122894275D01*
X179017390Y-122894275D02*
X178872247Y-123111989D01*
X178872247Y-123111989D02*
X178727104Y-123257132D01*
X178727104Y-123257132D02*
X178581961Y-123329704D01*
X180396247Y-122894275D02*
X180541390Y-122894275D01*
X180541390Y-122894275D02*
X180686533Y-122966846D01*
X180686533Y-122966846D02*
X180759105Y-123039418D01*
X180759105Y-123039418D02*
X180831676Y-123184561D01*
X180831676Y-123184561D02*
X180904247Y-123474846D01*
X180904247Y-123474846D02*
X180904247Y-123837704D01*
X180904247Y-123837704D02*
X180831676Y-124127989D01*
X180831676Y-124127989D02*
X180759105Y-124273132D01*
X180759105Y-124273132D02*
X180686533Y-124345704D01*
X180686533Y-124345704D02*
X180541390Y-124418275D01*
X180541390Y-124418275D02*
X180396247Y-124418275D01*
X180396247Y-124418275D02*
X180251105Y-124345704D01*
X180251105Y-124345704D02*
X180178533Y-124273132D01*
X180178533Y-124273132D02*
X180105962Y-124127989D01*
X180105962Y-124127989D02*
X180033390Y-123837704D01*
X180033390Y-123837704D02*
X180033390Y-123474846D01*
X180033390Y-123474846D02*
X180105962Y-123184561D01*
X180105962Y-123184561D02*
X180178533Y-123039418D01*
X180178533Y-123039418D02*
X180251105Y-122966846D01*
X180251105Y-122966846D02*
X180396247Y-122894275D01*
X160693100Y-116399132D02*
X160620528Y-116471704D01*
X160620528Y-116471704D02*
X160402814Y-116544275D01*
X160402814Y-116544275D02*
X160257671Y-116544275D01*
X160257671Y-116544275D02*
X160039957Y-116471704D01*
X160039957Y-116471704D02*
X159894814Y-116326561D01*
X159894814Y-116326561D02*
X159822243Y-116181418D01*
X159822243Y-116181418D02*
X159749671Y-115891132D01*
X159749671Y-115891132D02*
X159749671Y-115673418D01*
X159749671Y-115673418D02*
X159822243Y-115383132D01*
X159822243Y-115383132D02*
X159894814Y-115237989D01*
X159894814Y-115237989D02*
X160039957Y-115092846D01*
X160039957Y-115092846D02*
X160257671Y-115020275D01*
X160257671Y-115020275D02*
X160402814Y-115020275D01*
X160402814Y-115020275D02*
X160620528Y-115092846D01*
X160620528Y-115092846D02*
X160693100Y-115165418D01*
X161563957Y-115673418D02*
X161418814Y-115600846D01*
X161418814Y-115600846D02*
X161346243Y-115528275D01*
X161346243Y-115528275D02*
X161273671Y-115383132D01*
X161273671Y-115383132D02*
X161273671Y-115310561D01*
X161273671Y-115310561D02*
X161346243Y-115165418D01*
X161346243Y-115165418D02*
X161418814Y-115092846D01*
X161418814Y-115092846D02*
X161563957Y-115020275D01*
X161563957Y-115020275D02*
X161854243Y-115020275D01*
X161854243Y-115020275D02*
X161999386Y-115092846D01*
X161999386Y-115092846D02*
X162071957Y-115165418D01*
X162071957Y-115165418D02*
X162144528Y-115310561D01*
X162144528Y-115310561D02*
X162144528Y-115383132D01*
X162144528Y-115383132D02*
X162071957Y-115528275D01*
X162071957Y-115528275D02*
X161999386Y-115600846D01*
X161999386Y-115600846D02*
X161854243Y-115673418D01*
X161854243Y-115673418D02*
X161563957Y-115673418D01*
X161563957Y-115673418D02*
X161418814Y-115745989D01*
X161418814Y-115745989D02*
X161346243Y-115818561D01*
X161346243Y-115818561D02*
X161273671Y-115963704D01*
X161273671Y-115963704D02*
X161273671Y-116253989D01*
X161273671Y-116253989D02*
X161346243Y-116399132D01*
X161346243Y-116399132D02*
X161418814Y-116471704D01*
X161418814Y-116471704D02*
X161563957Y-116544275D01*
X161563957Y-116544275D02*
X161854243Y-116544275D01*
X161854243Y-116544275D02*
X161999386Y-116471704D01*
X161999386Y-116471704D02*
X162071957Y-116399132D01*
X162071957Y-116399132D02*
X162144528Y-116253989D01*
X162144528Y-116253989D02*
X162144528Y-115963704D01*
X162144528Y-115963704D02*
X162071957Y-115818561D01*
X162071957Y-115818561D02*
X161999386Y-115745989D01*
X161999386Y-115745989D02*
X161854243Y-115673418D01*
X182537100Y-107255132D02*
X182464528Y-107327704D01*
X182464528Y-107327704D02*
X182246814Y-107400275D01*
X182246814Y-107400275D02*
X182101671Y-107400275D01*
X182101671Y-107400275D02*
X181883957Y-107327704D01*
X181883957Y-107327704D02*
X181738814Y-107182561D01*
X181738814Y-107182561D02*
X181666243Y-107037418D01*
X181666243Y-107037418D02*
X181593671Y-106747132D01*
X181593671Y-106747132D02*
X181593671Y-106529418D01*
X181593671Y-106529418D02*
X181666243Y-106239132D01*
X181666243Y-106239132D02*
X181738814Y-106093989D01*
X181738814Y-106093989D02*
X181883957Y-105948846D01*
X181883957Y-105948846D02*
X182101671Y-105876275D01*
X182101671Y-105876275D02*
X182246814Y-105876275D01*
X182246814Y-105876275D02*
X182464528Y-105948846D01*
X182464528Y-105948846D02*
X182537100Y-106021418D01*
X183262814Y-107400275D02*
X183553100Y-107400275D01*
X183553100Y-107400275D02*
X183698243Y-107327704D01*
X183698243Y-107327704D02*
X183770814Y-107255132D01*
X183770814Y-107255132D02*
X183915957Y-107037418D01*
X183915957Y-107037418D02*
X183988528Y-106747132D01*
X183988528Y-106747132D02*
X183988528Y-106166561D01*
X183988528Y-106166561D02*
X183915957Y-106021418D01*
X183915957Y-106021418D02*
X183843386Y-105948846D01*
X183843386Y-105948846D02*
X183698243Y-105876275D01*
X183698243Y-105876275D02*
X183407957Y-105876275D01*
X183407957Y-105876275D02*
X183262814Y-105948846D01*
X183262814Y-105948846D02*
X183190243Y-106021418D01*
X183190243Y-106021418D02*
X183117671Y-106166561D01*
X183117671Y-106166561D02*
X183117671Y-106529418D01*
X183117671Y-106529418D02*
X183190243Y-106674561D01*
X183190243Y-106674561D02*
X183262814Y-106747132D01*
X183262814Y-106747132D02*
X183407957Y-106819704D01*
X183407957Y-106819704D02*
X183698243Y-106819704D01*
X183698243Y-106819704D02*
X183843386Y-106747132D01*
X183843386Y-106747132D02*
X183915957Y-106674561D01*
X183915957Y-106674561D02*
X183988528Y-106529418D01*
X198843100Y-96308924D02*
X198843100Y-95220353D01*
X198843100Y-95220353D02*
X198915671Y-95002638D01*
X198915671Y-95002638D02*
X199060814Y-94857496D01*
X199060814Y-94857496D02*
X199278528Y-94784924D01*
X199278528Y-94784924D02*
X199423671Y-94784924D01*
X198189957Y-96163781D02*
X198117385Y-96236353D01*
X198117385Y-96236353D02*
X197972243Y-96308924D01*
X197972243Y-96308924D02*
X197609385Y-96308924D01*
X197609385Y-96308924D02*
X197464243Y-96236353D01*
X197464243Y-96236353D02*
X197391671Y-96163781D01*
X197391671Y-96163781D02*
X197319100Y-96018638D01*
X197319100Y-96018638D02*
X197319100Y-95873496D01*
X197319100Y-95873496D02*
X197391671Y-95655781D01*
X197391671Y-95655781D02*
X198262528Y-94784924D01*
X198262528Y-94784924D02*
X197319100Y-94784924D01*
X172268243Y-90128275D02*
X172268243Y-88604275D01*
X172268243Y-88604275D02*
X172631100Y-88604275D01*
X172631100Y-88604275D02*
X172848814Y-88676846D01*
X172848814Y-88676846D02*
X172993957Y-88821989D01*
X172993957Y-88821989D02*
X173066528Y-88967132D01*
X173066528Y-88967132D02*
X173139100Y-89257418D01*
X173139100Y-89257418D02*
X173139100Y-89475132D01*
X173139100Y-89475132D02*
X173066528Y-89765418D01*
X173066528Y-89765418D02*
X172993957Y-89910561D01*
X172993957Y-89910561D02*
X172848814Y-90055704D01*
X172848814Y-90055704D02*
X172631100Y-90128275D01*
X172631100Y-90128275D02*
X172268243Y-90128275D01*
X174590528Y-90128275D02*
X173719671Y-90128275D01*
X174155100Y-90128275D02*
X174155100Y-88604275D01*
X174155100Y-88604275D02*
X174009957Y-88821989D01*
X174009957Y-88821989D02*
X173864814Y-88967132D01*
X173864814Y-88967132D02*
X173719671Y-89039704D01*
D11*
%TO.C,C2*%
X135685120Y-101916590D02*
X146585080Y-101916590D01*
D12*
X150385100Y-94716600D02*
G75*
G02*
X131885100Y-94716600I-9250000J0D01*
G01*
X131885100Y-94716600D02*
G75*
G02*
X150385100Y-94716600I9250000J0D01*
G01*
D11*
%TO.C,C4*%
X176813620Y-88069110D02*
X180623620Y-88069110D01*
X176813620Y-88289130D02*
X176813620Y-88069110D01*
X176813620Y-90609110D02*
X176813620Y-90389150D01*
X176813620Y-90609110D02*
X180623620Y-90609110D01*
X180623620Y-88289130D02*
X180623620Y-88069110D01*
X180623620Y-90609110D02*
X180623620Y-90389150D01*
%TO.C,C5*%
X176813620Y-102111610D02*
X180623620Y-102111610D01*
X176813620Y-102331570D02*
X176813620Y-102111610D01*
X176813620Y-104651610D02*
X176813620Y-104431590D01*
X176813620Y-104651610D02*
X180623620Y-104651610D01*
X180623620Y-102331570D02*
X180623620Y-102111610D01*
X180623620Y-104651610D02*
X180623620Y-104431590D01*
%TO.C,D2*%
X100913080Y-94716600D02*
X101578110Y-94716600D01*
X101578110Y-93316600D02*
X106778100Y-93316600D01*
X101578110Y-96116600D02*
X101578110Y-93316600D01*
X101578110Y-96116600D02*
X106778100Y-96116600D01*
X105478120Y-96046590D02*
X105478120Y-93386600D01*
X106778100Y-94716600D02*
X107443120Y-94716600D01*
X106778100Y-96116600D02*
X106778100Y-93316600D01*
%TO.C,C7*%
X135685120Y-108344610D02*
X146585130Y-108344610D01*
D12*
X150385110Y-115544600D02*
G75*
G02*
X131885110Y-115544600I-9250000J0D01*
G01*
X131885110Y-115544600D02*
G75*
G02*
X150385110Y-115544600I9250000J0D01*
G01*
D11*
%TO.C,C3*%
X155243120Y-101916590D02*
X166143080Y-101916590D01*
D12*
X169943100Y-94716600D02*
G75*
G02*
X151443100Y-94716600I-9250000J0D01*
G01*
X151443100Y-94716600D02*
G75*
G02*
X169943100Y-94716600I9250000J0D01*
G01*
D11*
%TO.C,U1*%
X176773590Y-91183920D02*
X181373580Y-91183920D01*
X176773590Y-101583950D02*
X176773590Y-91183920D01*
X176773590Y-101583950D02*
X181373580Y-101583950D01*
X180873600Y-101583950D02*
X180873600Y-91183920D01*
X181373580Y-101583950D02*
X181373580Y-91183920D01*
D13*
X177548600Y-91833930D02*
G75*
G02*
X177298600Y-91833930I-125000J0D01*
G01*
X177298600Y-91833930D02*
G75*
G02*
X177548600Y-91833930I125000J0D01*
G01*
D11*
%TO.C,J1*%
X95588070Y-100384610D02*
X96338090Y-100384610D01*
X95588070Y-110384590D02*
X95588070Y-100384610D01*
X95588070Y-110384590D02*
X103888080Y-110384590D01*
X96213120Y-99784610D02*
X96338090Y-100384610D01*
X96213120Y-99784610D02*
X96863100Y-99784610D01*
X96738080Y-100384610D02*
X96863100Y-99784610D01*
X96738080Y-100384610D02*
X102738120Y-100384610D01*
X102613100Y-99784610D02*
X102738120Y-100384610D01*
X102613100Y-99784610D02*
X103263090Y-99784610D01*
X103138120Y-100384610D02*
X103263090Y-99784610D01*
X103138120Y-100384610D02*
X103888080Y-100384610D01*
X103888080Y-110384590D02*
X103888080Y-100384610D01*
%TO.C,C1*%
X115859560Y-101828700D02*
X126759560Y-101828700D01*
D12*
X130559580Y-94628730D02*
G75*
G02*
X112059580Y-94628730I-9250000J0D01*
G01*
X112059580Y-94628730D02*
G75*
G02*
X130559580Y-94628730I9250000J0D01*
G01*
D11*
%TO.C,U2*%
X176773590Y-108610500D02*
X181373580Y-108610500D01*
X176773590Y-119010480D02*
X176773590Y-108610500D01*
X176773590Y-119010480D02*
X181373580Y-119010480D01*
X180873600Y-119010480D02*
X180873600Y-108610500D01*
X181373580Y-119010480D02*
X181373580Y-108610500D01*
D13*
X177548600Y-109260500D02*
G75*
G02*
X177298600Y-109260500I-125000J0D01*
G01*
X177298600Y-109260500D02*
G75*
G02*
X177548600Y-109260500I125000J0D01*
G01*
D11*
%TO.C,D3*%
X100913080Y-115544600D02*
X101578110Y-115544600D01*
X101578110Y-114144600D02*
X106778100Y-114144600D01*
X101578110Y-116944600D02*
X101578110Y-114144600D01*
X101578110Y-116944600D02*
X106778100Y-116944600D01*
X102878080Y-116874590D02*
X102878080Y-114214600D01*
X106778100Y-115544600D02*
X107443120Y-115544600D01*
X106778100Y-116944600D02*
X106778100Y-114144600D01*
%TO.C,C6*%
X115873120Y-108344610D02*
X126773080Y-108344610D01*
D12*
X130573100Y-115544600D02*
G75*
G02*
X112073100Y-115544600I-9250000J0D01*
G01*
X112073100Y-115544600D02*
G75*
G02*
X130573100Y-115544600I9250000J0D01*
G01*
D11*
%TO.C,C10*%
X176726850Y-119826020D02*
X180536850Y-119826020D01*
X176726850Y-120045990D02*
X176726850Y-119826020D01*
X176726850Y-122366020D02*
X176726850Y-122146010D01*
X176726850Y-122366020D02*
X180536850Y-122366020D01*
X180536850Y-120045990D02*
X180536850Y-119826020D01*
X180536850Y-122366020D02*
X180536850Y-122146010D01*
%TO.C,C8*%
X155243120Y-108344610D02*
X166143080Y-108344610D01*
D12*
X169943100Y-115544600D02*
G75*
G02*
X151443100Y-115544600I-9250000J0D01*
G01*
X151443100Y-115544600D02*
G75*
G02*
X169943100Y-115544600I9250000J0D01*
G01*
D11*
%TO.C,C9*%
X176813620Y-105440170D02*
X180623620Y-105440170D01*
X176813620Y-105660190D02*
X176813620Y-105440170D01*
X176813620Y-107980170D02*
X176813620Y-107760160D01*
X176813620Y-107980170D02*
X180623620Y-107980170D01*
X180623620Y-105660190D02*
X180623620Y-105440170D01*
X180623620Y-107980170D02*
X180623620Y-107760160D01*
%TO.C,J2*%
X192319060Y-97174340D02*
X192319060Y-112174360D01*
X193269070Y-97174340D02*
X192319060Y-97174340D01*
X193269070Y-97174340D02*
X193019290Y-96574290D01*
X194219280Y-96574290D02*
X193019290Y-96574290D01*
X194219280Y-96574290D02*
X193969500Y-97174340D01*
X198468910Y-112174360D02*
X192319060Y-112174360D01*
X198468910Y-112174360D02*
X198219070Y-112774460D01*
X199419070Y-112774460D02*
X198219070Y-112774460D01*
X199419070Y-112774460D02*
X199169290Y-112174360D01*
X201319090Y-97174340D02*
X193969090Y-97174340D01*
X201319090Y-97174340D02*
X201319090Y-112174360D01*
X201319090Y-112174360D02*
X199169080Y-112174360D01*
%TO.C,D1*%
X171649240Y-93783910D02*
X174449230Y-93783910D01*
X171649240Y-98983950D02*
X171649240Y-93783910D01*
X171649240Y-98983950D02*
X174449230Y-98983950D01*
X171719240Y-95083930D02*
X174379230Y-95083930D01*
X173049240Y-93783910D02*
X173049240Y-93118940D01*
X173049240Y-99648920D02*
X173049240Y-98983950D01*
X174449230Y-98983950D02*
X174449230Y-93783910D01*
%TD*%
M02*
