%TF.GenerationSoftware,KiCad,Pcbnew,8.0.5*%
%TF.CreationDate,2024-10-15T14:45:06+02:00*%
%TF.ProjectId,VCO_555,56434f5f-3535-4352-9e6b-696361645f70,1.0*%
%TF.SameCoordinates,Original*%
%TF.FileFunction,Copper,L1,Top*%
%TF.FilePolarity,Positive*%
%FSLAX46Y46*%
G04 Gerber Fmt 4.6, Leading zero omitted, Abs format (unit mm)*
G04 Created by KiCad (PCBNEW 8.0.5) date 2024-10-15 14:45:06*
%MOMM*%
%LPD*%
G01*
G04 APERTURE LIST*
G04 Aperture macros list*
%AMRoundRect*
0 Rectangle with rounded corners*
0 $1 Rounding radius*
0 $2 $3 $4 $5 $6 $7 $8 $9 X,Y pos of 4 corners*
0 Add a 4 corners polygon primitive as box body*
4,1,4,$2,$3,$4,$5,$6,$7,$8,$9,$2,$3,0*
0 Add four circle primitives for the rounded corners*
1,1,$1+$1,$2,$3*
1,1,$1+$1,$4,$5*
1,1,$1+$1,$6,$7*
1,1,$1+$1,$8,$9*
0 Add four rect primitives between the rounded corners*
20,1,$1+$1,$2,$3,$4,$5,0*
20,1,$1+$1,$4,$5,$6,$7,0*
20,1,$1+$1,$6,$7,$8,$9,0*
20,1,$1+$1,$8,$9,$2,$3,0*%
G04 Aperture macros list end*
%TA.AperFunction,ComponentPad*%
%ADD10C,1.400000*%
%TD*%
%TA.AperFunction,ComponentPad*%
%ADD11C,1.600000*%
%TD*%
%TA.AperFunction,ComponentPad*%
%ADD12O,1.600000X1.600000*%
%TD*%
%TA.AperFunction,ComponentPad*%
%ADD13R,1.600000X1.600000*%
%TD*%
%TA.AperFunction,ComponentPad*%
%ADD14C,2.000000*%
%TD*%
%TA.AperFunction,ComponentPad*%
%ADD15R,1.500000X1.050000*%
%TD*%
%TA.AperFunction,ComponentPad*%
%ADD16O,1.500000X1.050000*%
%TD*%
%TA.AperFunction,ComponentPad*%
%ADD17R,1.050000X1.500000*%
%TD*%
%TA.AperFunction,ComponentPad*%
%ADD18O,1.050000X1.500000*%
%TD*%
%TA.AperFunction,ComponentPad*%
%ADD19R,1.350000X1.350000*%
%TD*%
%TA.AperFunction,ComponentPad*%
%ADD20O,1.350000X1.350000*%
%TD*%
%TA.AperFunction,ComponentPad*%
%ADD21RoundRect,0.250000X0.600000X0.600000X-0.600000X0.600000X-0.600000X-0.600000X0.600000X-0.600000X0*%
%TD*%
%TA.AperFunction,ComponentPad*%
%ADD22C,1.700000*%
%TD*%
%TA.AperFunction,ComponentPad*%
%ADD23C,1.440000*%
%TD*%
%TA.AperFunction,ComponentPad*%
%ADD24C,5.500000*%
%TD*%
%TA.AperFunction,ComponentPad*%
%ADD25C,1.620000*%
%TD*%
%TA.AperFunction,Conductor*%
%ADD26C,0.200000*%
%TD*%
G04 APERTURE END LIST*
D10*
%TO.P,C11,1*%
%TO.N,+12V*%
X107830000Y-97000000D03*
%TO.P,C11,2*%
%TO.N,GND*%
X105330000Y-97000000D03*
%TD*%
D11*
%TO.P,R35,1*%
%TO.N,Net-(J20-Pin_1)*%
X162350000Y-127540000D03*
D12*
%TO.P,R35,2*%
%TO.N,Net-(U4C--)*%
X152190000Y-127540000D03*
%TD*%
D10*
%TO.P,J15,1,Pin_1*%
%TO.N,Net-(J15-Pin_1)*%
X71580000Y-123500000D03*
%TD*%
%TO.P,J11,1,Pin_1*%
%TO.N,Net-(J11-Pin_1)*%
X129080000Y-59500000D03*
%TD*%
D13*
%TO.P,D1,1,K*%
%TO.N,Net-(D1-K)*%
X78750000Y-59440000D03*
D12*
%TO.P,D1,2,A*%
%TO.N,Net-(D1-A)*%
X78750000Y-67060000D03*
%TD*%
D11*
%TO.P,R28,1*%
%TO.N,Net-(J11-Pin_1)*%
X124573800Y-59420000D03*
D12*
%TO.P,R28,2*%
%TO.N,Net-(U3A--)*%
X124573800Y-69580000D03*
%TD*%
D14*
%TO.P,C2,1*%
%TO.N,Net-(J16-Pin_1)*%
X78000000Y-129500000D03*
%TO.P,C2,2*%
%TO.N,Net-(C2-Pad2)*%
X78000000Y-134500000D03*
%TD*%
D11*
%TO.P,R30,1*%
%TO.N,Net-(J14-Pin_1)*%
X97686300Y-59420000D03*
D12*
%TO.P,R30,2*%
%TO.N,Net-(U3A--)*%
X97686300Y-69580000D03*
%TD*%
D15*
%TO.P,Q3,1,E*%
%TO.N,GND*%
X91580000Y-133000000D03*
D16*
%TO.P,Q3,2,B*%
%TO.N,Net-(D2-K)*%
X91580000Y-134270000D03*
%TO.P,Q3,3,C*%
%TO.N,Net-(Q3-C)*%
X91580000Y-135540000D03*
%TD*%
D11*
%TO.P,R31,1*%
%TO.N,Net-(C2-Pad2)*%
X82080000Y-125500000D03*
D12*
%TO.P,R31,2*%
%TO.N,Net-(D2-K)*%
X82080000Y-135660000D03*
%TD*%
D11*
%TO.P,R20,1*%
%TO.N,Net-(U1-DIS)*%
X121160000Y-131500000D03*
D12*
%TO.P,R20,2*%
%TO.N,Net-(R19-Pad2)*%
X111000000Y-131500000D03*
%TD*%
D11*
%TO.P,R52,1*%
%TO.N,-12V*%
X73000000Y-84000000D03*
D12*
%TO.P,R52,2*%
%TO.N,Net-(Q1-C)*%
X83160000Y-84000000D03*
%TD*%
D10*
%TO.P,J13,1,Pin_1*%
%TO.N,Net-(J13-Pin_1)*%
X111155000Y-59500000D03*
%TD*%
D13*
%TO.P,C13,1*%
%TO.N,+12V*%
X88000000Y-96000000D03*
D11*
%TO.P,C13,2*%
%TO.N,GND*%
X88000000Y-101000000D03*
%TD*%
%TO.P,R33,1*%
%TO.N,Net-(U4B--)*%
X149160000Y-131000000D03*
D12*
%TO.P,R33,2*%
%TO.N,Net-(R19-Pad2)*%
X139000000Y-131000000D03*
%TD*%
D11*
%TO.P,C10,1*%
%TO.N,GND*%
X151080000Y-117500000D03*
%TO.P,C10,2*%
%TO.N,-12V*%
X156080000Y-117500000D03*
%TD*%
%TO.P,R55,1*%
%TO.N,Net-(R5-Pad1)*%
X151000000Y-93000000D03*
D12*
%TO.P,R55,2*%
%TO.N,-12V*%
X161160000Y-93000000D03*
%TD*%
D17*
%TO.P,Q1,1,E*%
%TO.N,Net-(Q1-E)*%
X89080000Y-89500000D03*
D18*
%TO.P,Q1,2,B*%
%TO.N,GND*%
X87810000Y-89500000D03*
%TO.P,Q1,3,C*%
%TO.N,Net-(Q1-C)*%
X86540000Y-89500000D03*
%TD*%
D11*
%TO.P,R15,1*%
%TO.N,+12V*%
X92080000Y-118420000D03*
D12*
%TO.P,R15,2*%
%TO.N,Net-(Q3-C)*%
X92080000Y-128580000D03*
%TD*%
D11*
%TO.P,R32,1*%
%TO.N,Net-(U1-THR)*%
X125080000Y-110420000D03*
D12*
%TO.P,R32,2*%
%TO.N,Net-(U4B--)*%
X125080000Y-120580000D03*
%TD*%
D11*
%TO.P,C7,1*%
%TO.N,+12V*%
X151580000Y-81000000D03*
%TO.P,C7,2*%
%TO.N,GND*%
X151580000Y-76000000D03*
%TD*%
%TO.P,C8,1*%
%TO.N,GND*%
X132080000Y-81000000D03*
%TO.P,C8,2*%
%TO.N,-12V*%
X137080000Y-81000000D03*
%TD*%
%TO.P,R5,1*%
%TO.N,Net-(R5-Pad1)*%
X160420000Y-69000000D03*
D12*
%TO.P,R5,2*%
%TO.N,Net-(J21-Pin_1)*%
X170580000Y-69000000D03*
%TD*%
D11*
%TO.P,R11,1*%
%TO.N,Net-(U3A--)*%
X93080000Y-87810000D03*
D12*
%TO.P,R11,2*%
%TO.N,Net-(R1-Pad1)*%
X93080000Y-80190000D03*
%TD*%
D11*
%TO.P,R51,1*%
%TO.N,Net-(U3A--)*%
X93500000Y-69580000D03*
D12*
%TO.P,R51,2*%
%TO.N,Net-(R36-Pad2)*%
X93500000Y-59420000D03*
%TD*%
D11*
%TO.P,R25,1*%
%TO.N,Net-(R25-Pad1)*%
X151000000Y-89500000D03*
D12*
%TO.P,R25,2*%
%TO.N,+12V*%
X161160000Y-89500000D03*
%TD*%
D19*
%TO.P,GND4,1*%
%TO.N,N/C*%
X89750000Y-59500000D03*
%TD*%
D11*
%TO.P,R53,1*%
%TO.N,Net-(U4D-+)*%
X161080000Y-120580000D03*
D12*
%TO.P,R53,2*%
%TO.N,Net-(R13-Pad1)*%
X161080000Y-110420000D03*
%TD*%
D19*
%TO.P,Power1,1*%
%TO.N,+12V*%
X133750000Y-59750000D03*
D20*
%TO.P,Power1,2*%
%TO.N,GND*%
X135750000Y-59750000D03*
%TO.P,Power1,3*%
%TO.N,-12V*%
X137750000Y-59750000D03*
%TD*%
D11*
%TO.P,R17,1*%
%TO.N,+12V*%
X120080000Y-90160000D03*
D12*
%TO.P,R17,2*%
%TO.N,Net-(R17-Pad2)*%
X120080000Y-80000000D03*
%TD*%
D21*
%TO.P,J5,1,Pin_1*%
%TO.N,-12V*%
X75620000Y-108660000D03*
D22*
%TO.P,J5,2,Pin_2*%
X73080000Y-108660000D03*
%TO.P,J5,3,Pin_3*%
%TO.N,GND*%
X75620000Y-106120000D03*
%TO.P,J5,4,Pin_4*%
X73080000Y-106120000D03*
%TO.P,J5,5,Pin_5*%
X75620000Y-103580000D03*
%TO.P,J5,6,Pin_6*%
X73080000Y-103580000D03*
%TO.P,J5,7,Pin_7*%
X75620000Y-101040000D03*
%TO.P,J5,8,Pin_8*%
X73080000Y-101040000D03*
%TO.P,J5,9,Pin_9*%
%TO.N,+12V*%
X75620000Y-98500000D03*
%TO.P,J5,10,Pin_10*%
X73080000Y-98500000D03*
%TD*%
D11*
%TO.P,R14,1*%
%TO.N,Net-(U1-Q)*%
X119080000Y-107580000D03*
D12*
%TO.P,R14,2*%
%TO.N,Net-(U2C-+)*%
X119080000Y-97420000D03*
%TD*%
D10*
%TO.P,J12,1,Pin_1*%
%TO.N,Net-(J12-Pin_1)*%
X120117500Y-59500000D03*
%TD*%
%TO.P,J21,1,Pin_1*%
%TO.N,Net-(J21-Pin_1)*%
X176080000Y-70500000D03*
%TD*%
D23*
%TO.P,R38,1,1*%
%TO.N,+12V*%
X165080000Y-97420000D03*
%TO.P,R38,2,2*%
%TO.N,Net-(R38-Pad2)*%
X167620000Y-99960000D03*
%TO.P,R38,3,3*%
%TO.N,-12V*%
X165080000Y-102500000D03*
%TD*%
D11*
%TO.P,R21,1*%
%TO.N,Net-(U3D--)*%
X120080000Y-77080000D03*
D12*
%TO.P,R21,2*%
%TO.N,GND*%
X120080000Y-66920000D03*
%TD*%
D10*
%TO.P,J22,1,Pin_1*%
%TO.N,Net-(J22-Pin_1)*%
X176080000Y-120500000D03*
%TD*%
D11*
%TO.P,R18,1*%
%TO.N,Net-(U4A--)*%
X96580000Y-126580000D03*
D12*
%TO.P,R18,2*%
%TO.N,Net-(R18-Pad2)*%
X96580000Y-116420000D03*
%TD*%
D11*
%TO.P,R29,1*%
%TO.N,Net-(J12-Pin_1)*%
X115611300Y-59420000D03*
D12*
%TO.P,R29,2*%
%TO.N,Net-(U3A--)*%
X115611300Y-69580000D03*
%TD*%
D11*
%TO.P,R49,1*%
%TO.N,Net-(R37-Pad2)*%
X128580000Y-110420000D03*
D12*
%TO.P,R49,2*%
%TO.N,Net-(U4B--)*%
X128580000Y-120580000D03*
%TD*%
D11*
%TO.P,R50,1*%
%TO.N,Net-(R38-Pad2)*%
X160080000Y-86080000D03*
D12*
%TO.P,R50,2*%
%TO.N,Net-(U2A--)*%
X160080000Y-75920000D03*
%TD*%
D10*
%TO.P,J17,1,Pin_1*%
%TO.N,Net-(J17-Pin_1)*%
X71580000Y-119500000D03*
%TD*%
D11*
%TO.P,R22,1*%
%TO.N,Net-(R17-Pad2)*%
X116080000Y-84580000D03*
D12*
%TO.P,R22,2*%
%TO.N,Net-(R12-Pad1)*%
X116080000Y-74420000D03*
%TD*%
D24*
%TO.P,MH3,1*%
%TO.N,N/C*%
X175000000Y-134750000D03*
%TD*%
D11*
%TO.P,R7,1*%
%TO.N,GND*%
X123580000Y-107580000D03*
D12*
%TO.P,R7,2*%
%TO.N,Net-(U2C-+)*%
X123580000Y-97420000D03*
%TD*%
D11*
%TO.P,R46,1*%
%TO.N,-12V*%
X132080000Y-110340000D03*
D12*
%TO.P,R46,2*%
%TO.N,Net-(U4B--)*%
X132080000Y-120500000D03*
%TD*%
D19*
%TO.P,GND2,1*%
%TO.N,N/C*%
X169500000Y-136000000D03*
%TD*%
D13*
%TO.P,U3,1*%
%TO.N,Net-(R1-Pad1)*%
X101960000Y-74800000D03*
D11*
%TO.P,U3,2,-*%
%TO.N,Net-(U3A--)*%
X101960000Y-77340000D03*
%TO.P,U3,3,+*%
%TO.N,GND*%
X101960000Y-79880000D03*
%TO.P,U3,4,V+*%
%TO.N,+12V*%
X101960000Y-82420000D03*
%TO.P,U3,5,+*%
%TO.N,GND*%
X101960000Y-84960000D03*
%TO.P,U3,6,-*%
%TO.N,Net-(Q1-C)*%
X101960000Y-87500000D03*
%TO.P,U3,7*%
%TO.N,Net-(D1-A)*%
X101960000Y-90040000D03*
%TO.P,U3,8*%
%TO.N,Net-(U1-THR)*%
X109580000Y-90040000D03*
%TO.P,U3,9,-*%
X109580000Y-87500000D03*
%TO.P,U3,10,+*%
%TO.N,Net-(U3C-+)*%
X109580000Y-84960000D03*
%TO.P,U3,11,V-*%
%TO.N,-12V*%
X109580000Y-82420000D03*
%TO.P,U3,12,+*%
%TO.N,Net-(U1-THR)*%
X109580000Y-79880000D03*
%TO.P,U3,13,-*%
%TO.N,Net-(U3D--)*%
X109580000Y-77340000D03*
%TO.P,U3,14*%
%TO.N,Net-(R12-Pad1)*%
X109580000Y-74800000D03*
%TD*%
%TO.P,R3,1*%
%TO.N,Net-(U2A--)*%
X156080000Y-71080000D03*
D12*
%TO.P,R3,2*%
%TO.N,GND*%
X156080000Y-60920000D03*
%TD*%
D11*
%TO.P,C1,1*%
%TO.N,Net-(Q1-C)*%
X96000000Y-98750000D03*
D12*
%TO.P,C1,2*%
%TO.N,Net-(D1-A)*%
X96000000Y-91250000D03*
%TD*%
D11*
%TO.P,R10,1*%
%TO.N,Net-(J18-Pin_1)*%
X132580000Y-64420000D03*
D12*
%TO.P,R10,2*%
%TO.N,GND*%
X132580000Y-74580000D03*
%TD*%
D11*
%TO.P,R6,1*%
%TO.N,GND*%
X127580000Y-107580000D03*
D12*
%TO.P,R6,2*%
%TO.N,Net-(U2C--)*%
X127580000Y-97420000D03*
%TD*%
D19*
%TO.P,GND1,1*%
%TO.N,N/C*%
X71750000Y-116500000D03*
%TD*%
D11*
%TO.P,C5,1*%
%TO.N,+12V*%
X98580000Y-82500000D03*
%TO.P,C5,2*%
%TO.N,GND*%
X98580000Y-87500000D03*
%TD*%
%TO.P,R9,1*%
%TO.N,Net-(R12-Pad1)*%
X128080000Y-74580000D03*
D12*
%TO.P,R9,2*%
%TO.N,Net-(J18-Pin_1)*%
X128080000Y-64420000D03*
%TD*%
D11*
%TO.P,R4,1*%
%TO.N,Net-(R18-Pad2)*%
X86660000Y-118000000D03*
D12*
%TO.P,R4,2*%
%TO.N,Net-(J17-Pin_1)*%
X76500000Y-118000000D03*
%TD*%
D10*
%TO.P,J14,1,Pin_1*%
%TO.N,Net-(J14-Pin_1)*%
X102192500Y-59500000D03*
%TD*%
D13*
%TO.P,U1,1,GND*%
%TO.N,GND*%
X101960000Y-113380000D03*
D11*
%TO.P,U1,2,TR*%
%TO.N,Net-(U1-THR)*%
X101960000Y-115920000D03*
%TO.P,U1,3,Q*%
%TO.N,Net-(U1-Q)*%
X101960000Y-118460000D03*
%TO.P,U1,4,R*%
%TO.N,Net-(Q3-C)*%
X101960000Y-121000000D03*
%TO.P,U1,5,CV*%
%TO.N,Net-(U1-CV)*%
X109580000Y-121000000D03*
%TO.P,U1,6,THR*%
%TO.N,Net-(U1-THR)*%
X109580000Y-118460000D03*
%TO.P,U1,7,DIS*%
%TO.N,Net-(U1-DIS)*%
X109580000Y-115920000D03*
%TO.P,U1,8,VCC*%
%TO.N,+12V*%
X109580000Y-113380000D03*
%TD*%
%TO.P,C4,1*%
%TO.N,Net-(U3C-+)*%
X126080000Y-92000000D03*
%TO.P,C4,2*%
%TO.N,GND*%
X126080000Y-87000000D03*
%TD*%
%TO.P,R16,1*%
%TO.N,Net-(U2C--)*%
X131580000Y-97500000D03*
D12*
%TO.P,R16,2*%
%TO.N,+12V*%
X131580000Y-107660000D03*
%TD*%
D24*
%TO.P,MH1,1*%
%TO.N,N/C*%
X72000000Y-61000000D03*
%TD*%
D11*
%TO.P,R2,1*%
%TO.N,Net-(R1-Pad3)*%
X81080000Y-69920000D03*
D12*
%TO.P,R2,2*%
%TO.N,GND*%
X81080000Y-80080000D03*
%TD*%
D10*
%TO.P,J16,1,Pin_1*%
%TO.N,Net-(J16-Pin_1)*%
X71580000Y-126750000D03*
%TD*%
D17*
%TO.P,Q2,1,E*%
%TO.N,Net-(Q1-E)*%
X86540000Y-85000000D03*
D18*
%TO.P,Q2,2,B*%
%TO.N,Net-(Q2-B)*%
X87810000Y-85000000D03*
%TO.P,Q2,3,C*%
%TO.N,Net-(Q2-C)*%
X89080000Y-85000000D03*
%TD*%
D23*
%TO.P,R1,1,1*%
%TO.N,Net-(R1-Pad1)*%
X87850000Y-77540000D03*
%TO.P,R1,2,2*%
%TO.N,Net-(Q2-B)*%
X85310000Y-75000000D03*
%TO.P,R1,3,3*%
%TO.N,Net-(R1-Pad3)*%
X87850000Y-72460000D03*
%TD*%
D11*
%TO.P,R54,1*%
%TO.N,Net-(J13-Pin_1)*%
X106648800Y-59420000D03*
D12*
%TO.P,R54,2*%
%TO.N,Net-(U3A--)*%
X106648800Y-69580000D03*
%TD*%
D11*
%TO.P,R27,1*%
%TO.N,Net-(R27-Pad1)*%
X172080000Y-73920000D03*
D12*
%TO.P,R27,2*%
%TO.N,Net-(R24-Pad1)*%
X172080000Y-84080000D03*
%TD*%
D11*
%TO.P,R48,1*%
%TO.N,Net-(J15-Pin_1)*%
X76500000Y-121500000D03*
D12*
%TO.P,R48,2*%
%TO.N,Net-(Q1-C)*%
X86660000Y-121500000D03*
%TD*%
D11*
%TO.P,R12,1*%
%TO.N,Net-(R12-Pad1)*%
X124580000Y-72920000D03*
D12*
%TO.P,R12,2*%
%TO.N,Net-(U4D-+)*%
X124580000Y-83080000D03*
%TD*%
D24*
%TO.P,MH4,1*%
%TO.N,N/C*%
X175000000Y-61250000D03*
%TD*%
D11*
%TO.P,C3,1*%
%TO.N,Net-(U1-CV)*%
X114580000Y-122000000D03*
%TO.P,C3,2*%
%TO.N,GND*%
X114580000Y-127000000D03*
%TD*%
%TO.P,R47,1*%
%TO.N,Net-(J19-Pin_1)*%
X162350000Y-134540000D03*
D12*
%TO.P,R47,2*%
%TO.N,Net-(U4C--)*%
X152190000Y-134540000D03*
%TD*%
D11*
%TO.P,R26,1*%
%TO.N,Net-(R12-Pad1)*%
X164080000Y-83500000D03*
D12*
%TO.P,R26,2*%
%TO.N,Net-(R25-Pad1)*%
X164080000Y-73340000D03*
%TD*%
D13*
%TO.P,U4,1*%
%TO.N,Net-(R18-Pad2)*%
X140270000Y-109880000D03*
D11*
%TO.P,U4,2,-*%
%TO.N,Net-(U4A--)*%
X140270000Y-112420000D03*
%TO.P,U4,3,+*%
%TO.N,Net-(U1-DIS)*%
X140270000Y-114960000D03*
%TO.P,U4,4,V+*%
%TO.N,+12V*%
X140270000Y-117500000D03*
%TO.P,U4,5,+*%
%TO.N,GND*%
X140270000Y-120040000D03*
%TO.P,U4,6,-*%
%TO.N,Net-(U4B--)*%
X140270000Y-122580000D03*
%TO.P,U4,7*%
%TO.N,Net-(R19-Pad2)*%
X140270000Y-125120000D03*
%TO.P,U4,8*%
%TO.N,Net-(U4D--)*%
X147890000Y-125120000D03*
%TO.P,U4,9,-*%
%TO.N,Net-(U4C--)*%
X147890000Y-122580000D03*
%TO.P,U4,10,+*%
%TO.N,GND*%
X147890000Y-120040000D03*
%TO.P,U4,11,V-*%
%TO.N,-12V*%
X147890000Y-117500000D03*
%TO.P,U4,12,+*%
%TO.N,Net-(U4D-+)*%
X147890000Y-114960000D03*
%TO.P,U4,13,-*%
%TO.N,Net-(U4D--)*%
X147890000Y-112420000D03*
%TO.P,U4,14*%
%TO.N,Net-(R13-Pad1)*%
X147890000Y-109880000D03*
%TD*%
%TO.P,C6,1*%
%TO.N,GND*%
X113080000Y-87500000D03*
%TO.P,C6,2*%
%TO.N,-12V*%
X113080000Y-82500000D03*
%TD*%
D23*
%TO.P,R37,1,1*%
%TO.N,-12V*%
X142080000Y-97420000D03*
%TO.P,R37,2,2*%
%TO.N,Net-(R37-Pad2)*%
X142080000Y-99960000D03*
%TO.P,R37,3,3*%
%TO.N,+12V*%
X142080000Y-102500000D03*
%TD*%
D11*
%TO.P,R45,1*%
%TO.N,Net-(U4C--)*%
X152190000Y-131040000D03*
D12*
%TO.P,R45,2*%
%TO.N,Net-(U4D--)*%
X162350000Y-131040000D03*
%TD*%
D11*
%TO.P,R23,1*%
%TO.N,Net-(Q1-E)*%
X76080000Y-80580000D03*
D12*
%TO.P,R23,2*%
%TO.N,Net-(D1-A)*%
X76080000Y-70420000D03*
%TD*%
D23*
%TO.P,R24,1,1*%
%TO.N,Net-(R24-Pad1)*%
X174080000Y-97420000D03*
%TO.P,R24,2,2*%
%TO.N,unconnected-(R24-Pad2)*%
X174080000Y-99960000D03*
%TO.P,R24,3,3*%
%TO.N,+12V*%
X174080000Y-102500000D03*
%TD*%
D10*
%TO.P,J19,1,Pin_1*%
%TO.N,Net-(J19-Pin_1)*%
X165750000Y-136000000D03*
%TD*%
%TO.P,J20,1,Pin_1*%
%TO.N,Net-(J20-Pin_1)*%
X176080000Y-127500000D03*
%TD*%
D13*
%TO.P,D2,1,K*%
%TO.N,Net-(D2-K)*%
X86080000Y-135810000D03*
D12*
%TO.P,D2,2,A*%
%TO.N,GND*%
X86080000Y-128190000D03*
%TD*%
D24*
%TO.P,MH2,1*%
%TO.N,N/C*%
X72000000Y-135000000D03*
%TD*%
D13*
%TO.P,C14,1*%
%TO.N,GND*%
X88000000Y-107500000D03*
D11*
%TO.P,C14,2*%
%TO.N,-12V*%
X88000000Y-112500000D03*
%TD*%
%TO.P,R34,1*%
%TO.N,Net-(R12-Pad1)*%
X156080000Y-84080000D03*
D12*
%TO.P,R34,2*%
%TO.N,Net-(U2A--)*%
X156080000Y-73920000D03*
%TD*%
D11*
%TO.P,C9,1*%
%TO.N,+12V*%
X136580000Y-117500000D03*
%TO.P,C9,2*%
%TO.N,GND*%
X136580000Y-122500000D03*
%TD*%
D10*
%TO.P,J18,1,Pin_1*%
%TO.N,Net-(J18-Pin_1)*%
X143080000Y-60000000D03*
%TD*%
D19*
%TO.P,power2,1*%
%TO.N,+12V*%
X176000000Y-114500000D03*
D20*
%TO.P,power2,2*%
%TO.N,-12V*%
X176000000Y-116500000D03*
%TD*%
D11*
%TO.P,R13,1*%
%TO.N,Net-(R13-Pad1)*%
X166580000Y-110420000D03*
D12*
%TO.P,R13,2*%
%TO.N,Net-(J22-Pin_1)*%
X166580000Y-120580000D03*
%TD*%
D11*
%TO.P,R19,1*%
%TO.N,Net-(U4A--)*%
X97500000Y-131500000D03*
D12*
%TO.P,R19,2*%
%TO.N,Net-(R19-Pad2)*%
X107660000Y-131500000D03*
%TD*%
D19*
%TO.P,GND3,1*%
%TO.N,N/C*%
X176250000Y-67250000D03*
%TD*%
D13*
%TO.P,U2,1*%
%TO.N,Net-(Q2-C)*%
X140080000Y-68260000D03*
D11*
%TO.P,U2,2,DIODE_BIAS*%
%TO.N,unconnected-(U2C-DIODE_BIAS-Pad2)*%
X140080000Y-70800000D03*
%TO.P,U2,3,+*%
%TO.N,Net-(U2C-+)*%
X140080000Y-73340000D03*
%TO.P,U2,4,-*%
%TO.N,Net-(U2C--)*%
X140080000Y-75880000D03*
%TO.P,U2,5*%
%TO.N,Net-(U3C-+)*%
X140080000Y-78420000D03*
%TO.P,U2,6,V-*%
%TO.N,-12V*%
X140080000Y-80960000D03*
%TO.P,U2,7*%
%TO.N,unconnected-(U2-Pad7)*%
X140080000Y-83500000D03*
%TO.P,U2,8*%
%TO.N,unconnected-(U2-Pad8)*%
X140080000Y-86040000D03*
%TO.P,U2,9*%
%TO.N,Net-(R5-Pad1)*%
X147700000Y-86040000D03*
%TO.P,U2,10*%
%TO.N,Net-(R25-Pad1)*%
X147700000Y-83500000D03*
%TO.P,U2,11,V+*%
%TO.N,+12V*%
X147700000Y-80960000D03*
%TO.P,U2,12*%
%TO.N,Net-(R25-Pad1)*%
X147700000Y-78420000D03*
%TO.P,U2,13,-*%
%TO.N,Net-(U2A--)*%
X147700000Y-75880000D03*
%TO.P,U2,14,+*%
%TO.N,GND*%
X147700000Y-73340000D03*
%TO.P,U2,15,DIODE_BIAS*%
%TO.N,unconnected-(U2A-DIODE_BIAS-Pad15)*%
X147700000Y-70800000D03*
%TO.P,U2,16*%
%TO.N,Net-(R27-Pad1)*%
X147700000Y-68260000D03*
%TD*%
%TO.P,R8,1*%
%TO.N,Net-(J22-Pin_1)*%
X170580000Y-120580000D03*
D12*
%TO.P,R8,2*%
%TO.N,GND*%
X170580000Y-110420000D03*
%TD*%
D25*
%TO.P,R36,1,1*%
%TO.N,Net-(D1-K)*%
X81500000Y-66500000D03*
%TO.P,R36,2,2*%
%TO.N,Net-(R36-Pad2)*%
X86500000Y-64000000D03*
%TO.P,R36,3,3*%
%TO.N,GND*%
X81500000Y-61500000D03*
%TD*%
D26*
%TO.N,-12V*%
X126139400Y-82140400D02*
X135939600Y-82140400D01*
X125432600Y-81433600D02*
X126139400Y-82140400D01*
X114146400Y-81433600D02*
X125432600Y-81433600D01*
X135939600Y-82140400D02*
X137080000Y-81000000D01*
X113080000Y-82500000D02*
X114146400Y-81433600D01*
X109750000Y-82500000D02*
X113080000Y-82500000D01*
X109580000Y-82420000D02*
X109670000Y-82420000D01*
X109670000Y-82420000D02*
X109750000Y-82500000D01*
X105673900Y-86076100D02*
X75076100Y-86076100D01*
X109580000Y-82420000D02*
X109330000Y-82420000D01*
X109330000Y-82420000D02*
X105673900Y-86076100D01*
%TO.N,+12V*%
X111750000Y-96000000D02*
X110750000Y-97000000D01*
X111750000Y-92026400D02*
X111750000Y-96000000D01*
X113616400Y-90160000D02*
X111750000Y-92026400D01*
X120080000Y-90160000D02*
X113616400Y-90160000D01*
X110750000Y-97000000D02*
X107830000Y-97000000D01*
X106830000Y-96000000D02*
X107830000Y-97000000D01*
X78120000Y-96000000D02*
X106830000Y-96000000D01*
X75620000Y-98500000D02*
X78120000Y-96000000D01*
%TO.N,Net-(D1-A)*%
X100750000Y-91250000D02*
X96000000Y-91250000D01*
X100750000Y-91250000D02*
X101960000Y-90040000D01*
%TO.N,Net-(J16-Pin_1)*%
X78000000Y-129500000D02*
X74330000Y-129500000D01*
X74330000Y-129500000D02*
X71580000Y-126750000D01*
%TO.N,Net-(U1-CV)*%
X110580000Y-122000000D02*
X109580000Y-121000000D01*
X114580000Y-122000000D02*
X110580000Y-122000000D01*
%TO.N,GND*%
X110500000Y-105000000D02*
X105330000Y-99830000D01*
X105330000Y-99830000D02*
X105330000Y-97000000D01*
X123580000Y-107580000D02*
X121000000Y-105000000D01*
X121000000Y-105000000D02*
X110500000Y-105000000D01*
%TO.N,Net-(U3C-+)*%
X111018300Y-86398300D02*
X109580000Y-84960000D01*
X126080000Y-92000000D02*
X120478300Y-86398300D01*
X120478300Y-86398300D02*
X111018300Y-86398300D01*
%TO.N,+12V*%
X174080000Y-102500000D02*
X169000000Y-97420000D01*
X137841700Y-102500000D02*
X132681700Y-107660000D01*
X151540000Y-80960000D02*
X151580000Y-81000000D01*
X98580000Y-82500000D02*
X101880000Y-82500000D01*
X169000000Y-97420000D02*
X165080000Y-97420000D01*
X142080000Y-102500000D02*
X137841700Y-102500000D01*
X101880000Y-82500000D02*
X101960000Y-82420000D01*
X136580000Y-117500000D02*
X140270000Y-117500000D01*
X75620000Y-98500000D02*
X73080000Y-98500000D01*
X147700000Y-80960000D02*
X151540000Y-80960000D01*
X131580000Y-107660000D02*
X132681700Y-107660000D01*
%TO.N,-12V*%
X73080000Y-108660000D02*
X71924600Y-107504600D01*
X140080000Y-80960000D02*
X138997100Y-80960000D01*
X85080000Y-112500000D02*
X88000000Y-112500000D01*
X73080000Y-108660000D02*
X75620000Y-108660000D01*
X81240000Y-108660000D02*
X85080000Y-112500000D01*
X138957100Y-81000000D02*
X137080000Y-81000000D01*
X71924600Y-107504600D02*
X71924600Y-89227600D01*
X154960100Y-118619900D02*
X156080000Y-117500000D01*
X138997100Y-80960000D02*
X138957100Y-81000000D01*
X138957100Y-81000000D02*
X138957100Y-94297100D01*
X75620000Y-108660000D02*
X81240000Y-108660000D01*
X71924600Y-89227600D02*
X75076100Y-86076100D01*
X138957100Y-94297100D02*
X142080000Y-97420000D01*
X75076100Y-86076100D02*
X73000000Y-84000000D01*
X149009900Y-118619900D02*
X154960100Y-118619900D01*
X147890000Y-117500000D02*
X149009900Y-118619900D01*
%TO.N,Net-(D2-K)*%
X91580000Y-134270000D02*
X88721700Y-134270000D01*
X83331700Y-135810000D02*
X83181700Y-135660000D01*
X86080000Y-135810000D02*
X87181700Y-135810000D01*
X82080000Y-135660000D02*
X83181700Y-135660000D01*
X86080000Y-135810000D02*
X83331700Y-135810000D01*
X88721700Y-134270000D02*
X87181700Y-135810000D01*
%TO.N,Net-(J11-Pin_1)*%
X124573800Y-59420000D02*
X129000000Y-59420000D01*
X129000000Y-59420000D02*
X129080000Y-59500000D01*
%TO.N,Net-(J12-Pin_1)*%
X120037500Y-59420000D02*
X120117500Y-59500000D01*
X115611300Y-59420000D02*
X120037500Y-59420000D01*
%TO.N,Net-(J13-Pin_1)*%
X106648800Y-59420000D02*
X111075000Y-59420000D01*
X111075000Y-59420000D02*
X111155000Y-59500000D01*
%TO.N,Net-(J14-Pin_1)*%
X97686300Y-59420000D02*
X102112500Y-59420000D01*
X102112500Y-59420000D02*
X102192500Y-59500000D01*
%TO.N,Net-(J15-Pin_1)*%
X76500000Y-121500000D02*
X73580000Y-121500000D01*
X73580000Y-121500000D02*
X71580000Y-123500000D01*
%TO.N,Net-(J17-Pin_1)*%
X71580000Y-119500000D02*
X73898300Y-119500000D01*
X76500000Y-118000000D02*
X75398300Y-118000000D01*
X73898300Y-119500000D02*
X75398300Y-118000000D01*
%TO.N,Net-(J18-Pin_1)*%
X128080000Y-64420000D02*
X132580000Y-64420000D01*
X138660000Y-64420000D02*
X143080000Y-60000000D01*
X132580000Y-64420000D02*
X138660000Y-64420000D01*
%TO.N,Net-(J19-Pin_1)*%
X163810000Y-136000000D02*
X162350000Y-134540000D01*
X165750000Y-136000000D02*
X163810000Y-136000000D01*
%TO.N,Net-(J20-Pin_1)*%
X176080000Y-127500000D02*
X162390000Y-127500000D01*
X162390000Y-127500000D02*
X162350000Y-127540000D01*
%TO.N,Net-(J21-Pin_1)*%
X170580000Y-69000000D02*
X174580000Y-69000000D01*
X174580000Y-69000000D02*
X176080000Y-70500000D01*
%TO.N,Net-(J22-Pin_1)*%
X176000000Y-120580000D02*
X176080000Y-120500000D01*
X170580000Y-120580000D02*
X176000000Y-120580000D01*
X166580000Y-120580000D02*
X170580000Y-120580000D01*
%TO.N,Net-(Q1-E)*%
X86540000Y-83790000D02*
X86540000Y-85000000D01*
X76964300Y-81464300D02*
X84214300Y-81464300D01*
X76080000Y-80580000D02*
X76964300Y-81464300D01*
X84214300Y-81464300D02*
X86540000Y-83790000D01*
%TO.N,Net-(Q2-C)*%
X100261800Y-76070000D02*
X91331800Y-85000000D01*
X91331800Y-85000000D02*
X89080000Y-85000000D01*
X140080000Y-68260000D02*
X138978300Y-68260000D01*
X119308300Y-76070000D02*
X100261800Y-76070000D01*
X138978300Y-68260000D02*
X136235200Y-71003100D01*
X136235200Y-71003100D02*
X124375200Y-71003100D01*
X124375200Y-71003100D02*
X119308300Y-76070000D01*
%TO.N,Net-(R1-Pad3)*%
X87850000Y-72460000D02*
X83620000Y-72460000D01*
X83620000Y-72460000D02*
X81080000Y-69920000D01*
%TO.N,Net-(R1-Pad1)*%
X93080000Y-80190000D02*
X91978300Y-80190000D01*
X93080000Y-80190000D02*
X94181700Y-80190000D01*
X87850000Y-77540000D02*
X89328300Y-77540000D01*
X101960000Y-74800000D02*
X99571700Y-74800000D01*
X99571700Y-74800000D02*
X94181700Y-80190000D01*
X89328300Y-77540000D02*
X91978300Y-80190000D01*
%TO.N,Net-(U2A--)*%
X147700000Y-75880000D02*
X149660000Y-73920000D01*
X149660000Y-73920000D02*
X156080000Y-73920000D01*
%TO.N,Net-(R18-Pad2)*%
X140270000Y-109880000D02*
X139168300Y-109880000D01*
X96580000Y-116420000D02*
X88240000Y-116420000D01*
X137528100Y-111520200D02*
X130394400Y-111520200D01*
X139168300Y-109880000D02*
X137528100Y-111520200D01*
X88240000Y-116420000D02*
X86660000Y-118000000D01*
X100829900Y-119568200D02*
X97681700Y-116420000D01*
X130394400Y-111520200D02*
X122346400Y-119568200D01*
X122346400Y-119568200D02*
X100829900Y-119568200D01*
X96580000Y-116420000D02*
X97681700Y-116420000D01*
%TO.N,Net-(R5-Pad1)*%
X147700000Y-86040000D02*
X147700000Y-89700000D01*
X147700000Y-89700000D02*
X151000000Y-93000000D01*
%TO.N,Net-(U2C-+)*%
X123580000Y-97420000D02*
X119080000Y-97420000D01*
%TO.N,Net-(R12-Pad1)*%
X114598300Y-74800000D02*
X114978300Y-74420000D01*
X143138400Y-79690000D02*
X145678400Y-82230000D01*
X116080000Y-74420000D02*
X114978300Y-74420000D01*
X145678400Y-82230000D02*
X154230000Y-82230000D01*
X133190000Y-79690000D02*
X143138400Y-79690000D01*
X156660000Y-83500000D02*
X164080000Y-83500000D01*
X128080000Y-74580000D02*
X133190000Y-79690000D01*
X156080000Y-84080000D02*
X156660000Y-83500000D01*
X109580000Y-74800000D02*
X114598300Y-74800000D01*
X154230000Y-82230000D02*
X156080000Y-84080000D01*
%TO.N,Net-(U3A--)*%
X106648800Y-69580000D02*
X115611300Y-69580000D01*
X115611300Y-69580000D02*
X123472100Y-69580000D01*
X106648800Y-69580000D02*
X97686300Y-69580000D01*
X124573800Y-69580000D02*
X123472100Y-69580000D01*
X93500000Y-69580000D02*
X97686300Y-69580000D01*
%TO.N,Net-(U4D-+)*%
X147890000Y-114960000D02*
X144155400Y-111225400D01*
X147890000Y-114960000D02*
X155460000Y-114960000D01*
X144155400Y-111225400D02*
X144155400Y-100560700D01*
X126181700Y-83080000D02*
X124580000Y-83080000D01*
X144155400Y-100560700D02*
X142284700Y-98690000D01*
X142284700Y-98690000D02*
X141791700Y-98690000D01*
X155460000Y-114960000D02*
X161080000Y-120580000D01*
X141791700Y-98690000D02*
X126181700Y-83080000D01*
%TO.N,Net-(R13-Pad1)*%
X159438300Y-109880000D02*
X159978300Y-110420000D01*
X147890000Y-109880000D02*
X159438300Y-109880000D01*
X161080000Y-110420000D02*
X166580000Y-110420000D01*
X161080000Y-110420000D02*
X159978300Y-110420000D01*
%TO.N,Net-(U4A--)*%
X131600400Y-112420000D02*
X119225400Y-124795000D01*
X98365000Y-124795000D02*
X96580000Y-126580000D01*
X140270000Y-112420000D02*
X131600400Y-112420000D01*
X119225400Y-124795000D02*
X98365000Y-124795000D01*
%TO.N,Net-(R19-Pad2)*%
X107660000Y-131500000D02*
X111000000Y-131500000D01*
X136281600Y-132616700D02*
X113218400Y-132616700D01*
X139000000Y-131000000D02*
X137898300Y-131000000D01*
X113218400Y-132616700D02*
X112101700Y-131500000D01*
X111000000Y-131500000D02*
X112101700Y-131500000D01*
X137898300Y-131000000D02*
X136281600Y-132616700D01*
%TO.N,Net-(U3D--)*%
X119820000Y-77340000D02*
X120080000Y-77080000D01*
X109580000Y-77340000D02*
X119820000Y-77340000D01*
%TO.N,Net-(R25-Pad1)*%
X151000000Y-86800000D02*
X151000000Y-89500000D01*
X160958600Y-73340000D02*
X164080000Y-73340000D01*
X147700000Y-78420000D02*
X155878600Y-78420000D01*
X147700000Y-83500000D02*
X151000000Y-86800000D01*
X155878600Y-78420000D02*
X160958600Y-73340000D01*
%TO.N,Net-(R27-Pad1)*%
X159463600Y-71206900D02*
X169366900Y-71206900D01*
X156516700Y-68260000D02*
X159463600Y-71206900D01*
X169366900Y-71206900D02*
X172080000Y-73920000D01*
X147700000Y-68260000D02*
X156516700Y-68260000D01*
%TO.N,Net-(U1-THR)*%
X107040000Y-115920000D02*
X109580000Y-118460000D01*
X117620000Y-110420000D02*
X125080000Y-110420000D01*
X101960000Y-115920000D02*
X107040000Y-115920000D01*
X109580000Y-118460000D02*
X117620000Y-110420000D01*
%TO.N,Net-(U4B--)*%
X138190000Y-120500000D02*
X132080000Y-120500000D01*
X129761700Y-120500000D02*
X129681700Y-120580000D01*
X132080000Y-120500000D02*
X129761700Y-120500000D01*
X128580000Y-120580000D02*
X125080000Y-120580000D01*
X140270000Y-122580000D02*
X138190000Y-120500000D01*
X128580000Y-120580000D02*
X129681700Y-120580000D01*
%TO.N,Net-(U4C--)*%
X152190000Y-127540000D02*
X152190000Y-126438300D01*
X151748300Y-126438300D02*
X152190000Y-126438300D01*
X147890000Y-122580000D02*
X151748300Y-126438300D01*
%TO.N,Net-(R37-Pad2)*%
X128580000Y-109032500D02*
X128580000Y-110420000D01*
X142080000Y-99960000D02*
X137652500Y-99960000D01*
X137652500Y-99960000D02*
X128580000Y-109032500D01*
%TD*%
M02*
