M48
; DRILL file {KiCad 8.0.5} date 2024-10-15T14:44:57+0200
; FORMAT={-:-/ absolute / inch / decimal}
; #@! TF.CreationDate,2024-10-15T14:44:57+02:00
; #@! TF.GenerationSoftware,Kicad,Pcbnew,8.0.5
; #@! TF.FileFunction,Plated,1,2,PTH
FMAT,2
INCH
; #@! TA.AperFunction,Plated,PTH,ComponentDrill
T1C0.0276
; #@! TA.AperFunction,Plated,PTH,ComponentDrill
T2C0.0295
; #@! TA.AperFunction,Plated,PTH,ComponentDrill
T3C0.0315
; #@! TA.AperFunction,Plated,PTH,ComponentDrill
T4C0.0354
; #@! TA.AperFunction,Plated,PTH,ComponentDrill
T5C0.0394
; #@! TA.AperFunction,Plated,PTH,ComponentDrill
T6C0.1260
%
G90
G05
T1
X2.8181Y-4.7047
X2.8181Y-4.8622
X2.8181Y-4.9902
X4.0233Y-2.3425
X4.1469Y-3.8189
X4.2453Y-3.8189
X4.3762Y-2.3425
X4.729Y-2.3425
X5.0819Y-2.3425
X5.6331Y-2.3622
X6.5256Y-5.3543
X6.9323Y-2.7756
X6.9323Y-4.7441
X6.9323Y-5.0197
T2
X3.4071Y-3.3465
X3.4071Y-3.5236
X3.4571Y-3.3465
X3.4571Y-3.5236
X3.5071Y-3.3465
X3.5071Y-3.5236
X3.6055Y-5.2362
X3.6055Y-5.2862
X3.6055Y-5.3362
T3
X2.8248Y-4.5866
X2.874Y-3.3071
X2.9953Y-2.7724
X2.9953Y-3.1724
X3.0118Y-4.6457
X3.0118Y-4.7835
X3.1004Y-2.3402
X3.1004Y-2.6402
X3.1921Y-2.7528
X3.1921Y-3.1528
X3.2315Y-4.9409
X3.2315Y-5.3409
X3.274Y-3.3071
X3.3587Y-2.9528
X3.389Y-5.0469
X3.389Y-5.3469
X3.4118Y-4.6457
X3.4118Y-4.7835
X3.4587Y-2.8528
X3.4587Y-3.0528
X3.4646Y-3.7795
X3.4646Y-3.9764
X3.4646Y-4.2323
X3.4646Y-4.4291
X3.5335Y-2.3425
X3.6252Y-4.6622
X3.6252Y-5.0622
X3.6646Y-3.1571
X3.6646Y-3.4571
X3.6811Y-2.3394
X3.6811Y-2.7394
X3.7795Y-3.5925
X3.7795Y-3.8878
X3.8024Y-4.5835
X3.8024Y-4.9835
X3.8386Y-5.1772
X3.8459Y-2.3394
X3.8459Y-2.7394
X3.8811Y-3.248
X3.8811Y-3.4449
X4.0142Y-2.9449
X4.0142Y-3.0449
X4.0142Y-3.1449
X4.0142Y-3.2449
X4.0142Y-3.3449
X4.0142Y-3.4449
X4.0142Y-3.5449
X4.0142Y-4.4638
X4.0142Y-4.5638
X4.0142Y-4.6638
X4.0142Y-4.7638
X4.1988Y-2.3394
X4.1988Y-2.7394
X4.2386Y-5.1772
X4.3142Y-2.9449
X4.3142Y-3.0449
X4.3142Y-3.1449
X4.3142Y-3.2449
X4.3142Y-3.3449
X4.3142Y-3.4449
X4.3142Y-3.5449
X4.3142Y-4.4638
X4.3142Y-4.5638
X4.3142Y-4.6638
X4.3142Y-4.7638
X4.3701Y-5.1772
X4.452Y-3.248
X4.452Y-3.4449
X4.511Y-4.8031
X4.511Y-5.0
X4.5516Y-2.3394
X4.5516Y-2.7394
X4.5701Y-2.9299
X4.5701Y-3.3299
X4.6882Y-3.8354
X4.6882Y-4.2354
X4.7276Y-2.6346
X4.7276Y-3.0346
X4.7276Y-3.1496
X4.7276Y-3.5496
X4.7701Y-5.1772
X4.8654Y-3.8354
X4.8654Y-4.2354
X4.9045Y-2.3394
X4.9045Y-2.7394
X4.9047Y-2.8709
X4.9047Y-3.2709
X4.9244Y-4.3472
X4.9244Y-4.7472
X4.9638Y-3.4252
X4.9638Y-3.622
X5.0228Y-3.8354
X5.0228Y-4.2354
X5.0425Y-2.5362
X5.0425Y-2.9362
X5.0622Y-4.3472
X5.0622Y-4.7472
X5.1803Y-3.8386
X5.1803Y-4.2386
X5.2Y-3.189
X5.2Y-4.3441
X5.2Y-4.7441
X5.2197Y-2.5362
X5.2197Y-2.9362
X5.2657Y-2.3524
X5.3445Y-2.3524
X5.3772Y-4.626
X5.3772Y-4.8228
X5.3969Y-3.189
X5.4232Y-2.3524
X5.4724Y-5.1575
X5.515Y-2.6874
X5.515Y-2.7874
X5.515Y-2.8874
X5.515Y-2.9874
X5.515Y-3.0874
X5.515Y-3.1874
X5.515Y-3.2874
X5.515Y-3.3874
X5.5224Y-4.326
X5.5224Y-4.426
X5.5224Y-4.526
X5.5224Y-4.626
X5.5224Y-4.726
X5.5224Y-4.826
X5.5224Y-4.926
X5.5937Y-3.8354
X5.5937Y-3.9354
X5.5937Y-4.0354
X5.815Y-2.6874
X5.815Y-2.7874
X5.815Y-2.8874
X5.815Y-2.9874
X5.815Y-3.0874
X5.815Y-3.1874
X5.815Y-3.2874
X5.815Y-3.3874
X5.8224Y-4.326
X5.8224Y-4.426
X5.8224Y-4.526
X5.8224Y-4.626
X5.8224Y-4.726
X5.8224Y-4.826
X5.8224Y-4.926
X5.8724Y-5.1575
X5.9449Y-3.5236
X5.9449Y-3.6614
X5.948Y-4.626
X5.9677Y-2.9921
X5.9677Y-3.189
X5.9917Y-5.0213
X5.9917Y-5.1591
X5.9917Y-5.2969
X6.1449Y-2.3984
X6.1449Y-2.7984
X6.1449Y-2.9102
X6.1449Y-3.3102
X6.1449Y-4.626
X6.3024Y-2.989
X6.3024Y-3.389
X6.3157Y-2.7165
X6.3417Y-4.3472
X6.3417Y-4.7472
X6.3449Y-3.5236
X6.3449Y-3.6614
X6.3917Y-5.0213
X6.3917Y-5.1591
X6.3917Y-5.2969
X6.4598Y-2.8874
X6.4598Y-3.2874
X6.4992Y-3.8354
X6.4992Y-4.0354
X6.5583Y-4.3472
X6.5583Y-4.7472
X6.5992Y-3.9354
X6.6732Y-5.3543
X6.7157Y-2.7165
X6.7157Y-4.3472
X6.7157Y-4.7472
X6.7748Y-2.9102
X6.7748Y-3.3102
X6.8535Y-3.8354
X6.8535Y-3.9354
X6.8535Y-4.0354
X6.9291Y-4.5079
X6.9291Y-4.5866
X6.939Y-2.6476
T4
X3.2087Y-2.4213
X3.2087Y-2.6181
X3.4055Y-2.5197
T5
X2.8772Y-3.878
X2.8772Y-3.978
X2.8772Y-4.078
X2.8772Y-4.178
X2.8772Y-4.278
X2.9772Y-3.878
X2.9772Y-3.978
X2.9772Y-4.078
X2.9772Y-4.178
X2.9772Y-4.278
X3.0709Y-5.0984
X3.0709Y-5.2953
T6
X2.8346Y-2.4016
X2.8346Y-5.315
X6.8898Y-2.4114
X6.8898Y-5.3051
M30
