%TF.GenerationSoftware,KiCad,Pcbnew,8.0.5*%
%TF.CreationDate,2024-10-15T14:44:56+02:00*%
%TF.ProjectId,VCO_555,56434f5f-3535-4352-9e6b-696361645f70,1.0*%
%TF.SameCoordinates,Original*%
%TF.FileFunction,Drillmap*%
%TF.FilePolarity,Positive*%
%FSLAX45Y45*%
G04 Gerber Fmt 4.5, Leading zero omitted, Abs format (unit mm)*
G04 Created by KiCad (PCBNEW 8.0.5) date 2024-10-15 14:44:56*
%MOMM*%
%LPD*%
G01*
G04 APERTURE LIST*
%ADD10C,0.050000*%
%ADD11C,0.200000*%
%ADD12C,0.100000*%
%ADD13C,0.320000*%
G04 APERTURE END LIST*
D10*
X6858000Y-5750000D02*
X17858000Y-5750000D01*
X17858000Y-13850000D01*
X6858000Y-13850000D01*
X6858000Y-5750000D01*
D11*
D12*
X7123000Y-11915000D02*
X7193000Y-11985000D01*
X7193000Y-11915000D02*
X7123000Y-11985000D01*
X7123000Y-12315000D02*
X7193000Y-12385000D01*
X7193000Y-12315000D02*
X7123000Y-12385000D01*
X7123000Y-12640000D02*
X7193000Y-12710000D01*
X7193000Y-12640000D02*
X7123000Y-12710000D01*
X10184250Y-5915000D02*
X10254250Y-5985000D01*
X10254250Y-5915000D02*
X10184250Y-5985000D01*
X10498000Y-9665000D02*
X10568000Y-9735000D01*
X10568000Y-9665000D02*
X10498000Y-9735000D01*
X10748000Y-9665000D02*
X10818000Y-9735000D01*
X10818000Y-9665000D02*
X10748000Y-9735000D01*
X11080500Y-5915000D02*
X11150500Y-5985000D01*
X11150500Y-5915000D02*
X11080500Y-5985000D01*
X11976750Y-5915000D02*
X12046750Y-5985000D01*
X12046750Y-5915000D02*
X11976750Y-5985000D01*
X12873000Y-5915000D02*
X12943000Y-5985000D01*
X12943000Y-5915000D02*
X12873000Y-5985000D01*
X14273000Y-5965000D02*
X14343000Y-6035000D01*
X14343000Y-5965000D02*
X14273000Y-6035000D01*
X16540000Y-13565000D02*
X16610000Y-13635000D01*
X16610000Y-13565000D02*
X16540000Y-13635000D01*
X17573000Y-7015000D02*
X17643000Y-7085000D01*
X17643000Y-7015000D02*
X17573000Y-7085000D01*
X17573000Y-12015000D02*
X17643000Y-12085000D01*
X17643000Y-12015000D02*
X17573000Y-12085000D01*
X17573000Y-12715000D02*
X17643000Y-12785000D01*
X17643000Y-12715000D02*
X17573000Y-12785000D01*
X8691500Y-8500000D02*
G75*
G02*
X8616500Y-8500000I-37500J0D01*
G01*
X8616500Y-8500000D02*
G75*
G02*
X8691500Y-8500000I37500J0D01*
G01*
X8691500Y-8950000D02*
G75*
G02*
X8616500Y-8950000I-37500J0D01*
G01*
X8616500Y-8950000D02*
G75*
G02*
X8691500Y-8950000I37500J0D01*
G01*
X8818500Y-8500000D02*
G75*
G02*
X8743500Y-8500000I-37500J0D01*
G01*
X8743500Y-8500000D02*
G75*
G02*
X8818500Y-8500000I37500J0D01*
G01*
X8818500Y-8950000D02*
G75*
G02*
X8743500Y-8950000I-37500J0D01*
G01*
X8743500Y-8950000D02*
G75*
G02*
X8818500Y-8950000I37500J0D01*
G01*
X8945500Y-8500000D02*
G75*
G02*
X8870500Y-8500000I-37500J0D01*
G01*
X8870500Y-8500000D02*
G75*
G02*
X8945500Y-8500000I37500J0D01*
G01*
X8945500Y-8950000D02*
G75*
G02*
X8870500Y-8950000I-37500J0D01*
G01*
X8870500Y-8950000D02*
G75*
G02*
X8945500Y-8950000I37500J0D01*
G01*
X9195500Y-13300000D02*
G75*
G02*
X9120500Y-13300000I-37500J0D01*
G01*
X9120500Y-13300000D02*
G75*
G02*
X9195500Y-13300000I37500J0D01*
G01*
X9195500Y-13427000D02*
G75*
G02*
X9120500Y-13427000I-37500J0D01*
G01*
X9120500Y-13427000D02*
G75*
G02*
X9195500Y-13427000I37500J0D01*
G01*
X9195500Y-13554000D02*
G75*
G02*
X9120500Y-13554000I-37500J0D01*
G01*
X9120500Y-13554000D02*
G75*
G02*
X9195500Y-13554000I37500J0D01*
G01*
X7175000Y-11610000D02*
X7175000Y-11690000D01*
X7135000Y-11650000D02*
X7215000Y-11650000D01*
X7300000Y-8360000D02*
X7300000Y-8440000D01*
X7260000Y-8400000D02*
X7340000Y-8400000D01*
X7608000Y-7002000D02*
X7608000Y-7082000D01*
X7568000Y-7042000D02*
X7648000Y-7042000D01*
X7608000Y-8018000D02*
X7608000Y-8098000D01*
X7568000Y-8058000D02*
X7648000Y-8058000D01*
X7650000Y-11760000D02*
X7650000Y-11840000D01*
X7610000Y-11800000D02*
X7690000Y-11800000D01*
X7650000Y-12110000D02*
X7650000Y-12190000D01*
X7610000Y-12150000D02*
X7690000Y-12150000D01*
X7875000Y-5904000D02*
X7875000Y-5984000D01*
X7835000Y-5944000D02*
X7915000Y-5944000D01*
X7875000Y-6666000D02*
X7875000Y-6746000D01*
X7835000Y-6706000D02*
X7915000Y-6706000D01*
X8108000Y-6952000D02*
X8108000Y-7032000D01*
X8068000Y-6992000D02*
X8148000Y-6992000D01*
X8108000Y-7968000D02*
X8108000Y-8048000D01*
X8068000Y-8008000D02*
X8148000Y-8008000D01*
X8208000Y-12510000D02*
X8208000Y-12590000D01*
X8168000Y-12550000D02*
X8248000Y-12550000D01*
X8208000Y-13526000D02*
X8208000Y-13606000D01*
X8168000Y-13566000D02*
X8248000Y-13566000D01*
X8316000Y-8360000D02*
X8316000Y-8440000D01*
X8276000Y-8400000D02*
X8356000Y-8400000D01*
X8531000Y-7460000D02*
X8531000Y-7540000D01*
X8491000Y-7500000D02*
X8571000Y-7500000D01*
X8608000Y-12779000D02*
X8608000Y-12859000D01*
X8568000Y-12819000D02*
X8648000Y-12819000D01*
X8608000Y-13541000D02*
X8608000Y-13621000D01*
X8568000Y-13581000D02*
X8648000Y-13581000D01*
X8666000Y-11760000D02*
X8666000Y-11840000D01*
X8626000Y-11800000D02*
X8706000Y-11800000D01*
X8666000Y-12110000D02*
X8666000Y-12190000D01*
X8626000Y-12150000D02*
X8706000Y-12150000D01*
X8785000Y-7206000D02*
X8785000Y-7286000D01*
X8745000Y-7246000D02*
X8825000Y-7246000D01*
X8785000Y-7714000D02*
X8785000Y-7794000D01*
X8745000Y-7754000D02*
X8825000Y-7754000D01*
X8800000Y-9560000D02*
X8800000Y-9640000D01*
X8760000Y-9600000D02*
X8840000Y-9600000D01*
X8800000Y-10060000D02*
X8800000Y-10140000D01*
X8760000Y-10100000D02*
X8840000Y-10100000D01*
X8800000Y-10710000D02*
X8800000Y-10790000D01*
X8760000Y-10750000D02*
X8840000Y-10750000D01*
X8800000Y-11210000D02*
X8800000Y-11290000D01*
X8760000Y-11250000D02*
X8840000Y-11250000D01*
X8975000Y-5910000D02*
X8975000Y-5990000D01*
X8935000Y-5950000D02*
X9015000Y-5950000D01*
X9208000Y-11802000D02*
X9208000Y-11882000D01*
X9168000Y-11842000D02*
X9248000Y-11842000D01*
X9208000Y-12818000D02*
X9208000Y-12898000D01*
X9168000Y-12858000D02*
X9248000Y-12858000D01*
X9308000Y-7979000D02*
X9308000Y-8059000D01*
X9268000Y-8019000D02*
X9348000Y-8019000D01*
X9308000Y-8741000D02*
X9308000Y-8821000D01*
X9268000Y-8781000D02*
X9348000Y-8781000D01*
X9350000Y-5902000D02*
X9350000Y-5982000D01*
X9310000Y-5942000D02*
X9390000Y-5942000D01*
X9350000Y-6918000D02*
X9350000Y-6998000D01*
X9310000Y-6958000D02*
X9390000Y-6958000D01*
X9600000Y-9085000D02*
X9600000Y-9165000D01*
X9560000Y-9125000D02*
X9640000Y-9125000D01*
X9600000Y-9835000D02*
X9600000Y-9915000D01*
X9560000Y-9875000D02*
X9640000Y-9875000D01*
X9658000Y-11602000D02*
X9658000Y-11682000D01*
X9618000Y-11642000D02*
X9698000Y-11642000D01*
X9658000Y-12618000D02*
X9658000Y-12698000D01*
X9618000Y-12658000D02*
X9698000Y-12658000D01*
X9750000Y-13110000D02*
X9750000Y-13190000D01*
X9710000Y-13150000D02*
X9790000Y-13150000D01*
X9768630Y-5902000D02*
X9768630Y-5982000D01*
X9728630Y-5942000D02*
X9808630Y-5942000D01*
X9768630Y-6918000D02*
X9768630Y-6998000D01*
X9728630Y-6958000D02*
X9808630Y-6958000D01*
X9858000Y-8210000D02*
X9858000Y-8290000D01*
X9818000Y-8250000D02*
X9898000Y-8250000D01*
X9858000Y-8710000D02*
X9858000Y-8790000D01*
X9818000Y-8750000D02*
X9898000Y-8750000D01*
X10196000Y-7440000D02*
X10196000Y-7520000D01*
X10156000Y-7480000D02*
X10236000Y-7480000D01*
X10196000Y-7694000D02*
X10196000Y-7774000D01*
X10156000Y-7734000D02*
X10236000Y-7734000D01*
X10196000Y-7948000D02*
X10196000Y-8028000D01*
X10156000Y-7988000D02*
X10236000Y-7988000D01*
X10196000Y-8202000D02*
X10196000Y-8282000D01*
X10156000Y-8242000D02*
X10236000Y-8242000D01*
X10196000Y-8456000D02*
X10196000Y-8536000D01*
X10156000Y-8496000D02*
X10236000Y-8496000D01*
X10196000Y-8710000D02*
X10196000Y-8790000D01*
X10156000Y-8750000D02*
X10236000Y-8750000D01*
X10196000Y-8964000D02*
X10196000Y-9044000D01*
X10156000Y-9004000D02*
X10236000Y-9004000D01*
X10196000Y-11298000D02*
X10196000Y-11378000D01*
X10156000Y-11338000D02*
X10236000Y-11338000D01*
X10196000Y-11552000D02*
X10196000Y-11632000D01*
X10156000Y-11592000D02*
X10236000Y-11592000D01*
X10196000Y-11806000D02*
X10196000Y-11886000D01*
X10156000Y-11846000D02*
X10236000Y-11846000D01*
X10196000Y-12060000D02*
X10196000Y-12140000D01*
X10156000Y-12100000D02*
X10236000Y-12100000D01*
X10664880Y-5902000D02*
X10664880Y-5982000D01*
X10624880Y-5942000D02*
X10704880Y-5942000D01*
X10664880Y-6918000D02*
X10664880Y-6998000D01*
X10624880Y-6958000D02*
X10704880Y-6958000D01*
X10766000Y-13110000D02*
X10766000Y-13190000D01*
X10726000Y-13150000D02*
X10806000Y-13150000D01*
X10958000Y-7440000D02*
X10958000Y-7520000D01*
X10918000Y-7480000D02*
X10998000Y-7480000D01*
X10958000Y-7694000D02*
X10958000Y-7774000D01*
X10918000Y-7734000D02*
X10998000Y-7734000D01*
X10958000Y-7948000D02*
X10958000Y-8028000D01*
X10918000Y-7988000D02*
X10998000Y-7988000D01*
X10958000Y-8202000D02*
X10958000Y-8282000D01*
X10918000Y-8242000D02*
X10998000Y-8242000D01*
X10958000Y-8456000D02*
X10958000Y-8536000D01*
X10918000Y-8496000D02*
X10998000Y-8496000D01*
X10958000Y-8710000D02*
X10958000Y-8790000D01*
X10918000Y-8750000D02*
X10998000Y-8750000D01*
X10958000Y-8964000D02*
X10958000Y-9044000D01*
X10918000Y-9004000D02*
X10998000Y-9004000D01*
X10958000Y-11298000D02*
X10958000Y-11378000D01*
X10918000Y-11338000D02*
X10998000Y-11338000D01*
X10958000Y-11552000D02*
X10958000Y-11632000D01*
X10918000Y-11592000D02*
X10998000Y-11592000D01*
X10958000Y-11806000D02*
X10958000Y-11886000D01*
X10918000Y-11846000D02*
X10998000Y-11846000D01*
X10958000Y-12060000D02*
X10958000Y-12140000D01*
X10918000Y-12100000D02*
X10998000Y-12100000D01*
X11100000Y-13110000D02*
X11100000Y-13190000D01*
X11060000Y-13150000D02*
X11140000Y-13150000D01*
X11308000Y-8210000D02*
X11308000Y-8290000D01*
X11268000Y-8250000D02*
X11348000Y-8250000D01*
X11308000Y-8710000D02*
X11308000Y-8790000D01*
X11268000Y-8750000D02*
X11348000Y-8750000D01*
X11458000Y-12160000D02*
X11458000Y-12240000D01*
X11418000Y-12200000D02*
X11498000Y-12200000D01*
X11458000Y-12660000D02*
X11458000Y-12740000D01*
X11418000Y-12700000D02*
X11498000Y-12700000D01*
X11561130Y-5902000D02*
X11561130Y-5982000D01*
X11521130Y-5942000D02*
X11601130Y-5942000D01*
X11561130Y-6918000D02*
X11561130Y-6998000D01*
X11521130Y-6958000D02*
X11601130Y-6958000D01*
X11608000Y-7402000D02*
X11608000Y-7482000D01*
X11568000Y-7442000D02*
X11648000Y-7442000D01*
X11608000Y-8418000D02*
X11608000Y-8498000D01*
X11568000Y-8458000D02*
X11648000Y-8458000D01*
X11908000Y-9702000D02*
X11908000Y-9782000D01*
X11868000Y-9742000D02*
X11948000Y-9742000D01*
X11908000Y-10718000D02*
X11908000Y-10798000D01*
X11868000Y-10758000D02*
X11948000Y-10758000D01*
X12008000Y-6652000D02*
X12008000Y-6732000D01*
X11968000Y-6692000D02*
X12048000Y-6692000D01*
X12008000Y-7668000D02*
X12008000Y-7748000D01*
X11968000Y-7708000D02*
X12048000Y-7708000D01*
X12008000Y-7960000D02*
X12008000Y-8040000D01*
X11968000Y-8000000D02*
X12048000Y-8000000D01*
X12008000Y-8976000D02*
X12008000Y-9056000D01*
X11968000Y-9016000D02*
X12048000Y-9016000D01*
X12116000Y-13110000D02*
X12116000Y-13190000D01*
X12076000Y-13150000D02*
X12156000Y-13150000D01*
X12358000Y-9702000D02*
X12358000Y-9782000D01*
X12318000Y-9742000D02*
X12398000Y-9742000D01*
X12358000Y-10718000D02*
X12358000Y-10798000D01*
X12318000Y-10758000D02*
X12398000Y-10758000D01*
X12457380Y-5902000D02*
X12457380Y-5982000D01*
X12417380Y-5942000D02*
X12497380Y-5942000D01*
X12457380Y-6918000D02*
X12457380Y-6998000D01*
X12417380Y-6958000D02*
X12497380Y-6958000D01*
X12458000Y-7252000D02*
X12458000Y-7332000D01*
X12418000Y-7292000D02*
X12498000Y-7292000D01*
X12458000Y-8268000D02*
X12458000Y-8348000D01*
X12418000Y-8308000D02*
X12498000Y-8308000D01*
X12508000Y-11002000D02*
X12508000Y-11082000D01*
X12468000Y-11042000D02*
X12548000Y-11042000D01*
X12508000Y-12018000D02*
X12508000Y-12098000D01*
X12468000Y-12058000D02*
X12548000Y-12058000D01*
X12608000Y-8660000D02*
X12608000Y-8740000D01*
X12568000Y-8700000D02*
X12648000Y-8700000D01*
X12608000Y-9160000D02*
X12608000Y-9240000D01*
X12568000Y-9200000D02*
X12648000Y-9200000D01*
X12758000Y-9702000D02*
X12758000Y-9782000D01*
X12718000Y-9742000D02*
X12798000Y-9742000D01*
X12758000Y-10718000D02*
X12758000Y-10798000D01*
X12718000Y-10758000D02*
X12798000Y-10758000D01*
X12808000Y-6402000D02*
X12808000Y-6482000D01*
X12768000Y-6442000D02*
X12848000Y-6442000D01*
X12808000Y-7418000D02*
X12808000Y-7498000D01*
X12768000Y-7458000D02*
X12848000Y-7458000D01*
X12858000Y-11002000D02*
X12858000Y-11082000D01*
X12818000Y-11042000D02*
X12898000Y-11042000D01*
X12858000Y-12018000D02*
X12858000Y-12098000D01*
X12818000Y-12058000D02*
X12898000Y-12058000D01*
X13158000Y-9710000D02*
X13158000Y-9790000D01*
X13118000Y-9750000D02*
X13198000Y-9750000D01*
X13158000Y-10726000D02*
X13158000Y-10806000D01*
X13118000Y-10766000D02*
X13198000Y-10766000D01*
X13208000Y-8060000D02*
X13208000Y-8140000D01*
X13168000Y-8100000D02*
X13248000Y-8100000D01*
X13208000Y-10994000D02*
X13208000Y-11074000D01*
X13168000Y-11034000D02*
X13248000Y-11034000D01*
X13208000Y-12010000D02*
X13208000Y-12090000D01*
X13168000Y-12050000D02*
X13248000Y-12050000D01*
X13258000Y-6402000D02*
X13258000Y-6482000D01*
X13218000Y-6442000D02*
X13298000Y-6442000D01*
X13258000Y-7418000D02*
X13258000Y-7498000D01*
X13218000Y-7458000D02*
X13298000Y-7458000D01*
X13375000Y-5935000D02*
X13375000Y-6015000D01*
X13335000Y-5975000D02*
X13415000Y-5975000D01*
X13575000Y-5935000D02*
X13575000Y-6015000D01*
X13535000Y-5975000D02*
X13615000Y-5975000D01*
X13658000Y-11710000D02*
X13658000Y-11790000D01*
X13618000Y-11750000D02*
X13698000Y-11750000D01*
X13658000Y-12210000D02*
X13658000Y-12290000D01*
X13618000Y-12250000D02*
X13698000Y-12250000D01*
X13708000Y-8060000D02*
X13708000Y-8140000D01*
X13668000Y-8100000D02*
X13748000Y-8100000D01*
X13775000Y-5935000D02*
X13775000Y-6015000D01*
X13735000Y-5975000D02*
X13815000Y-5975000D01*
X13900000Y-13060000D02*
X13900000Y-13140000D01*
X13860000Y-13100000D02*
X13940000Y-13100000D01*
X14008000Y-6786000D02*
X14008000Y-6866000D01*
X13968000Y-6826000D02*
X14048000Y-6826000D01*
X14008000Y-7040000D02*
X14008000Y-7120000D01*
X13968000Y-7080000D02*
X14048000Y-7080000D01*
X14008000Y-7294000D02*
X14008000Y-7374000D01*
X13968000Y-7334000D02*
X14048000Y-7334000D01*
X14008000Y-7548000D02*
X14008000Y-7628000D01*
X13968000Y-7588000D02*
X14048000Y-7588000D01*
X14008000Y-7802000D02*
X14008000Y-7882000D01*
X13968000Y-7842000D02*
X14048000Y-7842000D01*
X14008000Y-8056000D02*
X14008000Y-8136000D01*
X13968000Y-8096000D02*
X14048000Y-8096000D01*
X14008000Y-8310000D02*
X14008000Y-8390000D01*
X13968000Y-8350000D02*
X14048000Y-8350000D01*
X14008000Y-8564000D02*
X14008000Y-8644000D01*
X13968000Y-8604000D02*
X14048000Y-8604000D01*
X14027000Y-10948000D02*
X14027000Y-11028000D01*
X13987000Y-10988000D02*
X14067000Y-10988000D01*
X14027000Y-11202000D02*
X14027000Y-11282000D01*
X13987000Y-11242000D02*
X14067000Y-11242000D01*
X14027000Y-11456000D02*
X14027000Y-11536000D01*
X13987000Y-11496000D02*
X14067000Y-11496000D01*
X14027000Y-11710000D02*
X14027000Y-11790000D01*
X13987000Y-11750000D02*
X14067000Y-11750000D01*
X14027000Y-11964000D02*
X14027000Y-12044000D01*
X13987000Y-12004000D02*
X14067000Y-12004000D01*
X14027000Y-12218000D02*
X14027000Y-12298000D01*
X13987000Y-12258000D02*
X14067000Y-12258000D01*
X14027000Y-12472000D02*
X14027000Y-12552000D01*
X13987000Y-12512000D02*
X14067000Y-12512000D01*
X14208000Y-9702000D02*
X14208000Y-9782000D01*
X14168000Y-9742000D02*
X14248000Y-9742000D01*
X14208000Y-9956000D02*
X14208000Y-10036000D01*
X14168000Y-9996000D02*
X14248000Y-9996000D01*
X14208000Y-10210000D02*
X14208000Y-10290000D01*
X14168000Y-10250000D02*
X14248000Y-10250000D01*
X14770000Y-6786000D02*
X14770000Y-6866000D01*
X14730000Y-6826000D02*
X14810000Y-6826000D01*
X14770000Y-7040000D02*
X14770000Y-7120000D01*
X14730000Y-7080000D02*
X14810000Y-7080000D01*
X14770000Y-7294000D02*
X14770000Y-7374000D01*
X14730000Y-7334000D02*
X14810000Y-7334000D01*
X14770000Y-7548000D02*
X14770000Y-7628000D01*
X14730000Y-7588000D02*
X14810000Y-7588000D01*
X14770000Y-7802000D02*
X14770000Y-7882000D01*
X14730000Y-7842000D02*
X14810000Y-7842000D01*
X14770000Y-8056000D02*
X14770000Y-8136000D01*
X14730000Y-8096000D02*
X14810000Y-8096000D01*
X14770000Y-8310000D02*
X14770000Y-8390000D01*
X14730000Y-8350000D02*
X14810000Y-8350000D01*
X14770000Y-8564000D02*
X14770000Y-8644000D01*
X14730000Y-8604000D02*
X14810000Y-8604000D01*
X14789000Y-10948000D02*
X14789000Y-11028000D01*
X14749000Y-10988000D02*
X14829000Y-10988000D01*
X14789000Y-11202000D02*
X14789000Y-11282000D01*
X14749000Y-11242000D02*
X14829000Y-11242000D01*
X14789000Y-11456000D02*
X14789000Y-11536000D01*
X14749000Y-11496000D02*
X14829000Y-11496000D01*
X14789000Y-11710000D02*
X14789000Y-11790000D01*
X14749000Y-11750000D02*
X14829000Y-11750000D01*
X14789000Y-11964000D02*
X14789000Y-12044000D01*
X14749000Y-12004000D02*
X14829000Y-12004000D01*
X14789000Y-12218000D02*
X14789000Y-12298000D01*
X14749000Y-12258000D02*
X14829000Y-12258000D01*
X14789000Y-12472000D02*
X14789000Y-12552000D01*
X14749000Y-12512000D02*
X14829000Y-12512000D01*
X14916000Y-13060000D02*
X14916000Y-13140000D01*
X14876000Y-13100000D02*
X14956000Y-13100000D01*
X15100000Y-8910000D02*
X15100000Y-8990000D01*
X15060000Y-8950000D02*
X15140000Y-8950000D01*
X15100000Y-9260000D02*
X15100000Y-9340000D01*
X15060000Y-9300000D02*
X15140000Y-9300000D01*
X15108000Y-11710000D02*
X15108000Y-11790000D01*
X15068000Y-11750000D02*
X15148000Y-11750000D01*
X15158000Y-7560000D02*
X15158000Y-7640000D01*
X15118000Y-7600000D02*
X15198000Y-7600000D01*
X15158000Y-8060000D02*
X15158000Y-8140000D01*
X15118000Y-8100000D02*
X15198000Y-8100000D01*
X15219000Y-12714000D02*
X15219000Y-12794000D01*
X15179000Y-12754000D02*
X15259000Y-12754000D01*
X15219000Y-13064000D02*
X15219000Y-13144000D01*
X15179000Y-13104000D02*
X15259000Y-13104000D01*
X15219000Y-13414000D02*
X15219000Y-13494000D01*
X15179000Y-13454000D02*
X15259000Y-13454000D01*
X15608000Y-6052000D02*
X15608000Y-6132000D01*
X15568000Y-6092000D02*
X15648000Y-6092000D01*
X15608000Y-7068000D02*
X15608000Y-7148000D01*
X15568000Y-7108000D02*
X15648000Y-7108000D01*
X15608000Y-7352000D02*
X15608000Y-7432000D01*
X15568000Y-7392000D02*
X15648000Y-7392000D01*
X15608000Y-8368000D02*
X15608000Y-8448000D01*
X15568000Y-8408000D02*
X15648000Y-8408000D01*
X15608000Y-11710000D02*
X15608000Y-11790000D01*
X15568000Y-11750000D02*
X15648000Y-11750000D01*
X16008000Y-7552000D02*
X16008000Y-7632000D01*
X15968000Y-7592000D02*
X16048000Y-7592000D01*
X16008000Y-8568000D02*
X16008000Y-8648000D01*
X15968000Y-8608000D02*
X16048000Y-8608000D01*
X16042000Y-6860000D02*
X16042000Y-6940000D01*
X16002000Y-6900000D02*
X16082000Y-6900000D01*
X16108000Y-11002000D02*
X16108000Y-11082000D01*
X16068000Y-11042000D02*
X16148000Y-11042000D01*
X16108000Y-12018000D02*
X16108000Y-12098000D01*
X16068000Y-12058000D02*
X16148000Y-12058000D01*
X16116000Y-8910000D02*
X16116000Y-8990000D01*
X16076000Y-8950000D02*
X16156000Y-8950000D01*
X16116000Y-9260000D02*
X16116000Y-9340000D01*
X16076000Y-9300000D02*
X16156000Y-9300000D01*
X16235000Y-12714000D02*
X16235000Y-12794000D01*
X16195000Y-12754000D02*
X16275000Y-12754000D01*
X16235000Y-13064000D02*
X16235000Y-13144000D01*
X16195000Y-13104000D02*
X16275000Y-13104000D01*
X16235000Y-13414000D02*
X16235000Y-13494000D01*
X16195000Y-13454000D02*
X16275000Y-13454000D01*
X16408000Y-7294000D02*
X16408000Y-7374000D01*
X16368000Y-7334000D02*
X16448000Y-7334000D01*
X16408000Y-8310000D02*
X16408000Y-8390000D01*
X16368000Y-8350000D02*
X16448000Y-8350000D01*
X16508000Y-9702000D02*
X16508000Y-9782000D01*
X16468000Y-9742000D02*
X16548000Y-9742000D01*
X16508000Y-10210000D02*
X16508000Y-10290000D01*
X16468000Y-10250000D02*
X16548000Y-10250000D01*
X16658000Y-11002000D02*
X16658000Y-11082000D01*
X16618000Y-11042000D02*
X16698000Y-11042000D01*
X16658000Y-12018000D02*
X16658000Y-12098000D01*
X16618000Y-12058000D02*
X16698000Y-12058000D01*
X16762000Y-9956000D02*
X16762000Y-10036000D01*
X16722000Y-9996000D02*
X16802000Y-9996000D01*
X16950000Y-13560000D02*
X16950000Y-13640000D01*
X16910000Y-13600000D02*
X16990000Y-13600000D01*
X17058000Y-6860000D02*
X17058000Y-6940000D01*
X17018000Y-6900000D02*
X17098000Y-6900000D01*
X17058000Y-11002000D02*
X17058000Y-11082000D01*
X17018000Y-11042000D02*
X17098000Y-11042000D01*
X17058000Y-12018000D02*
X17058000Y-12098000D01*
X17018000Y-12058000D02*
X17098000Y-12058000D01*
X17208000Y-7352000D02*
X17208000Y-7432000D01*
X17168000Y-7392000D02*
X17248000Y-7392000D01*
X17208000Y-8368000D02*
X17208000Y-8448000D01*
X17168000Y-8408000D02*
X17248000Y-8408000D01*
X17408000Y-9702000D02*
X17408000Y-9782000D01*
X17368000Y-9742000D02*
X17448000Y-9742000D01*
X17408000Y-9956000D02*
X17408000Y-10036000D01*
X17368000Y-9996000D02*
X17448000Y-9996000D01*
X17408000Y-10210000D02*
X17408000Y-10290000D01*
X17368000Y-10250000D02*
X17448000Y-10250000D01*
X17600000Y-11410000D02*
X17600000Y-11490000D01*
X17560000Y-11450000D02*
X17640000Y-11450000D01*
X17600000Y-11610000D02*
X17600000Y-11690000D01*
X17560000Y-11650000D02*
X17640000Y-11650000D01*
X17625000Y-6685000D02*
X17625000Y-6765000D01*
X17585000Y-6725000D02*
X17665000Y-6725000D01*
X8181820Y-6181820D02*
X8181820Y-6118180D01*
X8118180Y-6118180D01*
X8118180Y-6181820D01*
X8181820Y-6181820D01*
X8181820Y-6681820D02*
X8181820Y-6618180D01*
X8118180Y-6618180D01*
X8118180Y-6681820D01*
X8181820Y-6681820D01*
X8681820Y-6431820D02*
X8681820Y-6368180D01*
X8618180Y-6368180D01*
X8618180Y-6431820D01*
X8681820Y-6431820D01*
X7308000Y-9900000D02*
X7358000Y-9850000D01*
X7308000Y-9800000D01*
X7258000Y-9850000D01*
X7308000Y-9900000D01*
X7308000Y-10154000D02*
X7358000Y-10104000D01*
X7308000Y-10054000D01*
X7258000Y-10104000D01*
X7308000Y-10154000D01*
X7308000Y-10408000D02*
X7358000Y-10358000D01*
X7308000Y-10308000D01*
X7258000Y-10358000D01*
X7308000Y-10408000D01*
X7308000Y-10662000D02*
X7358000Y-10612000D01*
X7308000Y-10562000D01*
X7258000Y-10612000D01*
X7308000Y-10662000D01*
X7308000Y-10916000D02*
X7358000Y-10866000D01*
X7308000Y-10816000D01*
X7258000Y-10866000D01*
X7308000Y-10916000D01*
X7562000Y-9900000D02*
X7612000Y-9850000D01*
X7562000Y-9800000D01*
X7512000Y-9850000D01*
X7562000Y-9900000D01*
X7562000Y-10154000D02*
X7612000Y-10104000D01*
X7562000Y-10054000D01*
X7512000Y-10104000D01*
X7562000Y-10154000D01*
X7562000Y-10408000D02*
X7612000Y-10358000D01*
X7562000Y-10308000D01*
X7512000Y-10358000D01*
X7562000Y-10408000D01*
X7562000Y-10662000D02*
X7612000Y-10612000D01*
X7562000Y-10562000D01*
X7512000Y-10612000D01*
X7562000Y-10662000D01*
X7562000Y-10916000D02*
X7612000Y-10866000D01*
X7562000Y-10816000D01*
X7512000Y-10866000D01*
X7562000Y-10916000D01*
X7800000Y-13000000D02*
X7850000Y-12950000D01*
X7800000Y-12900000D01*
X7750000Y-12950000D01*
X7800000Y-13000000D01*
X7800000Y-13500000D02*
X7850000Y-13450000D01*
X7800000Y-13400000D01*
X7750000Y-13450000D01*
X7800000Y-13500000D01*
D13*
X7040000Y-5940000D02*
X7360000Y-6260000D01*
X7360000Y-5940000D02*
X7040000Y-6260000D01*
X7360000Y-6100000D02*
G75*
G02*
X7040000Y-6100000I-160000J0D01*
G01*
X7040000Y-6100000D02*
G75*
G02*
X7360000Y-6100000I160000J0D01*
G01*
X7040000Y-13340000D02*
X7360000Y-13660000D01*
X7360000Y-13340000D02*
X7040000Y-13660000D01*
X7360000Y-13500000D02*
G75*
G02*
X7040000Y-13500000I-160000J0D01*
G01*
X7040000Y-13500000D02*
G75*
G02*
X7360000Y-13500000I160000J0D01*
G01*
X17340000Y-5965000D02*
X17660000Y-6285000D01*
X17660000Y-5965000D02*
X17340000Y-6285000D01*
X17660000Y-6125000D02*
G75*
G02*
X17340000Y-6125000I-160000J0D01*
G01*
X17340000Y-6125000D02*
G75*
G02*
X17660000Y-6125000I160000J0D01*
G01*
X17340000Y-13315000D02*
X17660000Y-13635000D01*
X17660000Y-13315000D02*
X17340000Y-13635000D01*
X17660000Y-13475000D02*
G75*
G02*
X17340000Y-13475000I-160000J0D01*
G01*
X17340000Y-13475000D02*
G75*
G02*
X17660000Y-13475000I160000J0D01*
G01*
D11*
X7116277Y-14163984D02*
X7116277Y-13963984D01*
X7116277Y-13963984D02*
X7163896Y-13963984D01*
X7163896Y-13963984D02*
X7192467Y-13973508D01*
X7192467Y-13973508D02*
X7211515Y-13992555D01*
X7211515Y-13992555D02*
X7221039Y-14011603D01*
X7221039Y-14011603D02*
X7230562Y-14049698D01*
X7230562Y-14049698D02*
X7230562Y-14078269D01*
X7230562Y-14078269D02*
X7221039Y-14116365D01*
X7221039Y-14116365D02*
X7211515Y-14135412D01*
X7211515Y-14135412D02*
X7192467Y-14154460D01*
X7192467Y-14154460D02*
X7163896Y-14163984D01*
X7163896Y-14163984D02*
X7116277Y-14163984D01*
X7316277Y-14163984D02*
X7316277Y-14030650D01*
X7316277Y-14068746D02*
X7325801Y-14049698D01*
X7325801Y-14049698D02*
X7335324Y-14040174D01*
X7335324Y-14040174D02*
X7354372Y-14030650D01*
X7354372Y-14030650D02*
X7373420Y-14030650D01*
X7440086Y-14163984D02*
X7440086Y-14030650D01*
X7440086Y-13963984D02*
X7430562Y-13973508D01*
X7430562Y-13973508D02*
X7440086Y-13983031D01*
X7440086Y-13983031D02*
X7449610Y-13973508D01*
X7449610Y-13973508D02*
X7440086Y-13963984D01*
X7440086Y-13963984D02*
X7440086Y-13983031D01*
X7563896Y-14163984D02*
X7544848Y-14154460D01*
X7544848Y-14154460D02*
X7535324Y-14135412D01*
X7535324Y-14135412D02*
X7535324Y-13963984D01*
X7668658Y-14163984D02*
X7649610Y-14154460D01*
X7649610Y-14154460D02*
X7640086Y-14135412D01*
X7640086Y-14135412D02*
X7640086Y-13963984D01*
X7897229Y-14163984D02*
X7897229Y-13963984D01*
X7897229Y-13963984D02*
X7963896Y-14106841D01*
X7963896Y-14106841D02*
X8030562Y-13963984D01*
X8030562Y-13963984D02*
X8030562Y-14163984D01*
X8211515Y-14163984D02*
X8211515Y-14059222D01*
X8211515Y-14059222D02*
X8201991Y-14040174D01*
X8201991Y-14040174D02*
X8182943Y-14030650D01*
X8182943Y-14030650D02*
X8144848Y-14030650D01*
X8144848Y-14030650D02*
X8125801Y-14040174D01*
X8211515Y-14154460D02*
X8192467Y-14163984D01*
X8192467Y-14163984D02*
X8144848Y-14163984D01*
X8144848Y-14163984D02*
X8125801Y-14154460D01*
X8125801Y-14154460D02*
X8116277Y-14135412D01*
X8116277Y-14135412D02*
X8116277Y-14116365D01*
X8116277Y-14116365D02*
X8125801Y-14097317D01*
X8125801Y-14097317D02*
X8144848Y-14087793D01*
X8144848Y-14087793D02*
X8192467Y-14087793D01*
X8192467Y-14087793D02*
X8211515Y-14078269D01*
X8306753Y-14030650D02*
X8306753Y-14230650D01*
X8306753Y-14040174D02*
X8325801Y-14030650D01*
X8325801Y-14030650D02*
X8363896Y-14030650D01*
X8363896Y-14030650D02*
X8382943Y-14040174D01*
X8382943Y-14040174D02*
X8392467Y-14049698D01*
X8392467Y-14049698D02*
X8401991Y-14068746D01*
X8401991Y-14068746D02*
X8401991Y-14125888D01*
X8401991Y-14125888D02*
X8392467Y-14144936D01*
X8392467Y-14144936D02*
X8382943Y-14154460D01*
X8382943Y-14154460D02*
X8363896Y-14163984D01*
X8363896Y-14163984D02*
X8325801Y-14163984D01*
X8325801Y-14163984D02*
X8306753Y-14154460D01*
X8487705Y-14144936D02*
X8497229Y-14154460D01*
X8497229Y-14154460D02*
X8487705Y-14163984D01*
X8487705Y-14163984D02*
X8478182Y-14154460D01*
X8478182Y-14154460D02*
X8487705Y-14144936D01*
X8487705Y-14144936D02*
X8487705Y-14163984D01*
X8487705Y-14040174D02*
X8497229Y-14049698D01*
X8497229Y-14049698D02*
X8487705Y-14059222D01*
X8487705Y-14059222D02*
X8478182Y-14049698D01*
X8478182Y-14049698D02*
X8487705Y-14040174D01*
X8487705Y-14040174D02*
X8487705Y-14059222D01*
D12*
X6785500Y-14457500D02*
X6855500Y-14527500D01*
X6855500Y-14457500D02*
X6785500Y-14527500D01*
D11*
X7154372Y-14383984D02*
X7173420Y-14383984D01*
X7173420Y-14383984D02*
X7192467Y-14393508D01*
X7192467Y-14393508D02*
X7201991Y-14403031D01*
X7201991Y-14403031D02*
X7211515Y-14422079D01*
X7211515Y-14422079D02*
X7221039Y-14460174D01*
X7221039Y-14460174D02*
X7221039Y-14507793D01*
X7221039Y-14507793D02*
X7211515Y-14545888D01*
X7211515Y-14545888D02*
X7201991Y-14564936D01*
X7201991Y-14564936D02*
X7192467Y-14574460D01*
X7192467Y-14574460D02*
X7173420Y-14583984D01*
X7173420Y-14583984D02*
X7154372Y-14583984D01*
X7154372Y-14583984D02*
X7135324Y-14574460D01*
X7135324Y-14574460D02*
X7125801Y-14564936D01*
X7125801Y-14564936D02*
X7116277Y-14545888D01*
X7116277Y-14545888D02*
X7106753Y-14507793D01*
X7106753Y-14507793D02*
X7106753Y-14460174D01*
X7106753Y-14460174D02*
X7116277Y-14422079D01*
X7116277Y-14422079D02*
X7125801Y-14403031D01*
X7125801Y-14403031D02*
X7135324Y-14393508D01*
X7135324Y-14393508D02*
X7154372Y-14383984D01*
X7306753Y-14564936D02*
X7316277Y-14574460D01*
X7316277Y-14574460D02*
X7306753Y-14583984D01*
X7306753Y-14583984D02*
X7297229Y-14574460D01*
X7297229Y-14574460D02*
X7306753Y-14564936D01*
X7306753Y-14564936D02*
X7306753Y-14583984D01*
X7382943Y-14383984D02*
X7516277Y-14383984D01*
X7516277Y-14383984D02*
X7430562Y-14583984D01*
X7630562Y-14383984D02*
X7649610Y-14383984D01*
X7649610Y-14383984D02*
X7668658Y-14393508D01*
X7668658Y-14393508D02*
X7678182Y-14403031D01*
X7678182Y-14403031D02*
X7687705Y-14422079D01*
X7687705Y-14422079D02*
X7697229Y-14460174D01*
X7697229Y-14460174D02*
X7697229Y-14507793D01*
X7697229Y-14507793D02*
X7687705Y-14545888D01*
X7687705Y-14545888D02*
X7678182Y-14564936D01*
X7678182Y-14564936D02*
X7668658Y-14574460D01*
X7668658Y-14574460D02*
X7649610Y-14583984D01*
X7649610Y-14583984D02*
X7630562Y-14583984D01*
X7630562Y-14583984D02*
X7611515Y-14574460D01*
X7611515Y-14574460D02*
X7601991Y-14564936D01*
X7601991Y-14564936D02*
X7592467Y-14545888D01*
X7592467Y-14545888D02*
X7582943Y-14507793D01*
X7582943Y-14507793D02*
X7582943Y-14460174D01*
X7582943Y-14460174D02*
X7592467Y-14422079D01*
X7592467Y-14422079D02*
X7601991Y-14403031D01*
X7601991Y-14403031D02*
X7611515Y-14393508D01*
X7611515Y-14393508D02*
X7630562Y-14383984D01*
X7821039Y-14383984D02*
X7840086Y-14383984D01*
X7840086Y-14383984D02*
X7859134Y-14393508D01*
X7859134Y-14393508D02*
X7868658Y-14403031D01*
X7868658Y-14403031D02*
X7878182Y-14422079D01*
X7878182Y-14422079D02*
X7887705Y-14460174D01*
X7887705Y-14460174D02*
X7887705Y-14507793D01*
X7887705Y-14507793D02*
X7878182Y-14545888D01*
X7878182Y-14545888D02*
X7868658Y-14564936D01*
X7868658Y-14564936D02*
X7859134Y-14574460D01*
X7859134Y-14574460D02*
X7840086Y-14583984D01*
X7840086Y-14583984D02*
X7821039Y-14583984D01*
X7821039Y-14583984D02*
X7801991Y-14574460D01*
X7801991Y-14574460D02*
X7792467Y-14564936D01*
X7792467Y-14564936D02*
X7782943Y-14545888D01*
X7782943Y-14545888D02*
X7773420Y-14507793D01*
X7773420Y-14507793D02*
X7773420Y-14460174D01*
X7773420Y-14460174D02*
X7782943Y-14422079D01*
X7782943Y-14422079D02*
X7792467Y-14403031D01*
X7792467Y-14403031D02*
X7801991Y-14393508D01*
X7801991Y-14393508D02*
X7821039Y-14383984D01*
X7973420Y-14583984D02*
X7973420Y-14450650D01*
X7973420Y-14469698D02*
X7982943Y-14460174D01*
X7982943Y-14460174D02*
X8001991Y-14450650D01*
X8001991Y-14450650D02*
X8030563Y-14450650D01*
X8030563Y-14450650D02*
X8049610Y-14460174D01*
X8049610Y-14460174D02*
X8059134Y-14479222D01*
X8059134Y-14479222D02*
X8059134Y-14583984D01*
X8059134Y-14479222D02*
X8068658Y-14460174D01*
X8068658Y-14460174D02*
X8087705Y-14450650D01*
X8087705Y-14450650D02*
X8116277Y-14450650D01*
X8116277Y-14450650D02*
X8135324Y-14460174D01*
X8135324Y-14460174D02*
X8144848Y-14479222D01*
X8144848Y-14479222D02*
X8144848Y-14583984D01*
X8240086Y-14583984D02*
X8240086Y-14450650D01*
X8240086Y-14469698D02*
X8249610Y-14460174D01*
X8249610Y-14460174D02*
X8268658Y-14450650D01*
X8268658Y-14450650D02*
X8297229Y-14450650D01*
X8297229Y-14450650D02*
X8316277Y-14460174D01*
X8316277Y-14460174D02*
X8325801Y-14479222D01*
X8325801Y-14479222D02*
X8325801Y-14583984D01*
X8325801Y-14479222D02*
X8335324Y-14460174D01*
X8335324Y-14460174D02*
X8354372Y-14450650D01*
X8354372Y-14450650D02*
X8382943Y-14450650D01*
X8382943Y-14450650D02*
X8401991Y-14460174D01*
X8401991Y-14460174D02*
X8411515Y-14479222D01*
X8411515Y-14479222D02*
X8411515Y-14583984D01*
X8801991Y-14374460D02*
X8630563Y-14631603D01*
X9059134Y-14383984D02*
X9078182Y-14383984D01*
X9078182Y-14383984D02*
X9097229Y-14393508D01*
X9097229Y-14393508D02*
X9106753Y-14403031D01*
X9106753Y-14403031D02*
X9116277Y-14422079D01*
X9116277Y-14422079D02*
X9125801Y-14460174D01*
X9125801Y-14460174D02*
X9125801Y-14507793D01*
X9125801Y-14507793D02*
X9116277Y-14545888D01*
X9116277Y-14545888D02*
X9106753Y-14564936D01*
X9106753Y-14564936D02*
X9097229Y-14574460D01*
X9097229Y-14574460D02*
X9078182Y-14583984D01*
X9078182Y-14583984D02*
X9059134Y-14583984D01*
X9059134Y-14583984D02*
X9040087Y-14574460D01*
X9040087Y-14574460D02*
X9030563Y-14564936D01*
X9030563Y-14564936D02*
X9021039Y-14545888D01*
X9021039Y-14545888D02*
X9011515Y-14507793D01*
X9011515Y-14507793D02*
X9011515Y-14460174D01*
X9011515Y-14460174D02*
X9021039Y-14422079D01*
X9021039Y-14422079D02*
X9030563Y-14403031D01*
X9030563Y-14403031D02*
X9040087Y-14393508D01*
X9040087Y-14393508D02*
X9059134Y-14383984D01*
X9211515Y-14564936D02*
X9221039Y-14574460D01*
X9221039Y-14574460D02*
X9211515Y-14583984D01*
X9211515Y-14583984D02*
X9201991Y-14574460D01*
X9201991Y-14574460D02*
X9211515Y-14564936D01*
X9211515Y-14564936D02*
X9211515Y-14583984D01*
X9344848Y-14383984D02*
X9363896Y-14383984D01*
X9363896Y-14383984D02*
X9382944Y-14393508D01*
X9382944Y-14393508D02*
X9392468Y-14403031D01*
X9392468Y-14403031D02*
X9401991Y-14422079D01*
X9401991Y-14422079D02*
X9411515Y-14460174D01*
X9411515Y-14460174D02*
X9411515Y-14507793D01*
X9411515Y-14507793D02*
X9401991Y-14545888D01*
X9401991Y-14545888D02*
X9392468Y-14564936D01*
X9392468Y-14564936D02*
X9382944Y-14574460D01*
X9382944Y-14574460D02*
X9363896Y-14583984D01*
X9363896Y-14583984D02*
X9344848Y-14583984D01*
X9344848Y-14583984D02*
X9325801Y-14574460D01*
X9325801Y-14574460D02*
X9316277Y-14564936D01*
X9316277Y-14564936D02*
X9306753Y-14545888D01*
X9306753Y-14545888D02*
X9297229Y-14507793D01*
X9297229Y-14507793D02*
X9297229Y-14460174D01*
X9297229Y-14460174D02*
X9306753Y-14422079D01*
X9306753Y-14422079D02*
X9316277Y-14403031D01*
X9316277Y-14403031D02*
X9325801Y-14393508D01*
X9325801Y-14393508D02*
X9344848Y-14383984D01*
X9487706Y-14403031D02*
X9497229Y-14393508D01*
X9497229Y-14393508D02*
X9516277Y-14383984D01*
X9516277Y-14383984D02*
X9563896Y-14383984D01*
X9563896Y-14383984D02*
X9582944Y-14393508D01*
X9582944Y-14393508D02*
X9592468Y-14403031D01*
X9592468Y-14403031D02*
X9601991Y-14422079D01*
X9601991Y-14422079D02*
X9601991Y-14441127D01*
X9601991Y-14441127D02*
X9592468Y-14469698D01*
X9592468Y-14469698D02*
X9478182Y-14583984D01*
X9478182Y-14583984D02*
X9601991Y-14583984D01*
X9668658Y-14383984D02*
X9801991Y-14383984D01*
X9801991Y-14383984D02*
X9716277Y-14583984D01*
X9963896Y-14383984D02*
X9925801Y-14383984D01*
X9925801Y-14383984D02*
X9906753Y-14393508D01*
X9906753Y-14393508D02*
X9897229Y-14403031D01*
X9897229Y-14403031D02*
X9878182Y-14431603D01*
X9878182Y-14431603D02*
X9868658Y-14469698D01*
X9868658Y-14469698D02*
X9868658Y-14545888D01*
X9868658Y-14545888D02*
X9878182Y-14564936D01*
X9878182Y-14564936D02*
X9887706Y-14574460D01*
X9887706Y-14574460D02*
X9906753Y-14583984D01*
X9906753Y-14583984D02*
X9944849Y-14583984D01*
X9944849Y-14583984D02*
X9963896Y-14574460D01*
X9963896Y-14574460D02*
X9973420Y-14564936D01*
X9973420Y-14564936D02*
X9982944Y-14545888D01*
X9982944Y-14545888D02*
X9982944Y-14498269D01*
X9982944Y-14498269D02*
X9973420Y-14479222D01*
X9973420Y-14479222D02*
X9963896Y-14469698D01*
X9963896Y-14469698D02*
X9944849Y-14460174D01*
X9944849Y-14460174D02*
X9906753Y-14460174D01*
X9906753Y-14460174D02*
X9887706Y-14469698D01*
X9887706Y-14469698D02*
X9878182Y-14479222D01*
X9878182Y-14479222D02*
X9868658Y-14498269D01*
X10059134Y-14383984D02*
X10059134Y-14422079D01*
X10135325Y-14383984D02*
X10135325Y-14422079D01*
X10430563Y-14660174D02*
X10421039Y-14650650D01*
X10421039Y-14650650D02*
X10401991Y-14622079D01*
X10401991Y-14622079D02*
X10392468Y-14603031D01*
X10392468Y-14603031D02*
X10382944Y-14574460D01*
X10382944Y-14574460D02*
X10373420Y-14526841D01*
X10373420Y-14526841D02*
X10373420Y-14488746D01*
X10373420Y-14488746D02*
X10382944Y-14441127D01*
X10382944Y-14441127D02*
X10392468Y-14412555D01*
X10392468Y-14412555D02*
X10401991Y-14393508D01*
X10401991Y-14393508D02*
X10421039Y-14364936D01*
X10421039Y-14364936D02*
X10430563Y-14355412D01*
X10611515Y-14583984D02*
X10497230Y-14583984D01*
X10554372Y-14583984D02*
X10554372Y-14383984D01*
X10554372Y-14383984D02*
X10535325Y-14412555D01*
X10535325Y-14412555D02*
X10516277Y-14431603D01*
X10516277Y-14431603D02*
X10497230Y-14441127D01*
X10782944Y-14450650D02*
X10782944Y-14583984D01*
X10735325Y-14374460D02*
X10687706Y-14517317D01*
X10687706Y-14517317D02*
X10811515Y-14517317D01*
X11040087Y-14583984D02*
X11040087Y-14383984D01*
X11125801Y-14583984D02*
X11125801Y-14479222D01*
X11125801Y-14479222D02*
X11116277Y-14460174D01*
X11116277Y-14460174D02*
X11097230Y-14450650D01*
X11097230Y-14450650D02*
X11068658Y-14450650D01*
X11068658Y-14450650D02*
X11049611Y-14460174D01*
X11049611Y-14460174D02*
X11040087Y-14469698D01*
X11249610Y-14583984D02*
X11230563Y-14574460D01*
X11230563Y-14574460D02*
X11221039Y-14564936D01*
X11221039Y-14564936D02*
X11211515Y-14545888D01*
X11211515Y-14545888D02*
X11211515Y-14488746D01*
X11211515Y-14488746D02*
X11221039Y-14469698D01*
X11221039Y-14469698D02*
X11230563Y-14460174D01*
X11230563Y-14460174D02*
X11249610Y-14450650D01*
X11249610Y-14450650D02*
X11278182Y-14450650D01*
X11278182Y-14450650D02*
X11297230Y-14460174D01*
X11297230Y-14460174D02*
X11306753Y-14469698D01*
X11306753Y-14469698D02*
X11316277Y-14488746D01*
X11316277Y-14488746D02*
X11316277Y-14545888D01*
X11316277Y-14545888D02*
X11306753Y-14564936D01*
X11306753Y-14564936D02*
X11297230Y-14574460D01*
X11297230Y-14574460D02*
X11278182Y-14583984D01*
X11278182Y-14583984D02*
X11249610Y-14583984D01*
X11430563Y-14583984D02*
X11411515Y-14574460D01*
X11411515Y-14574460D02*
X11401991Y-14555412D01*
X11401991Y-14555412D02*
X11401991Y-14383984D01*
X11582944Y-14574460D02*
X11563896Y-14583984D01*
X11563896Y-14583984D02*
X11525801Y-14583984D01*
X11525801Y-14583984D02*
X11506753Y-14574460D01*
X11506753Y-14574460D02*
X11497230Y-14555412D01*
X11497230Y-14555412D02*
X11497230Y-14479222D01*
X11497230Y-14479222D02*
X11506753Y-14460174D01*
X11506753Y-14460174D02*
X11525801Y-14450650D01*
X11525801Y-14450650D02*
X11563896Y-14450650D01*
X11563896Y-14450650D02*
X11582944Y-14460174D01*
X11582944Y-14460174D02*
X11592468Y-14479222D01*
X11592468Y-14479222D02*
X11592468Y-14498269D01*
X11592468Y-14498269D02*
X11497230Y-14517317D01*
X11668658Y-14574460D02*
X11687706Y-14583984D01*
X11687706Y-14583984D02*
X11725801Y-14583984D01*
X11725801Y-14583984D02*
X11744849Y-14574460D01*
X11744849Y-14574460D02*
X11754372Y-14555412D01*
X11754372Y-14555412D02*
X11754372Y-14545888D01*
X11754372Y-14545888D02*
X11744849Y-14526841D01*
X11744849Y-14526841D02*
X11725801Y-14517317D01*
X11725801Y-14517317D02*
X11697230Y-14517317D01*
X11697230Y-14517317D02*
X11678182Y-14507793D01*
X11678182Y-14507793D02*
X11668658Y-14488746D01*
X11668658Y-14488746D02*
X11668658Y-14479222D01*
X11668658Y-14479222D02*
X11678182Y-14460174D01*
X11678182Y-14460174D02*
X11697230Y-14450650D01*
X11697230Y-14450650D02*
X11725801Y-14450650D01*
X11725801Y-14450650D02*
X11744849Y-14460174D01*
X11821039Y-14660174D02*
X11830563Y-14650650D01*
X11830563Y-14650650D02*
X11849611Y-14622079D01*
X11849611Y-14622079D02*
X11859134Y-14603031D01*
X11859134Y-14603031D02*
X11868658Y-14574460D01*
X11868658Y-14574460D02*
X11878182Y-14526841D01*
X11878182Y-14526841D02*
X11878182Y-14488746D01*
X11878182Y-14488746D02*
X11868658Y-14441127D01*
X11868658Y-14441127D02*
X11859134Y-14412555D01*
X11859134Y-14412555D02*
X11849611Y-14393508D01*
X11849611Y-14393508D02*
X11830563Y-14364936D01*
X11830563Y-14364936D02*
X11821039Y-14355412D01*
D12*
X6855500Y-14756500D02*
G75*
G02*
X6780500Y-14756500I-37500J0D01*
G01*
X6780500Y-14756500D02*
G75*
G02*
X6855500Y-14756500I37500J0D01*
G01*
D11*
X7154372Y-14647984D02*
X7173420Y-14647984D01*
X7173420Y-14647984D02*
X7192467Y-14657508D01*
X7192467Y-14657508D02*
X7201991Y-14667031D01*
X7201991Y-14667031D02*
X7211515Y-14686079D01*
X7211515Y-14686079D02*
X7221039Y-14724174D01*
X7221039Y-14724174D02*
X7221039Y-14771793D01*
X7221039Y-14771793D02*
X7211515Y-14809888D01*
X7211515Y-14809888D02*
X7201991Y-14828936D01*
X7201991Y-14828936D02*
X7192467Y-14838460D01*
X7192467Y-14838460D02*
X7173420Y-14847984D01*
X7173420Y-14847984D02*
X7154372Y-14847984D01*
X7154372Y-14847984D02*
X7135324Y-14838460D01*
X7135324Y-14838460D02*
X7125801Y-14828936D01*
X7125801Y-14828936D02*
X7116277Y-14809888D01*
X7116277Y-14809888D02*
X7106753Y-14771793D01*
X7106753Y-14771793D02*
X7106753Y-14724174D01*
X7106753Y-14724174D02*
X7116277Y-14686079D01*
X7116277Y-14686079D02*
X7125801Y-14667031D01*
X7125801Y-14667031D02*
X7135324Y-14657508D01*
X7135324Y-14657508D02*
X7154372Y-14647984D01*
X7306753Y-14828936D02*
X7316277Y-14838460D01*
X7316277Y-14838460D02*
X7306753Y-14847984D01*
X7306753Y-14847984D02*
X7297229Y-14838460D01*
X7297229Y-14838460D02*
X7306753Y-14828936D01*
X7306753Y-14828936D02*
X7306753Y-14847984D01*
X7382943Y-14647984D02*
X7516277Y-14647984D01*
X7516277Y-14647984D02*
X7430562Y-14847984D01*
X7687705Y-14647984D02*
X7592467Y-14647984D01*
X7592467Y-14647984D02*
X7582943Y-14743222D01*
X7582943Y-14743222D02*
X7592467Y-14733698D01*
X7592467Y-14733698D02*
X7611515Y-14724174D01*
X7611515Y-14724174D02*
X7659134Y-14724174D01*
X7659134Y-14724174D02*
X7678182Y-14733698D01*
X7678182Y-14733698D02*
X7687705Y-14743222D01*
X7687705Y-14743222D02*
X7697229Y-14762269D01*
X7697229Y-14762269D02*
X7697229Y-14809888D01*
X7697229Y-14809888D02*
X7687705Y-14828936D01*
X7687705Y-14828936D02*
X7678182Y-14838460D01*
X7678182Y-14838460D02*
X7659134Y-14847984D01*
X7659134Y-14847984D02*
X7611515Y-14847984D01*
X7611515Y-14847984D02*
X7592467Y-14838460D01*
X7592467Y-14838460D02*
X7582943Y-14828936D01*
X7821039Y-14647984D02*
X7840086Y-14647984D01*
X7840086Y-14647984D02*
X7859134Y-14657508D01*
X7859134Y-14657508D02*
X7868658Y-14667031D01*
X7868658Y-14667031D02*
X7878182Y-14686079D01*
X7878182Y-14686079D02*
X7887705Y-14724174D01*
X7887705Y-14724174D02*
X7887705Y-14771793D01*
X7887705Y-14771793D02*
X7878182Y-14809888D01*
X7878182Y-14809888D02*
X7868658Y-14828936D01*
X7868658Y-14828936D02*
X7859134Y-14838460D01*
X7859134Y-14838460D02*
X7840086Y-14847984D01*
X7840086Y-14847984D02*
X7821039Y-14847984D01*
X7821039Y-14847984D02*
X7801991Y-14838460D01*
X7801991Y-14838460D02*
X7792467Y-14828936D01*
X7792467Y-14828936D02*
X7782943Y-14809888D01*
X7782943Y-14809888D02*
X7773420Y-14771793D01*
X7773420Y-14771793D02*
X7773420Y-14724174D01*
X7773420Y-14724174D02*
X7782943Y-14686079D01*
X7782943Y-14686079D02*
X7792467Y-14667031D01*
X7792467Y-14667031D02*
X7801991Y-14657508D01*
X7801991Y-14657508D02*
X7821039Y-14647984D01*
X7973420Y-14847984D02*
X7973420Y-14714650D01*
X7973420Y-14733698D02*
X7982943Y-14724174D01*
X7982943Y-14724174D02*
X8001991Y-14714650D01*
X8001991Y-14714650D02*
X8030563Y-14714650D01*
X8030563Y-14714650D02*
X8049610Y-14724174D01*
X8049610Y-14724174D02*
X8059134Y-14743222D01*
X8059134Y-14743222D02*
X8059134Y-14847984D01*
X8059134Y-14743222D02*
X8068658Y-14724174D01*
X8068658Y-14724174D02*
X8087705Y-14714650D01*
X8087705Y-14714650D02*
X8116277Y-14714650D01*
X8116277Y-14714650D02*
X8135324Y-14724174D01*
X8135324Y-14724174D02*
X8144848Y-14743222D01*
X8144848Y-14743222D02*
X8144848Y-14847984D01*
X8240086Y-14847984D02*
X8240086Y-14714650D01*
X8240086Y-14733698D02*
X8249610Y-14724174D01*
X8249610Y-14724174D02*
X8268658Y-14714650D01*
X8268658Y-14714650D02*
X8297229Y-14714650D01*
X8297229Y-14714650D02*
X8316277Y-14724174D01*
X8316277Y-14724174D02*
X8325801Y-14743222D01*
X8325801Y-14743222D02*
X8325801Y-14847984D01*
X8325801Y-14743222D02*
X8335324Y-14724174D01*
X8335324Y-14724174D02*
X8354372Y-14714650D01*
X8354372Y-14714650D02*
X8382943Y-14714650D01*
X8382943Y-14714650D02*
X8401991Y-14724174D01*
X8401991Y-14724174D02*
X8411515Y-14743222D01*
X8411515Y-14743222D02*
X8411515Y-14847984D01*
X8801991Y-14638460D02*
X8630563Y-14895603D01*
X9059134Y-14647984D02*
X9078182Y-14647984D01*
X9078182Y-14647984D02*
X9097229Y-14657508D01*
X9097229Y-14657508D02*
X9106753Y-14667031D01*
X9106753Y-14667031D02*
X9116277Y-14686079D01*
X9116277Y-14686079D02*
X9125801Y-14724174D01*
X9125801Y-14724174D02*
X9125801Y-14771793D01*
X9125801Y-14771793D02*
X9116277Y-14809888D01*
X9116277Y-14809888D02*
X9106753Y-14828936D01*
X9106753Y-14828936D02*
X9097229Y-14838460D01*
X9097229Y-14838460D02*
X9078182Y-14847984D01*
X9078182Y-14847984D02*
X9059134Y-14847984D01*
X9059134Y-14847984D02*
X9040087Y-14838460D01*
X9040087Y-14838460D02*
X9030563Y-14828936D01*
X9030563Y-14828936D02*
X9021039Y-14809888D01*
X9021039Y-14809888D02*
X9011515Y-14771793D01*
X9011515Y-14771793D02*
X9011515Y-14724174D01*
X9011515Y-14724174D02*
X9021039Y-14686079D01*
X9021039Y-14686079D02*
X9030563Y-14667031D01*
X9030563Y-14667031D02*
X9040087Y-14657508D01*
X9040087Y-14657508D02*
X9059134Y-14647984D01*
X9211515Y-14828936D02*
X9221039Y-14838460D01*
X9221039Y-14838460D02*
X9211515Y-14847984D01*
X9211515Y-14847984D02*
X9201991Y-14838460D01*
X9201991Y-14838460D02*
X9211515Y-14828936D01*
X9211515Y-14828936D02*
X9211515Y-14847984D01*
X9344848Y-14647984D02*
X9363896Y-14647984D01*
X9363896Y-14647984D02*
X9382944Y-14657508D01*
X9382944Y-14657508D02*
X9392468Y-14667031D01*
X9392468Y-14667031D02*
X9401991Y-14686079D01*
X9401991Y-14686079D02*
X9411515Y-14724174D01*
X9411515Y-14724174D02*
X9411515Y-14771793D01*
X9411515Y-14771793D02*
X9401991Y-14809888D01*
X9401991Y-14809888D02*
X9392468Y-14828936D01*
X9392468Y-14828936D02*
X9382944Y-14838460D01*
X9382944Y-14838460D02*
X9363896Y-14847984D01*
X9363896Y-14847984D02*
X9344848Y-14847984D01*
X9344848Y-14847984D02*
X9325801Y-14838460D01*
X9325801Y-14838460D02*
X9316277Y-14828936D01*
X9316277Y-14828936D02*
X9306753Y-14809888D01*
X9306753Y-14809888D02*
X9297229Y-14771793D01*
X9297229Y-14771793D02*
X9297229Y-14724174D01*
X9297229Y-14724174D02*
X9306753Y-14686079D01*
X9306753Y-14686079D02*
X9316277Y-14667031D01*
X9316277Y-14667031D02*
X9325801Y-14657508D01*
X9325801Y-14657508D02*
X9344848Y-14647984D01*
X9487706Y-14667031D02*
X9497229Y-14657508D01*
X9497229Y-14657508D02*
X9516277Y-14647984D01*
X9516277Y-14647984D02*
X9563896Y-14647984D01*
X9563896Y-14647984D02*
X9582944Y-14657508D01*
X9582944Y-14657508D02*
X9592468Y-14667031D01*
X9592468Y-14667031D02*
X9601991Y-14686079D01*
X9601991Y-14686079D02*
X9601991Y-14705127D01*
X9601991Y-14705127D02*
X9592468Y-14733698D01*
X9592468Y-14733698D02*
X9478182Y-14847984D01*
X9478182Y-14847984D02*
X9601991Y-14847984D01*
X9697229Y-14847984D02*
X9735325Y-14847984D01*
X9735325Y-14847984D02*
X9754372Y-14838460D01*
X9754372Y-14838460D02*
X9763896Y-14828936D01*
X9763896Y-14828936D02*
X9782944Y-14800365D01*
X9782944Y-14800365D02*
X9792468Y-14762269D01*
X9792468Y-14762269D02*
X9792468Y-14686079D01*
X9792468Y-14686079D02*
X9782944Y-14667031D01*
X9782944Y-14667031D02*
X9773420Y-14657508D01*
X9773420Y-14657508D02*
X9754372Y-14647984D01*
X9754372Y-14647984D02*
X9716277Y-14647984D01*
X9716277Y-14647984D02*
X9697229Y-14657508D01*
X9697229Y-14657508D02*
X9687706Y-14667031D01*
X9687706Y-14667031D02*
X9678182Y-14686079D01*
X9678182Y-14686079D02*
X9678182Y-14733698D01*
X9678182Y-14733698D02*
X9687706Y-14752746D01*
X9687706Y-14752746D02*
X9697229Y-14762269D01*
X9697229Y-14762269D02*
X9716277Y-14771793D01*
X9716277Y-14771793D02*
X9754372Y-14771793D01*
X9754372Y-14771793D02*
X9773420Y-14762269D01*
X9773420Y-14762269D02*
X9782944Y-14752746D01*
X9782944Y-14752746D02*
X9792468Y-14733698D01*
X9973420Y-14647984D02*
X9878182Y-14647984D01*
X9878182Y-14647984D02*
X9868658Y-14743222D01*
X9868658Y-14743222D02*
X9878182Y-14733698D01*
X9878182Y-14733698D02*
X9897229Y-14724174D01*
X9897229Y-14724174D02*
X9944849Y-14724174D01*
X9944849Y-14724174D02*
X9963896Y-14733698D01*
X9963896Y-14733698D02*
X9973420Y-14743222D01*
X9973420Y-14743222D02*
X9982944Y-14762269D01*
X9982944Y-14762269D02*
X9982944Y-14809888D01*
X9982944Y-14809888D02*
X9973420Y-14828936D01*
X9973420Y-14828936D02*
X9963896Y-14838460D01*
X9963896Y-14838460D02*
X9944849Y-14847984D01*
X9944849Y-14847984D02*
X9897229Y-14847984D01*
X9897229Y-14847984D02*
X9878182Y-14838460D01*
X9878182Y-14838460D02*
X9868658Y-14828936D01*
X10059134Y-14647984D02*
X10059134Y-14686079D01*
X10135325Y-14647984D02*
X10135325Y-14686079D01*
X10430563Y-14924174D02*
X10421039Y-14914650D01*
X10421039Y-14914650D02*
X10401991Y-14886079D01*
X10401991Y-14886079D02*
X10392468Y-14867031D01*
X10392468Y-14867031D02*
X10382944Y-14838460D01*
X10382944Y-14838460D02*
X10373420Y-14790841D01*
X10373420Y-14790841D02*
X10373420Y-14752746D01*
X10373420Y-14752746D02*
X10382944Y-14705127D01*
X10382944Y-14705127D02*
X10392468Y-14676555D01*
X10392468Y-14676555D02*
X10401991Y-14657508D01*
X10401991Y-14657508D02*
X10421039Y-14628936D01*
X10421039Y-14628936D02*
X10430563Y-14619412D01*
X10516277Y-14847984D02*
X10554372Y-14847984D01*
X10554372Y-14847984D02*
X10573420Y-14838460D01*
X10573420Y-14838460D02*
X10582944Y-14828936D01*
X10582944Y-14828936D02*
X10601991Y-14800365D01*
X10601991Y-14800365D02*
X10611515Y-14762269D01*
X10611515Y-14762269D02*
X10611515Y-14686079D01*
X10611515Y-14686079D02*
X10601991Y-14667031D01*
X10601991Y-14667031D02*
X10592468Y-14657508D01*
X10592468Y-14657508D02*
X10573420Y-14647984D01*
X10573420Y-14647984D02*
X10535325Y-14647984D01*
X10535325Y-14647984D02*
X10516277Y-14657508D01*
X10516277Y-14657508D02*
X10506753Y-14667031D01*
X10506753Y-14667031D02*
X10497230Y-14686079D01*
X10497230Y-14686079D02*
X10497230Y-14733698D01*
X10497230Y-14733698D02*
X10506753Y-14752746D01*
X10506753Y-14752746D02*
X10516277Y-14762269D01*
X10516277Y-14762269D02*
X10535325Y-14771793D01*
X10535325Y-14771793D02*
X10573420Y-14771793D01*
X10573420Y-14771793D02*
X10592468Y-14762269D01*
X10592468Y-14762269D02*
X10601991Y-14752746D01*
X10601991Y-14752746D02*
X10611515Y-14733698D01*
X10849611Y-14847984D02*
X10849611Y-14647984D01*
X10935325Y-14847984D02*
X10935325Y-14743222D01*
X10935325Y-14743222D02*
X10925801Y-14724174D01*
X10925801Y-14724174D02*
X10906753Y-14714650D01*
X10906753Y-14714650D02*
X10878182Y-14714650D01*
X10878182Y-14714650D02*
X10859134Y-14724174D01*
X10859134Y-14724174D02*
X10849611Y-14733698D01*
X11059134Y-14847984D02*
X11040087Y-14838460D01*
X11040087Y-14838460D02*
X11030563Y-14828936D01*
X11030563Y-14828936D02*
X11021039Y-14809888D01*
X11021039Y-14809888D02*
X11021039Y-14752746D01*
X11021039Y-14752746D02*
X11030563Y-14733698D01*
X11030563Y-14733698D02*
X11040087Y-14724174D01*
X11040087Y-14724174D02*
X11059134Y-14714650D01*
X11059134Y-14714650D02*
X11087706Y-14714650D01*
X11087706Y-14714650D02*
X11106753Y-14724174D01*
X11106753Y-14724174D02*
X11116277Y-14733698D01*
X11116277Y-14733698D02*
X11125801Y-14752746D01*
X11125801Y-14752746D02*
X11125801Y-14809888D01*
X11125801Y-14809888D02*
X11116277Y-14828936D01*
X11116277Y-14828936D02*
X11106753Y-14838460D01*
X11106753Y-14838460D02*
X11087706Y-14847984D01*
X11087706Y-14847984D02*
X11059134Y-14847984D01*
X11240087Y-14847984D02*
X11221039Y-14838460D01*
X11221039Y-14838460D02*
X11211515Y-14819412D01*
X11211515Y-14819412D02*
X11211515Y-14647984D01*
X11392468Y-14838460D02*
X11373420Y-14847984D01*
X11373420Y-14847984D02*
X11335325Y-14847984D01*
X11335325Y-14847984D02*
X11316277Y-14838460D01*
X11316277Y-14838460D02*
X11306753Y-14819412D01*
X11306753Y-14819412D02*
X11306753Y-14743222D01*
X11306753Y-14743222D02*
X11316277Y-14724174D01*
X11316277Y-14724174D02*
X11335325Y-14714650D01*
X11335325Y-14714650D02*
X11373420Y-14714650D01*
X11373420Y-14714650D02*
X11392468Y-14724174D01*
X11392468Y-14724174D02*
X11401991Y-14743222D01*
X11401991Y-14743222D02*
X11401991Y-14762269D01*
X11401991Y-14762269D02*
X11306753Y-14781317D01*
X11478182Y-14838460D02*
X11497230Y-14847984D01*
X11497230Y-14847984D02*
X11535325Y-14847984D01*
X11535325Y-14847984D02*
X11554372Y-14838460D01*
X11554372Y-14838460D02*
X11563896Y-14819412D01*
X11563896Y-14819412D02*
X11563896Y-14809888D01*
X11563896Y-14809888D02*
X11554372Y-14790841D01*
X11554372Y-14790841D02*
X11535325Y-14781317D01*
X11535325Y-14781317D02*
X11506753Y-14781317D01*
X11506753Y-14781317D02*
X11487706Y-14771793D01*
X11487706Y-14771793D02*
X11478182Y-14752746D01*
X11478182Y-14752746D02*
X11478182Y-14743222D01*
X11478182Y-14743222D02*
X11487706Y-14724174D01*
X11487706Y-14724174D02*
X11506753Y-14714650D01*
X11506753Y-14714650D02*
X11535325Y-14714650D01*
X11535325Y-14714650D02*
X11554372Y-14724174D01*
X11630563Y-14924174D02*
X11640087Y-14914650D01*
X11640087Y-14914650D02*
X11659134Y-14886079D01*
X11659134Y-14886079D02*
X11668658Y-14867031D01*
X11668658Y-14867031D02*
X11678182Y-14838460D01*
X11678182Y-14838460D02*
X11687706Y-14790841D01*
X11687706Y-14790841D02*
X11687706Y-14752746D01*
X11687706Y-14752746D02*
X11678182Y-14705127D01*
X11678182Y-14705127D02*
X11668658Y-14676555D01*
X11668658Y-14676555D02*
X11659134Y-14657508D01*
X11659134Y-14657508D02*
X11640087Y-14628936D01*
X11640087Y-14628936D02*
X11630563Y-14619412D01*
D12*
X6815500Y-14980500D02*
X6815500Y-15060500D01*
X6775500Y-15020500D02*
X6855500Y-15020500D01*
D11*
X7154372Y-14911984D02*
X7173420Y-14911984D01*
X7173420Y-14911984D02*
X7192467Y-14921508D01*
X7192467Y-14921508D02*
X7201991Y-14931031D01*
X7201991Y-14931031D02*
X7211515Y-14950079D01*
X7211515Y-14950079D02*
X7221039Y-14988174D01*
X7221039Y-14988174D02*
X7221039Y-15035793D01*
X7221039Y-15035793D02*
X7211515Y-15073888D01*
X7211515Y-15073888D02*
X7201991Y-15092936D01*
X7201991Y-15092936D02*
X7192467Y-15102460D01*
X7192467Y-15102460D02*
X7173420Y-15111984D01*
X7173420Y-15111984D02*
X7154372Y-15111984D01*
X7154372Y-15111984D02*
X7135324Y-15102460D01*
X7135324Y-15102460D02*
X7125801Y-15092936D01*
X7125801Y-15092936D02*
X7116277Y-15073888D01*
X7116277Y-15073888D02*
X7106753Y-15035793D01*
X7106753Y-15035793D02*
X7106753Y-14988174D01*
X7106753Y-14988174D02*
X7116277Y-14950079D01*
X7116277Y-14950079D02*
X7125801Y-14931031D01*
X7125801Y-14931031D02*
X7135324Y-14921508D01*
X7135324Y-14921508D02*
X7154372Y-14911984D01*
X7306753Y-15092936D02*
X7316277Y-15102460D01*
X7316277Y-15102460D02*
X7306753Y-15111984D01*
X7306753Y-15111984D02*
X7297229Y-15102460D01*
X7297229Y-15102460D02*
X7306753Y-15092936D01*
X7306753Y-15092936D02*
X7306753Y-15111984D01*
X7430562Y-14997698D02*
X7411515Y-14988174D01*
X7411515Y-14988174D02*
X7401991Y-14978650D01*
X7401991Y-14978650D02*
X7392467Y-14959603D01*
X7392467Y-14959603D02*
X7392467Y-14950079D01*
X7392467Y-14950079D02*
X7401991Y-14931031D01*
X7401991Y-14931031D02*
X7411515Y-14921508D01*
X7411515Y-14921508D02*
X7430562Y-14911984D01*
X7430562Y-14911984D02*
X7468658Y-14911984D01*
X7468658Y-14911984D02*
X7487705Y-14921508D01*
X7487705Y-14921508D02*
X7497229Y-14931031D01*
X7497229Y-14931031D02*
X7506753Y-14950079D01*
X7506753Y-14950079D02*
X7506753Y-14959603D01*
X7506753Y-14959603D02*
X7497229Y-14978650D01*
X7497229Y-14978650D02*
X7487705Y-14988174D01*
X7487705Y-14988174D02*
X7468658Y-14997698D01*
X7468658Y-14997698D02*
X7430562Y-14997698D01*
X7430562Y-14997698D02*
X7411515Y-15007222D01*
X7411515Y-15007222D02*
X7401991Y-15016746D01*
X7401991Y-15016746D02*
X7392467Y-15035793D01*
X7392467Y-15035793D02*
X7392467Y-15073888D01*
X7392467Y-15073888D02*
X7401991Y-15092936D01*
X7401991Y-15092936D02*
X7411515Y-15102460D01*
X7411515Y-15102460D02*
X7430562Y-15111984D01*
X7430562Y-15111984D02*
X7468658Y-15111984D01*
X7468658Y-15111984D02*
X7487705Y-15102460D01*
X7487705Y-15102460D02*
X7497229Y-15092936D01*
X7497229Y-15092936D02*
X7506753Y-15073888D01*
X7506753Y-15073888D02*
X7506753Y-15035793D01*
X7506753Y-15035793D02*
X7497229Y-15016746D01*
X7497229Y-15016746D02*
X7487705Y-15007222D01*
X7487705Y-15007222D02*
X7468658Y-14997698D01*
X7630562Y-14911984D02*
X7649610Y-14911984D01*
X7649610Y-14911984D02*
X7668658Y-14921508D01*
X7668658Y-14921508D02*
X7678182Y-14931031D01*
X7678182Y-14931031D02*
X7687705Y-14950079D01*
X7687705Y-14950079D02*
X7697229Y-14988174D01*
X7697229Y-14988174D02*
X7697229Y-15035793D01*
X7697229Y-15035793D02*
X7687705Y-15073888D01*
X7687705Y-15073888D02*
X7678182Y-15092936D01*
X7678182Y-15092936D02*
X7668658Y-15102460D01*
X7668658Y-15102460D02*
X7649610Y-15111984D01*
X7649610Y-15111984D02*
X7630562Y-15111984D01*
X7630562Y-15111984D02*
X7611515Y-15102460D01*
X7611515Y-15102460D02*
X7601991Y-15092936D01*
X7601991Y-15092936D02*
X7592467Y-15073888D01*
X7592467Y-15073888D02*
X7582943Y-15035793D01*
X7582943Y-15035793D02*
X7582943Y-14988174D01*
X7582943Y-14988174D02*
X7592467Y-14950079D01*
X7592467Y-14950079D02*
X7601991Y-14931031D01*
X7601991Y-14931031D02*
X7611515Y-14921508D01*
X7611515Y-14921508D02*
X7630562Y-14911984D01*
X7821039Y-14911984D02*
X7840086Y-14911984D01*
X7840086Y-14911984D02*
X7859134Y-14921508D01*
X7859134Y-14921508D02*
X7868658Y-14931031D01*
X7868658Y-14931031D02*
X7878182Y-14950079D01*
X7878182Y-14950079D02*
X7887705Y-14988174D01*
X7887705Y-14988174D02*
X7887705Y-15035793D01*
X7887705Y-15035793D02*
X7878182Y-15073888D01*
X7878182Y-15073888D02*
X7868658Y-15092936D01*
X7868658Y-15092936D02*
X7859134Y-15102460D01*
X7859134Y-15102460D02*
X7840086Y-15111984D01*
X7840086Y-15111984D02*
X7821039Y-15111984D01*
X7821039Y-15111984D02*
X7801991Y-15102460D01*
X7801991Y-15102460D02*
X7792467Y-15092936D01*
X7792467Y-15092936D02*
X7782943Y-15073888D01*
X7782943Y-15073888D02*
X7773420Y-15035793D01*
X7773420Y-15035793D02*
X7773420Y-14988174D01*
X7773420Y-14988174D02*
X7782943Y-14950079D01*
X7782943Y-14950079D02*
X7792467Y-14931031D01*
X7792467Y-14931031D02*
X7801991Y-14921508D01*
X7801991Y-14921508D02*
X7821039Y-14911984D01*
X7973420Y-15111984D02*
X7973420Y-14978650D01*
X7973420Y-14997698D02*
X7982943Y-14988174D01*
X7982943Y-14988174D02*
X8001991Y-14978650D01*
X8001991Y-14978650D02*
X8030563Y-14978650D01*
X8030563Y-14978650D02*
X8049610Y-14988174D01*
X8049610Y-14988174D02*
X8059134Y-15007222D01*
X8059134Y-15007222D02*
X8059134Y-15111984D01*
X8059134Y-15007222D02*
X8068658Y-14988174D01*
X8068658Y-14988174D02*
X8087705Y-14978650D01*
X8087705Y-14978650D02*
X8116277Y-14978650D01*
X8116277Y-14978650D02*
X8135324Y-14988174D01*
X8135324Y-14988174D02*
X8144848Y-15007222D01*
X8144848Y-15007222D02*
X8144848Y-15111984D01*
X8240086Y-15111984D02*
X8240086Y-14978650D01*
X8240086Y-14997698D02*
X8249610Y-14988174D01*
X8249610Y-14988174D02*
X8268658Y-14978650D01*
X8268658Y-14978650D02*
X8297229Y-14978650D01*
X8297229Y-14978650D02*
X8316277Y-14988174D01*
X8316277Y-14988174D02*
X8325801Y-15007222D01*
X8325801Y-15007222D02*
X8325801Y-15111984D01*
X8325801Y-15007222D02*
X8335324Y-14988174D01*
X8335324Y-14988174D02*
X8354372Y-14978650D01*
X8354372Y-14978650D02*
X8382943Y-14978650D01*
X8382943Y-14978650D02*
X8401991Y-14988174D01*
X8401991Y-14988174D02*
X8411515Y-15007222D01*
X8411515Y-15007222D02*
X8411515Y-15111984D01*
X8801991Y-14902460D02*
X8630563Y-15159603D01*
X9059134Y-14911984D02*
X9078182Y-14911984D01*
X9078182Y-14911984D02*
X9097229Y-14921508D01*
X9097229Y-14921508D02*
X9106753Y-14931031D01*
X9106753Y-14931031D02*
X9116277Y-14950079D01*
X9116277Y-14950079D02*
X9125801Y-14988174D01*
X9125801Y-14988174D02*
X9125801Y-15035793D01*
X9125801Y-15035793D02*
X9116277Y-15073888D01*
X9116277Y-15073888D02*
X9106753Y-15092936D01*
X9106753Y-15092936D02*
X9097229Y-15102460D01*
X9097229Y-15102460D02*
X9078182Y-15111984D01*
X9078182Y-15111984D02*
X9059134Y-15111984D01*
X9059134Y-15111984D02*
X9040087Y-15102460D01*
X9040087Y-15102460D02*
X9030563Y-15092936D01*
X9030563Y-15092936D02*
X9021039Y-15073888D01*
X9021039Y-15073888D02*
X9011515Y-15035793D01*
X9011515Y-15035793D02*
X9011515Y-14988174D01*
X9011515Y-14988174D02*
X9021039Y-14950079D01*
X9021039Y-14950079D02*
X9030563Y-14931031D01*
X9030563Y-14931031D02*
X9040087Y-14921508D01*
X9040087Y-14921508D02*
X9059134Y-14911984D01*
X9211515Y-15092936D02*
X9221039Y-15102460D01*
X9221039Y-15102460D02*
X9211515Y-15111984D01*
X9211515Y-15111984D02*
X9201991Y-15102460D01*
X9201991Y-15102460D02*
X9211515Y-15092936D01*
X9211515Y-15092936D02*
X9211515Y-15111984D01*
X9344848Y-14911984D02*
X9363896Y-14911984D01*
X9363896Y-14911984D02*
X9382944Y-14921508D01*
X9382944Y-14921508D02*
X9392468Y-14931031D01*
X9392468Y-14931031D02*
X9401991Y-14950079D01*
X9401991Y-14950079D02*
X9411515Y-14988174D01*
X9411515Y-14988174D02*
X9411515Y-15035793D01*
X9411515Y-15035793D02*
X9401991Y-15073888D01*
X9401991Y-15073888D02*
X9392468Y-15092936D01*
X9392468Y-15092936D02*
X9382944Y-15102460D01*
X9382944Y-15102460D02*
X9363896Y-15111984D01*
X9363896Y-15111984D02*
X9344848Y-15111984D01*
X9344848Y-15111984D02*
X9325801Y-15102460D01*
X9325801Y-15102460D02*
X9316277Y-15092936D01*
X9316277Y-15092936D02*
X9306753Y-15073888D01*
X9306753Y-15073888D02*
X9297229Y-15035793D01*
X9297229Y-15035793D02*
X9297229Y-14988174D01*
X9297229Y-14988174D02*
X9306753Y-14950079D01*
X9306753Y-14950079D02*
X9316277Y-14931031D01*
X9316277Y-14931031D02*
X9325801Y-14921508D01*
X9325801Y-14921508D02*
X9344848Y-14911984D01*
X9478182Y-14911984D02*
X9601991Y-14911984D01*
X9601991Y-14911984D02*
X9535325Y-14988174D01*
X9535325Y-14988174D02*
X9563896Y-14988174D01*
X9563896Y-14988174D02*
X9582944Y-14997698D01*
X9582944Y-14997698D02*
X9592468Y-15007222D01*
X9592468Y-15007222D02*
X9601991Y-15026269D01*
X9601991Y-15026269D02*
X9601991Y-15073888D01*
X9601991Y-15073888D02*
X9592468Y-15092936D01*
X9592468Y-15092936D02*
X9582944Y-15102460D01*
X9582944Y-15102460D02*
X9563896Y-15111984D01*
X9563896Y-15111984D02*
X9506753Y-15111984D01*
X9506753Y-15111984D02*
X9487706Y-15102460D01*
X9487706Y-15102460D02*
X9478182Y-15092936D01*
X9792468Y-15111984D02*
X9678182Y-15111984D01*
X9735325Y-15111984D02*
X9735325Y-14911984D01*
X9735325Y-14911984D02*
X9716277Y-14940555D01*
X9716277Y-14940555D02*
X9697229Y-14959603D01*
X9697229Y-14959603D02*
X9678182Y-14969127D01*
X9973420Y-14911984D02*
X9878182Y-14911984D01*
X9878182Y-14911984D02*
X9868658Y-15007222D01*
X9868658Y-15007222D02*
X9878182Y-14997698D01*
X9878182Y-14997698D02*
X9897229Y-14988174D01*
X9897229Y-14988174D02*
X9944849Y-14988174D01*
X9944849Y-14988174D02*
X9963896Y-14997698D01*
X9963896Y-14997698D02*
X9973420Y-15007222D01*
X9973420Y-15007222D02*
X9982944Y-15026269D01*
X9982944Y-15026269D02*
X9982944Y-15073888D01*
X9982944Y-15073888D02*
X9973420Y-15092936D01*
X9973420Y-15092936D02*
X9963896Y-15102460D01*
X9963896Y-15102460D02*
X9944849Y-15111984D01*
X9944849Y-15111984D02*
X9897229Y-15111984D01*
X9897229Y-15111984D02*
X9878182Y-15102460D01*
X9878182Y-15102460D02*
X9868658Y-15092936D01*
X10059134Y-14911984D02*
X10059134Y-14950079D01*
X10135325Y-14911984D02*
X10135325Y-14950079D01*
X10430563Y-15188174D02*
X10421039Y-15178650D01*
X10421039Y-15178650D02*
X10401991Y-15150079D01*
X10401991Y-15150079D02*
X10392468Y-15131031D01*
X10392468Y-15131031D02*
X10382944Y-15102460D01*
X10382944Y-15102460D02*
X10373420Y-15054841D01*
X10373420Y-15054841D02*
X10373420Y-15016746D01*
X10373420Y-15016746D02*
X10382944Y-14969127D01*
X10382944Y-14969127D02*
X10392468Y-14940555D01*
X10392468Y-14940555D02*
X10401991Y-14921508D01*
X10401991Y-14921508D02*
X10421039Y-14892936D01*
X10421039Y-14892936D02*
X10430563Y-14883412D01*
X10611515Y-15111984D02*
X10497230Y-15111984D01*
X10554372Y-15111984D02*
X10554372Y-14911984D01*
X10554372Y-14911984D02*
X10535325Y-14940555D01*
X10535325Y-14940555D02*
X10516277Y-14959603D01*
X10516277Y-14959603D02*
X10497230Y-14969127D01*
X10725801Y-14997698D02*
X10706753Y-14988174D01*
X10706753Y-14988174D02*
X10697230Y-14978650D01*
X10697230Y-14978650D02*
X10687706Y-14959603D01*
X10687706Y-14959603D02*
X10687706Y-14950079D01*
X10687706Y-14950079D02*
X10697230Y-14931031D01*
X10697230Y-14931031D02*
X10706753Y-14921508D01*
X10706753Y-14921508D02*
X10725801Y-14911984D01*
X10725801Y-14911984D02*
X10763896Y-14911984D01*
X10763896Y-14911984D02*
X10782944Y-14921508D01*
X10782944Y-14921508D02*
X10792468Y-14931031D01*
X10792468Y-14931031D02*
X10801991Y-14950079D01*
X10801991Y-14950079D02*
X10801991Y-14959603D01*
X10801991Y-14959603D02*
X10792468Y-14978650D01*
X10792468Y-14978650D02*
X10782944Y-14988174D01*
X10782944Y-14988174D02*
X10763896Y-14997698D01*
X10763896Y-14997698D02*
X10725801Y-14997698D01*
X10725801Y-14997698D02*
X10706753Y-15007222D01*
X10706753Y-15007222D02*
X10697230Y-15016746D01*
X10697230Y-15016746D02*
X10687706Y-15035793D01*
X10687706Y-15035793D02*
X10687706Y-15073888D01*
X10687706Y-15073888D02*
X10697230Y-15092936D01*
X10697230Y-15092936D02*
X10706753Y-15102460D01*
X10706753Y-15102460D02*
X10725801Y-15111984D01*
X10725801Y-15111984D02*
X10763896Y-15111984D01*
X10763896Y-15111984D02*
X10782944Y-15102460D01*
X10782944Y-15102460D02*
X10792468Y-15092936D01*
X10792468Y-15092936D02*
X10801991Y-15073888D01*
X10801991Y-15073888D02*
X10801991Y-15035793D01*
X10801991Y-15035793D02*
X10792468Y-15016746D01*
X10792468Y-15016746D02*
X10782944Y-15007222D01*
X10782944Y-15007222D02*
X10763896Y-14997698D01*
X10868658Y-14911984D02*
X11001991Y-14911984D01*
X11001991Y-14911984D02*
X10916277Y-15111984D01*
X11230563Y-15111984D02*
X11230563Y-14911984D01*
X11316277Y-15111984D02*
X11316277Y-15007222D01*
X11316277Y-15007222D02*
X11306753Y-14988174D01*
X11306753Y-14988174D02*
X11287706Y-14978650D01*
X11287706Y-14978650D02*
X11259134Y-14978650D01*
X11259134Y-14978650D02*
X11240087Y-14988174D01*
X11240087Y-14988174D02*
X11230563Y-14997698D01*
X11440087Y-15111984D02*
X11421039Y-15102460D01*
X11421039Y-15102460D02*
X11411515Y-15092936D01*
X11411515Y-15092936D02*
X11401991Y-15073888D01*
X11401991Y-15073888D02*
X11401991Y-15016746D01*
X11401991Y-15016746D02*
X11411515Y-14997698D01*
X11411515Y-14997698D02*
X11421039Y-14988174D01*
X11421039Y-14988174D02*
X11440087Y-14978650D01*
X11440087Y-14978650D02*
X11468658Y-14978650D01*
X11468658Y-14978650D02*
X11487706Y-14988174D01*
X11487706Y-14988174D02*
X11497230Y-14997698D01*
X11497230Y-14997698D02*
X11506753Y-15016746D01*
X11506753Y-15016746D02*
X11506753Y-15073888D01*
X11506753Y-15073888D02*
X11497230Y-15092936D01*
X11497230Y-15092936D02*
X11487706Y-15102460D01*
X11487706Y-15102460D02*
X11468658Y-15111984D01*
X11468658Y-15111984D02*
X11440087Y-15111984D01*
X11621039Y-15111984D02*
X11601991Y-15102460D01*
X11601991Y-15102460D02*
X11592468Y-15083412D01*
X11592468Y-15083412D02*
X11592468Y-14911984D01*
X11773420Y-15102460D02*
X11754372Y-15111984D01*
X11754372Y-15111984D02*
X11716277Y-15111984D01*
X11716277Y-15111984D02*
X11697230Y-15102460D01*
X11697230Y-15102460D02*
X11687706Y-15083412D01*
X11687706Y-15083412D02*
X11687706Y-15007222D01*
X11687706Y-15007222D02*
X11697230Y-14988174D01*
X11697230Y-14988174D02*
X11716277Y-14978650D01*
X11716277Y-14978650D02*
X11754372Y-14978650D01*
X11754372Y-14978650D02*
X11773420Y-14988174D01*
X11773420Y-14988174D02*
X11782944Y-15007222D01*
X11782944Y-15007222D02*
X11782944Y-15026269D01*
X11782944Y-15026269D02*
X11687706Y-15045317D01*
X11859134Y-15102460D02*
X11878182Y-15111984D01*
X11878182Y-15111984D02*
X11916277Y-15111984D01*
X11916277Y-15111984D02*
X11935325Y-15102460D01*
X11935325Y-15102460D02*
X11944849Y-15083412D01*
X11944849Y-15083412D02*
X11944849Y-15073888D01*
X11944849Y-15073888D02*
X11935325Y-15054841D01*
X11935325Y-15054841D02*
X11916277Y-15045317D01*
X11916277Y-15045317D02*
X11887706Y-15045317D01*
X11887706Y-15045317D02*
X11868658Y-15035793D01*
X11868658Y-15035793D02*
X11859134Y-15016746D01*
X11859134Y-15016746D02*
X11859134Y-15007222D01*
X11859134Y-15007222D02*
X11868658Y-14988174D01*
X11868658Y-14988174D02*
X11887706Y-14978650D01*
X11887706Y-14978650D02*
X11916277Y-14978650D01*
X11916277Y-14978650D02*
X11935325Y-14988174D01*
X12011515Y-15188174D02*
X12021039Y-15178650D01*
X12021039Y-15178650D02*
X12040087Y-15150079D01*
X12040087Y-15150079D02*
X12049611Y-15131031D01*
X12049611Y-15131031D02*
X12059134Y-15102460D01*
X12059134Y-15102460D02*
X12068658Y-15054841D01*
X12068658Y-15054841D02*
X12068658Y-15016746D01*
X12068658Y-15016746D02*
X12059134Y-14969127D01*
X12059134Y-14969127D02*
X12049611Y-14940555D01*
X12049611Y-14940555D02*
X12040087Y-14921508D01*
X12040087Y-14921508D02*
X12021039Y-14892936D01*
X12021039Y-14892936D02*
X12011515Y-14883412D01*
D12*
X6842320Y-15316320D02*
X6842320Y-15252680D01*
X6778680Y-15252680D01*
X6778680Y-15316320D01*
X6842320Y-15316320D01*
D11*
X7154372Y-15175984D02*
X7173420Y-15175984D01*
X7173420Y-15175984D02*
X7192467Y-15185508D01*
X7192467Y-15185508D02*
X7201991Y-15195031D01*
X7201991Y-15195031D02*
X7211515Y-15214079D01*
X7211515Y-15214079D02*
X7221039Y-15252174D01*
X7221039Y-15252174D02*
X7221039Y-15299793D01*
X7221039Y-15299793D02*
X7211515Y-15337888D01*
X7211515Y-15337888D02*
X7201991Y-15356936D01*
X7201991Y-15356936D02*
X7192467Y-15366460D01*
X7192467Y-15366460D02*
X7173420Y-15375984D01*
X7173420Y-15375984D02*
X7154372Y-15375984D01*
X7154372Y-15375984D02*
X7135324Y-15366460D01*
X7135324Y-15366460D02*
X7125801Y-15356936D01*
X7125801Y-15356936D02*
X7116277Y-15337888D01*
X7116277Y-15337888D02*
X7106753Y-15299793D01*
X7106753Y-15299793D02*
X7106753Y-15252174D01*
X7106753Y-15252174D02*
X7116277Y-15214079D01*
X7116277Y-15214079D02*
X7125801Y-15195031D01*
X7125801Y-15195031D02*
X7135324Y-15185508D01*
X7135324Y-15185508D02*
X7154372Y-15175984D01*
X7306753Y-15356936D02*
X7316277Y-15366460D01*
X7316277Y-15366460D02*
X7306753Y-15375984D01*
X7306753Y-15375984D02*
X7297229Y-15366460D01*
X7297229Y-15366460D02*
X7306753Y-15356936D01*
X7306753Y-15356936D02*
X7306753Y-15375984D01*
X7411515Y-15375984D02*
X7449610Y-15375984D01*
X7449610Y-15375984D02*
X7468658Y-15366460D01*
X7468658Y-15366460D02*
X7478182Y-15356936D01*
X7478182Y-15356936D02*
X7497229Y-15328365D01*
X7497229Y-15328365D02*
X7506753Y-15290269D01*
X7506753Y-15290269D02*
X7506753Y-15214079D01*
X7506753Y-15214079D02*
X7497229Y-15195031D01*
X7497229Y-15195031D02*
X7487705Y-15185508D01*
X7487705Y-15185508D02*
X7468658Y-15175984D01*
X7468658Y-15175984D02*
X7430562Y-15175984D01*
X7430562Y-15175984D02*
X7411515Y-15185508D01*
X7411515Y-15185508D02*
X7401991Y-15195031D01*
X7401991Y-15195031D02*
X7392467Y-15214079D01*
X7392467Y-15214079D02*
X7392467Y-15261698D01*
X7392467Y-15261698D02*
X7401991Y-15280746D01*
X7401991Y-15280746D02*
X7411515Y-15290269D01*
X7411515Y-15290269D02*
X7430562Y-15299793D01*
X7430562Y-15299793D02*
X7468658Y-15299793D01*
X7468658Y-15299793D02*
X7487705Y-15290269D01*
X7487705Y-15290269D02*
X7497229Y-15280746D01*
X7497229Y-15280746D02*
X7506753Y-15261698D01*
X7630562Y-15175984D02*
X7649610Y-15175984D01*
X7649610Y-15175984D02*
X7668658Y-15185508D01*
X7668658Y-15185508D02*
X7678182Y-15195031D01*
X7678182Y-15195031D02*
X7687705Y-15214079D01*
X7687705Y-15214079D02*
X7697229Y-15252174D01*
X7697229Y-15252174D02*
X7697229Y-15299793D01*
X7697229Y-15299793D02*
X7687705Y-15337888D01*
X7687705Y-15337888D02*
X7678182Y-15356936D01*
X7678182Y-15356936D02*
X7668658Y-15366460D01*
X7668658Y-15366460D02*
X7649610Y-15375984D01*
X7649610Y-15375984D02*
X7630562Y-15375984D01*
X7630562Y-15375984D02*
X7611515Y-15366460D01*
X7611515Y-15366460D02*
X7601991Y-15356936D01*
X7601991Y-15356936D02*
X7592467Y-15337888D01*
X7592467Y-15337888D02*
X7582943Y-15299793D01*
X7582943Y-15299793D02*
X7582943Y-15252174D01*
X7582943Y-15252174D02*
X7592467Y-15214079D01*
X7592467Y-15214079D02*
X7601991Y-15195031D01*
X7601991Y-15195031D02*
X7611515Y-15185508D01*
X7611515Y-15185508D02*
X7630562Y-15175984D01*
X7821039Y-15175984D02*
X7840086Y-15175984D01*
X7840086Y-15175984D02*
X7859134Y-15185508D01*
X7859134Y-15185508D02*
X7868658Y-15195031D01*
X7868658Y-15195031D02*
X7878182Y-15214079D01*
X7878182Y-15214079D02*
X7887705Y-15252174D01*
X7887705Y-15252174D02*
X7887705Y-15299793D01*
X7887705Y-15299793D02*
X7878182Y-15337888D01*
X7878182Y-15337888D02*
X7868658Y-15356936D01*
X7868658Y-15356936D02*
X7859134Y-15366460D01*
X7859134Y-15366460D02*
X7840086Y-15375984D01*
X7840086Y-15375984D02*
X7821039Y-15375984D01*
X7821039Y-15375984D02*
X7801991Y-15366460D01*
X7801991Y-15366460D02*
X7792467Y-15356936D01*
X7792467Y-15356936D02*
X7782943Y-15337888D01*
X7782943Y-15337888D02*
X7773420Y-15299793D01*
X7773420Y-15299793D02*
X7773420Y-15252174D01*
X7773420Y-15252174D02*
X7782943Y-15214079D01*
X7782943Y-15214079D02*
X7792467Y-15195031D01*
X7792467Y-15195031D02*
X7801991Y-15185508D01*
X7801991Y-15185508D02*
X7821039Y-15175984D01*
X7973420Y-15375984D02*
X7973420Y-15242650D01*
X7973420Y-15261698D02*
X7982943Y-15252174D01*
X7982943Y-15252174D02*
X8001991Y-15242650D01*
X8001991Y-15242650D02*
X8030563Y-15242650D01*
X8030563Y-15242650D02*
X8049610Y-15252174D01*
X8049610Y-15252174D02*
X8059134Y-15271222D01*
X8059134Y-15271222D02*
X8059134Y-15375984D01*
X8059134Y-15271222D02*
X8068658Y-15252174D01*
X8068658Y-15252174D02*
X8087705Y-15242650D01*
X8087705Y-15242650D02*
X8116277Y-15242650D01*
X8116277Y-15242650D02*
X8135324Y-15252174D01*
X8135324Y-15252174D02*
X8144848Y-15271222D01*
X8144848Y-15271222D02*
X8144848Y-15375984D01*
X8240086Y-15375984D02*
X8240086Y-15242650D01*
X8240086Y-15261698D02*
X8249610Y-15252174D01*
X8249610Y-15252174D02*
X8268658Y-15242650D01*
X8268658Y-15242650D02*
X8297229Y-15242650D01*
X8297229Y-15242650D02*
X8316277Y-15252174D01*
X8316277Y-15252174D02*
X8325801Y-15271222D01*
X8325801Y-15271222D02*
X8325801Y-15375984D01*
X8325801Y-15271222D02*
X8335324Y-15252174D01*
X8335324Y-15252174D02*
X8354372Y-15242650D01*
X8354372Y-15242650D02*
X8382943Y-15242650D01*
X8382943Y-15242650D02*
X8401991Y-15252174D01*
X8401991Y-15252174D02*
X8411515Y-15271222D01*
X8411515Y-15271222D02*
X8411515Y-15375984D01*
X8801991Y-15166460D02*
X8630563Y-15423603D01*
X9059134Y-15175984D02*
X9078182Y-15175984D01*
X9078182Y-15175984D02*
X9097229Y-15185508D01*
X9097229Y-15185508D02*
X9106753Y-15195031D01*
X9106753Y-15195031D02*
X9116277Y-15214079D01*
X9116277Y-15214079D02*
X9125801Y-15252174D01*
X9125801Y-15252174D02*
X9125801Y-15299793D01*
X9125801Y-15299793D02*
X9116277Y-15337888D01*
X9116277Y-15337888D02*
X9106753Y-15356936D01*
X9106753Y-15356936D02*
X9097229Y-15366460D01*
X9097229Y-15366460D02*
X9078182Y-15375984D01*
X9078182Y-15375984D02*
X9059134Y-15375984D01*
X9059134Y-15375984D02*
X9040087Y-15366460D01*
X9040087Y-15366460D02*
X9030563Y-15356936D01*
X9030563Y-15356936D02*
X9021039Y-15337888D01*
X9021039Y-15337888D02*
X9011515Y-15299793D01*
X9011515Y-15299793D02*
X9011515Y-15252174D01*
X9011515Y-15252174D02*
X9021039Y-15214079D01*
X9021039Y-15214079D02*
X9030563Y-15195031D01*
X9030563Y-15195031D02*
X9040087Y-15185508D01*
X9040087Y-15185508D02*
X9059134Y-15175984D01*
X9211515Y-15356936D02*
X9221039Y-15366460D01*
X9221039Y-15366460D02*
X9211515Y-15375984D01*
X9211515Y-15375984D02*
X9201991Y-15366460D01*
X9201991Y-15366460D02*
X9211515Y-15356936D01*
X9211515Y-15356936D02*
X9211515Y-15375984D01*
X9344848Y-15175984D02*
X9363896Y-15175984D01*
X9363896Y-15175984D02*
X9382944Y-15185508D01*
X9382944Y-15185508D02*
X9392468Y-15195031D01*
X9392468Y-15195031D02*
X9401991Y-15214079D01*
X9401991Y-15214079D02*
X9411515Y-15252174D01*
X9411515Y-15252174D02*
X9411515Y-15299793D01*
X9411515Y-15299793D02*
X9401991Y-15337888D01*
X9401991Y-15337888D02*
X9392468Y-15356936D01*
X9392468Y-15356936D02*
X9382944Y-15366460D01*
X9382944Y-15366460D02*
X9363896Y-15375984D01*
X9363896Y-15375984D02*
X9344848Y-15375984D01*
X9344848Y-15375984D02*
X9325801Y-15366460D01*
X9325801Y-15366460D02*
X9316277Y-15356936D01*
X9316277Y-15356936D02*
X9306753Y-15337888D01*
X9306753Y-15337888D02*
X9297229Y-15299793D01*
X9297229Y-15299793D02*
X9297229Y-15252174D01*
X9297229Y-15252174D02*
X9306753Y-15214079D01*
X9306753Y-15214079D02*
X9316277Y-15195031D01*
X9316277Y-15195031D02*
X9325801Y-15185508D01*
X9325801Y-15185508D02*
X9344848Y-15175984D01*
X9478182Y-15175984D02*
X9601991Y-15175984D01*
X9601991Y-15175984D02*
X9535325Y-15252174D01*
X9535325Y-15252174D02*
X9563896Y-15252174D01*
X9563896Y-15252174D02*
X9582944Y-15261698D01*
X9582944Y-15261698D02*
X9592468Y-15271222D01*
X9592468Y-15271222D02*
X9601991Y-15290269D01*
X9601991Y-15290269D02*
X9601991Y-15337888D01*
X9601991Y-15337888D02*
X9592468Y-15356936D01*
X9592468Y-15356936D02*
X9582944Y-15366460D01*
X9582944Y-15366460D02*
X9563896Y-15375984D01*
X9563896Y-15375984D02*
X9506753Y-15375984D01*
X9506753Y-15375984D02*
X9487706Y-15366460D01*
X9487706Y-15366460D02*
X9478182Y-15356936D01*
X9782944Y-15175984D02*
X9687706Y-15175984D01*
X9687706Y-15175984D02*
X9678182Y-15271222D01*
X9678182Y-15271222D02*
X9687706Y-15261698D01*
X9687706Y-15261698D02*
X9706753Y-15252174D01*
X9706753Y-15252174D02*
X9754372Y-15252174D01*
X9754372Y-15252174D02*
X9773420Y-15261698D01*
X9773420Y-15261698D02*
X9782944Y-15271222D01*
X9782944Y-15271222D02*
X9792468Y-15290269D01*
X9792468Y-15290269D02*
X9792468Y-15337888D01*
X9792468Y-15337888D02*
X9782944Y-15356936D01*
X9782944Y-15356936D02*
X9773420Y-15366460D01*
X9773420Y-15366460D02*
X9754372Y-15375984D01*
X9754372Y-15375984D02*
X9706753Y-15375984D01*
X9706753Y-15375984D02*
X9687706Y-15366460D01*
X9687706Y-15366460D02*
X9678182Y-15356936D01*
X9963896Y-15242650D02*
X9963896Y-15375984D01*
X9916277Y-15166460D02*
X9868658Y-15309317D01*
X9868658Y-15309317D02*
X9992468Y-15309317D01*
X10059134Y-15175984D02*
X10059134Y-15214079D01*
X10135325Y-15175984D02*
X10135325Y-15214079D01*
X10430563Y-15452174D02*
X10421039Y-15442650D01*
X10421039Y-15442650D02*
X10401991Y-15414079D01*
X10401991Y-15414079D02*
X10392468Y-15395031D01*
X10392468Y-15395031D02*
X10382944Y-15366460D01*
X10382944Y-15366460D02*
X10373420Y-15318841D01*
X10373420Y-15318841D02*
X10373420Y-15280746D01*
X10373420Y-15280746D02*
X10382944Y-15233127D01*
X10382944Y-15233127D02*
X10392468Y-15204555D01*
X10392468Y-15204555D02*
X10401991Y-15185508D01*
X10401991Y-15185508D02*
X10421039Y-15156936D01*
X10421039Y-15156936D02*
X10430563Y-15147412D01*
X10487706Y-15175984D02*
X10611515Y-15175984D01*
X10611515Y-15175984D02*
X10544849Y-15252174D01*
X10544849Y-15252174D02*
X10573420Y-15252174D01*
X10573420Y-15252174D02*
X10592468Y-15261698D01*
X10592468Y-15261698D02*
X10601991Y-15271222D01*
X10601991Y-15271222D02*
X10611515Y-15290269D01*
X10611515Y-15290269D02*
X10611515Y-15337888D01*
X10611515Y-15337888D02*
X10601991Y-15356936D01*
X10601991Y-15356936D02*
X10592468Y-15366460D01*
X10592468Y-15366460D02*
X10573420Y-15375984D01*
X10573420Y-15375984D02*
X10516277Y-15375984D01*
X10516277Y-15375984D02*
X10497230Y-15366460D01*
X10497230Y-15366460D02*
X10487706Y-15356936D01*
X10849611Y-15375984D02*
X10849611Y-15175984D01*
X10935325Y-15375984D02*
X10935325Y-15271222D01*
X10935325Y-15271222D02*
X10925801Y-15252174D01*
X10925801Y-15252174D02*
X10906753Y-15242650D01*
X10906753Y-15242650D02*
X10878182Y-15242650D01*
X10878182Y-15242650D02*
X10859134Y-15252174D01*
X10859134Y-15252174D02*
X10849611Y-15261698D01*
X11059134Y-15375984D02*
X11040087Y-15366460D01*
X11040087Y-15366460D02*
X11030563Y-15356936D01*
X11030563Y-15356936D02*
X11021039Y-15337888D01*
X11021039Y-15337888D02*
X11021039Y-15280746D01*
X11021039Y-15280746D02*
X11030563Y-15261698D01*
X11030563Y-15261698D02*
X11040087Y-15252174D01*
X11040087Y-15252174D02*
X11059134Y-15242650D01*
X11059134Y-15242650D02*
X11087706Y-15242650D01*
X11087706Y-15242650D02*
X11106753Y-15252174D01*
X11106753Y-15252174D02*
X11116277Y-15261698D01*
X11116277Y-15261698D02*
X11125801Y-15280746D01*
X11125801Y-15280746D02*
X11125801Y-15337888D01*
X11125801Y-15337888D02*
X11116277Y-15356936D01*
X11116277Y-15356936D02*
X11106753Y-15366460D01*
X11106753Y-15366460D02*
X11087706Y-15375984D01*
X11087706Y-15375984D02*
X11059134Y-15375984D01*
X11240087Y-15375984D02*
X11221039Y-15366460D01*
X11221039Y-15366460D02*
X11211515Y-15347412D01*
X11211515Y-15347412D02*
X11211515Y-15175984D01*
X11392468Y-15366460D02*
X11373420Y-15375984D01*
X11373420Y-15375984D02*
X11335325Y-15375984D01*
X11335325Y-15375984D02*
X11316277Y-15366460D01*
X11316277Y-15366460D02*
X11306753Y-15347412D01*
X11306753Y-15347412D02*
X11306753Y-15271222D01*
X11306753Y-15271222D02*
X11316277Y-15252174D01*
X11316277Y-15252174D02*
X11335325Y-15242650D01*
X11335325Y-15242650D02*
X11373420Y-15242650D01*
X11373420Y-15242650D02*
X11392468Y-15252174D01*
X11392468Y-15252174D02*
X11401991Y-15271222D01*
X11401991Y-15271222D02*
X11401991Y-15290269D01*
X11401991Y-15290269D02*
X11306753Y-15309317D01*
X11478182Y-15366460D02*
X11497230Y-15375984D01*
X11497230Y-15375984D02*
X11535325Y-15375984D01*
X11535325Y-15375984D02*
X11554372Y-15366460D01*
X11554372Y-15366460D02*
X11563896Y-15347412D01*
X11563896Y-15347412D02*
X11563896Y-15337888D01*
X11563896Y-15337888D02*
X11554372Y-15318841D01*
X11554372Y-15318841D02*
X11535325Y-15309317D01*
X11535325Y-15309317D02*
X11506753Y-15309317D01*
X11506753Y-15309317D02*
X11487706Y-15299793D01*
X11487706Y-15299793D02*
X11478182Y-15280746D01*
X11478182Y-15280746D02*
X11478182Y-15271222D01*
X11478182Y-15271222D02*
X11487706Y-15252174D01*
X11487706Y-15252174D02*
X11506753Y-15242650D01*
X11506753Y-15242650D02*
X11535325Y-15242650D01*
X11535325Y-15242650D02*
X11554372Y-15252174D01*
X11630563Y-15452174D02*
X11640087Y-15442650D01*
X11640087Y-15442650D02*
X11659134Y-15414079D01*
X11659134Y-15414079D02*
X11668658Y-15395031D01*
X11668658Y-15395031D02*
X11678182Y-15366460D01*
X11678182Y-15366460D02*
X11687706Y-15318841D01*
X11687706Y-15318841D02*
X11687706Y-15280746D01*
X11687706Y-15280746D02*
X11678182Y-15233127D01*
X11678182Y-15233127D02*
X11668658Y-15204555D01*
X11668658Y-15204555D02*
X11659134Y-15185508D01*
X11659134Y-15185508D02*
X11640087Y-15156936D01*
X11640087Y-15156936D02*
X11630563Y-15147412D01*
D12*
X6805500Y-15598500D02*
X6855500Y-15548500D01*
X6805500Y-15498500D01*
X6755500Y-15548500D01*
X6805500Y-15598500D01*
D11*
X7221039Y-15639984D02*
X7106753Y-15639984D01*
X7163896Y-15639984D02*
X7163896Y-15439984D01*
X7163896Y-15439984D02*
X7144848Y-15468555D01*
X7144848Y-15468555D02*
X7125801Y-15487603D01*
X7125801Y-15487603D02*
X7106753Y-15497127D01*
X7306753Y-15620936D02*
X7316277Y-15630460D01*
X7316277Y-15630460D02*
X7306753Y-15639984D01*
X7306753Y-15639984D02*
X7297229Y-15630460D01*
X7297229Y-15630460D02*
X7306753Y-15620936D01*
X7306753Y-15620936D02*
X7306753Y-15639984D01*
X7440086Y-15439984D02*
X7459134Y-15439984D01*
X7459134Y-15439984D02*
X7478182Y-15449508D01*
X7478182Y-15449508D02*
X7487705Y-15459031D01*
X7487705Y-15459031D02*
X7497229Y-15478079D01*
X7497229Y-15478079D02*
X7506753Y-15516174D01*
X7506753Y-15516174D02*
X7506753Y-15563793D01*
X7506753Y-15563793D02*
X7497229Y-15601888D01*
X7497229Y-15601888D02*
X7487705Y-15620936D01*
X7487705Y-15620936D02*
X7478182Y-15630460D01*
X7478182Y-15630460D02*
X7459134Y-15639984D01*
X7459134Y-15639984D02*
X7440086Y-15639984D01*
X7440086Y-15639984D02*
X7421039Y-15630460D01*
X7421039Y-15630460D02*
X7411515Y-15620936D01*
X7411515Y-15620936D02*
X7401991Y-15601888D01*
X7401991Y-15601888D02*
X7392467Y-15563793D01*
X7392467Y-15563793D02*
X7392467Y-15516174D01*
X7392467Y-15516174D02*
X7401991Y-15478079D01*
X7401991Y-15478079D02*
X7411515Y-15459031D01*
X7411515Y-15459031D02*
X7421039Y-15449508D01*
X7421039Y-15449508D02*
X7440086Y-15439984D01*
X7630562Y-15439984D02*
X7649610Y-15439984D01*
X7649610Y-15439984D02*
X7668658Y-15449508D01*
X7668658Y-15449508D02*
X7678182Y-15459031D01*
X7678182Y-15459031D02*
X7687705Y-15478079D01*
X7687705Y-15478079D02*
X7697229Y-15516174D01*
X7697229Y-15516174D02*
X7697229Y-15563793D01*
X7697229Y-15563793D02*
X7687705Y-15601888D01*
X7687705Y-15601888D02*
X7678182Y-15620936D01*
X7678182Y-15620936D02*
X7668658Y-15630460D01*
X7668658Y-15630460D02*
X7649610Y-15639984D01*
X7649610Y-15639984D02*
X7630562Y-15639984D01*
X7630562Y-15639984D02*
X7611515Y-15630460D01*
X7611515Y-15630460D02*
X7601991Y-15620936D01*
X7601991Y-15620936D02*
X7592467Y-15601888D01*
X7592467Y-15601888D02*
X7582943Y-15563793D01*
X7582943Y-15563793D02*
X7582943Y-15516174D01*
X7582943Y-15516174D02*
X7592467Y-15478079D01*
X7592467Y-15478079D02*
X7601991Y-15459031D01*
X7601991Y-15459031D02*
X7611515Y-15449508D01*
X7611515Y-15449508D02*
X7630562Y-15439984D01*
X7821039Y-15439984D02*
X7840086Y-15439984D01*
X7840086Y-15439984D02*
X7859134Y-15449508D01*
X7859134Y-15449508D02*
X7868658Y-15459031D01*
X7868658Y-15459031D02*
X7878182Y-15478079D01*
X7878182Y-15478079D02*
X7887705Y-15516174D01*
X7887705Y-15516174D02*
X7887705Y-15563793D01*
X7887705Y-15563793D02*
X7878182Y-15601888D01*
X7878182Y-15601888D02*
X7868658Y-15620936D01*
X7868658Y-15620936D02*
X7859134Y-15630460D01*
X7859134Y-15630460D02*
X7840086Y-15639984D01*
X7840086Y-15639984D02*
X7821039Y-15639984D01*
X7821039Y-15639984D02*
X7801991Y-15630460D01*
X7801991Y-15630460D02*
X7792467Y-15620936D01*
X7792467Y-15620936D02*
X7782943Y-15601888D01*
X7782943Y-15601888D02*
X7773420Y-15563793D01*
X7773420Y-15563793D02*
X7773420Y-15516174D01*
X7773420Y-15516174D02*
X7782943Y-15478079D01*
X7782943Y-15478079D02*
X7792467Y-15459031D01*
X7792467Y-15459031D02*
X7801991Y-15449508D01*
X7801991Y-15449508D02*
X7821039Y-15439984D01*
X7973420Y-15639984D02*
X7973420Y-15506650D01*
X7973420Y-15525698D02*
X7982943Y-15516174D01*
X7982943Y-15516174D02*
X8001991Y-15506650D01*
X8001991Y-15506650D02*
X8030563Y-15506650D01*
X8030563Y-15506650D02*
X8049610Y-15516174D01*
X8049610Y-15516174D02*
X8059134Y-15535222D01*
X8059134Y-15535222D02*
X8059134Y-15639984D01*
X8059134Y-15535222D02*
X8068658Y-15516174D01*
X8068658Y-15516174D02*
X8087705Y-15506650D01*
X8087705Y-15506650D02*
X8116277Y-15506650D01*
X8116277Y-15506650D02*
X8135324Y-15516174D01*
X8135324Y-15516174D02*
X8144848Y-15535222D01*
X8144848Y-15535222D02*
X8144848Y-15639984D01*
X8240086Y-15639984D02*
X8240086Y-15506650D01*
X8240086Y-15525698D02*
X8249610Y-15516174D01*
X8249610Y-15516174D02*
X8268658Y-15506650D01*
X8268658Y-15506650D02*
X8297229Y-15506650D01*
X8297229Y-15506650D02*
X8316277Y-15516174D01*
X8316277Y-15516174D02*
X8325801Y-15535222D01*
X8325801Y-15535222D02*
X8325801Y-15639984D01*
X8325801Y-15535222D02*
X8335324Y-15516174D01*
X8335324Y-15516174D02*
X8354372Y-15506650D01*
X8354372Y-15506650D02*
X8382943Y-15506650D01*
X8382943Y-15506650D02*
X8401991Y-15516174D01*
X8401991Y-15516174D02*
X8411515Y-15535222D01*
X8411515Y-15535222D02*
X8411515Y-15639984D01*
X8801991Y-15430460D02*
X8630563Y-15687603D01*
X9059134Y-15439984D02*
X9078182Y-15439984D01*
X9078182Y-15439984D02*
X9097229Y-15449508D01*
X9097229Y-15449508D02*
X9106753Y-15459031D01*
X9106753Y-15459031D02*
X9116277Y-15478079D01*
X9116277Y-15478079D02*
X9125801Y-15516174D01*
X9125801Y-15516174D02*
X9125801Y-15563793D01*
X9125801Y-15563793D02*
X9116277Y-15601888D01*
X9116277Y-15601888D02*
X9106753Y-15620936D01*
X9106753Y-15620936D02*
X9097229Y-15630460D01*
X9097229Y-15630460D02*
X9078182Y-15639984D01*
X9078182Y-15639984D02*
X9059134Y-15639984D01*
X9059134Y-15639984D02*
X9040087Y-15630460D01*
X9040087Y-15630460D02*
X9030563Y-15620936D01*
X9030563Y-15620936D02*
X9021039Y-15601888D01*
X9021039Y-15601888D02*
X9011515Y-15563793D01*
X9011515Y-15563793D02*
X9011515Y-15516174D01*
X9011515Y-15516174D02*
X9021039Y-15478079D01*
X9021039Y-15478079D02*
X9030563Y-15459031D01*
X9030563Y-15459031D02*
X9040087Y-15449508D01*
X9040087Y-15449508D02*
X9059134Y-15439984D01*
X9211515Y-15620936D02*
X9221039Y-15630460D01*
X9221039Y-15630460D02*
X9211515Y-15639984D01*
X9211515Y-15639984D02*
X9201991Y-15630460D01*
X9201991Y-15630460D02*
X9211515Y-15620936D01*
X9211515Y-15620936D02*
X9211515Y-15639984D01*
X9344848Y-15439984D02*
X9363896Y-15439984D01*
X9363896Y-15439984D02*
X9382944Y-15449508D01*
X9382944Y-15449508D02*
X9392468Y-15459031D01*
X9392468Y-15459031D02*
X9401991Y-15478079D01*
X9401991Y-15478079D02*
X9411515Y-15516174D01*
X9411515Y-15516174D02*
X9411515Y-15563793D01*
X9411515Y-15563793D02*
X9401991Y-15601888D01*
X9401991Y-15601888D02*
X9392468Y-15620936D01*
X9392468Y-15620936D02*
X9382944Y-15630460D01*
X9382944Y-15630460D02*
X9363896Y-15639984D01*
X9363896Y-15639984D02*
X9344848Y-15639984D01*
X9344848Y-15639984D02*
X9325801Y-15630460D01*
X9325801Y-15630460D02*
X9316277Y-15620936D01*
X9316277Y-15620936D02*
X9306753Y-15601888D01*
X9306753Y-15601888D02*
X9297229Y-15563793D01*
X9297229Y-15563793D02*
X9297229Y-15516174D01*
X9297229Y-15516174D02*
X9306753Y-15478079D01*
X9306753Y-15478079D02*
X9316277Y-15459031D01*
X9316277Y-15459031D02*
X9325801Y-15449508D01*
X9325801Y-15449508D02*
X9344848Y-15439984D01*
X9478182Y-15439984D02*
X9601991Y-15439984D01*
X9601991Y-15439984D02*
X9535325Y-15516174D01*
X9535325Y-15516174D02*
X9563896Y-15516174D01*
X9563896Y-15516174D02*
X9582944Y-15525698D01*
X9582944Y-15525698D02*
X9592468Y-15535222D01*
X9592468Y-15535222D02*
X9601991Y-15554269D01*
X9601991Y-15554269D02*
X9601991Y-15601888D01*
X9601991Y-15601888D02*
X9592468Y-15620936D01*
X9592468Y-15620936D02*
X9582944Y-15630460D01*
X9582944Y-15630460D02*
X9563896Y-15639984D01*
X9563896Y-15639984D02*
X9506753Y-15639984D01*
X9506753Y-15639984D02*
X9487706Y-15630460D01*
X9487706Y-15630460D02*
X9478182Y-15620936D01*
X9697229Y-15639984D02*
X9735325Y-15639984D01*
X9735325Y-15639984D02*
X9754372Y-15630460D01*
X9754372Y-15630460D02*
X9763896Y-15620936D01*
X9763896Y-15620936D02*
X9782944Y-15592365D01*
X9782944Y-15592365D02*
X9792468Y-15554269D01*
X9792468Y-15554269D02*
X9792468Y-15478079D01*
X9792468Y-15478079D02*
X9782944Y-15459031D01*
X9782944Y-15459031D02*
X9773420Y-15449508D01*
X9773420Y-15449508D02*
X9754372Y-15439984D01*
X9754372Y-15439984D02*
X9716277Y-15439984D01*
X9716277Y-15439984D02*
X9697229Y-15449508D01*
X9697229Y-15449508D02*
X9687706Y-15459031D01*
X9687706Y-15459031D02*
X9678182Y-15478079D01*
X9678182Y-15478079D02*
X9678182Y-15525698D01*
X9678182Y-15525698D02*
X9687706Y-15544746D01*
X9687706Y-15544746D02*
X9697229Y-15554269D01*
X9697229Y-15554269D02*
X9716277Y-15563793D01*
X9716277Y-15563793D02*
X9754372Y-15563793D01*
X9754372Y-15563793D02*
X9773420Y-15554269D01*
X9773420Y-15554269D02*
X9782944Y-15544746D01*
X9782944Y-15544746D02*
X9792468Y-15525698D01*
X9963896Y-15506650D02*
X9963896Y-15639984D01*
X9916277Y-15430460D02*
X9868658Y-15573317D01*
X9868658Y-15573317D02*
X9992468Y-15573317D01*
X10059134Y-15439984D02*
X10059134Y-15478079D01*
X10135325Y-15439984D02*
X10135325Y-15478079D01*
X10430563Y-15716174D02*
X10421039Y-15706650D01*
X10421039Y-15706650D02*
X10401991Y-15678079D01*
X10401991Y-15678079D02*
X10392468Y-15659031D01*
X10392468Y-15659031D02*
X10382944Y-15630460D01*
X10382944Y-15630460D02*
X10373420Y-15582841D01*
X10373420Y-15582841D02*
X10373420Y-15544746D01*
X10373420Y-15544746D02*
X10382944Y-15497127D01*
X10382944Y-15497127D02*
X10392468Y-15468555D01*
X10392468Y-15468555D02*
X10401991Y-15449508D01*
X10401991Y-15449508D02*
X10421039Y-15420936D01*
X10421039Y-15420936D02*
X10430563Y-15411412D01*
X10611515Y-15639984D02*
X10497230Y-15639984D01*
X10554372Y-15639984D02*
X10554372Y-15439984D01*
X10554372Y-15439984D02*
X10535325Y-15468555D01*
X10535325Y-15468555D02*
X10516277Y-15487603D01*
X10516277Y-15487603D02*
X10497230Y-15497127D01*
X10687706Y-15459031D02*
X10697230Y-15449508D01*
X10697230Y-15449508D02*
X10716277Y-15439984D01*
X10716277Y-15439984D02*
X10763896Y-15439984D01*
X10763896Y-15439984D02*
X10782944Y-15449508D01*
X10782944Y-15449508D02*
X10792468Y-15459031D01*
X10792468Y-15459031D02*
X10801991Y-15478079D01*
X10801991Y-15478079D02*
X10801991Y-15497127D01*
X10801991Y-15497127D02*
X10792468Y-15525698D01*
X10792468Y-15525698D02*
X10678182Y-15639984D01*
X10678182Y-15639984D02*
X10801991Y-15639984D01*
X11040087Y-15639984D02*
X11040087Y-15439984D01*
X11125801Y-15639984D02*
X11125801Y-15535222D01*
X11125801Y-15535222D02*
X11116277Y-15516174D01*
X11116277Y-15516174D02*
X11097230Y-15506650D01*
X11097230Y-15506650D02*
X11068658Y-15506650D01*
X11068658Y-15506650D02*
X11049611Y-15516174D01*
X11049611Y-15516174D02*
X11040087Y-15525698D01*
X11249610Y-15639984D02*
X11230563Y-15630460D01*
X11230563Y-15630460D02*
X11221039Y-15620936D01*
X11221039Y-15620936D02*
X11211515Y-15601888D01*
X11211515Y-15601888D02*
X11211515Y-15544746D01*
X11211515Y-15544746D02*
X11221039Y-15525698D01*
X11221039Y-15525698D02*
X11230563Y-15516174D01*
X11230563Y-15516174D02*
X11249610Y-15506650D01*
X11249610Y-15506650D02*
X11278182Y-15506650D01*
X11278182Y-15506650D02*
X11297230Y-15516174D01*
X11297230Y-15516174D02*
X11306753Y-15525698D01*
X11306753Y-15525698D02*
X11316277Y-15544746D01*
X11316277Y-15544746D02*
X11316277Y-15601888D01*
X11316277Y-15601888D02*
X11306753Y-15620936D01*
X11306753Y-15620936D02*
X11297230Y-15630460D01*
X11297230Y-15630460D02*
X11278182Y-15639984D01*
X11278182Y-15639984D02*
X11249610Y-15639984D01*
X11430563Y-15639984D02*
X11411515Y-15630460D01*
X11411515Y-15630460D02*
X11401991Y-15611412D01*
X11401991Y-15611412D02*
X11401991Y-15439984D01*
X11582944Y-15630460D02*
X11563896Y-15639984D01*
X11563896Y-15639984D02*
X11525801Y-15639984D01*
X11525801Y-15639984D02*
X11506753Y-15630460D01*
X11506753Y-15630460D02*
X11497230Y-15611412D01*
X11497230Y-15611412D02*
X11497230Y-15535222D01*
X11497230Y-15535222D02*
X11506753Y-15516174D01*
X11506753Y-15516174D02*
X11525801Y-15506650D01*
X11525801Y-15506650D02*
X11563896Y-15506650D01*
X11563896Y-15506650D02*
X11582944Y-15516174D01*
X11582944Y-15516174D02*
X11592468Y-15535222D01*
X11592468Y-15535222D02*
X11592468Y-15554269D01*
X11592468Y-15554269D02*
X11497230Y-15573317D01*
X11668658Y-15630460D02*
X11687706Y-15639984D01*
X11687706Y-15639984D02*
X11725801Y-15639984D01*
X11725801Y-15639984D02*
X11744849Y-15630460D01*
X11744849Y-15630460D02*
X11754372Y-15611412D01*
X11754372Y-15611412D02*
X11754372Y-15601888D01*
X11754372Y-15601888D02*
X11744849Y-15582841D01*
X11744849Y-15582841D02*
X11725801Y-15573317D01*
X11725801Y-15573317D02*
X11697230Y-15573317D01*
X11697230Y-15573317D02*
X11678182Y-15563793D01*
X11678182Y-15563793D02*
X11668658Y-15544746D01*
X11668658Y-15544746D02*
X11668658Y-15535222D01*
X11668658Y-15535222D02*
X11678182Y-15516174D01*
X11678182Y-15516174D02*
X11697230Y-15506650D01*
X11697230Y-15506650D02*
X11725801Y-15506650D01*
X11725801Y-15506650D02*
X11744849Y-15516174D01*
X11821039Y-15716174D02*
X11830563Y-15706650D01*
X11830563Y-15706650D02*
X11849611Y-15678079D01*
X11849611Y-15678079D02*
X11859134Y-15659031D01*
X11859134Y-15659031D02*
X11868658Y-15630460D01*
X11868658Y-15630460D02*
X11878182Y-15582841D01*
X11878182Y-15582841D02*
X11878182Y-15544746D01*
X11878182Y-15544746D02*
X11868658Y-15497127D01*
X11868658Y-15497127D02*
X11859134Y-15468555D01*
X11859134Y-15468555D02*
X11849611Y-15449508D01*
X11849611Y-15449508D02*
X11830563Y-15420936D01*
X11830563Y-15420936D02*
X11821039Y-15411412D01*
X6655500Y-15712500D02*
X6855500Y-15912500D01*
X6855500Y-15712500D02*
X6655500Y-15912500D01*
X6855500Y-15812500D02*
G75*
G02*
X6655500Y-15812500I-100000J0D01*
G01*
X6655500Y-15812500D02*
G75*
G02*
X6855500Y-15812500I100000J0D01*
G01*
X7097229Y-15703984D02*
X7221039Y-15703984D01*
X7221039Y-15703984D02*
X7154372Y-15780174D01*
X7154372Y-15780174D02*
X7182943Y-15780174D01*
X7182943Y-15780174D02*
X7201991Y-15789698D01*
X7201991Y-15789698D02*
X7211515Y-15799222D01*
X7211515Y-15799222D02*
X7221039Y-15818269D01*
X7221039Y-15818269D02*
X7221039Y-15865888D01*
X7221039Y-15865888D02*
X7211515Y-15884936D01*
X7211515Y-15884936D02*
X7201991Y-15894460D01*
X7201991Y-15894460D02*
X7182943Y-15903984D01*
X7182943Y-15903984D02*
X7125801Y-15903984D01*
X7125801Y-15903984D02*
X7106753Y-15894460D01*
X7106753Y-15894460D02*
X7097229Y-15884936D01*
X7306753Y-15884936D02*
X7316277Y-15894460D01*
X7316277Y-15894460D02*
X7306753Y-15903984D01*
X7306753Y-15903984D02*
X7297229Y-15894460D01*
X7297229Y-15894460D02*
X7306753Y-15884936D01*
X7306753Y-15884936D02*
X7306753Y-15903984D01*
X7392467Y-15723031D02*
X7401991Y-15713508D01*
X7401991Y-15713508D02*
X7421039Y-15703984D01*
X7421039Y-15703984D02*
X7468658Y-15703984D01*
X7468658Y-15703984D02*
X7487705Y-15713508D01*
X7487705Y-15713508D02*
X7497229Y-15723031D01*
X7497229Y-15723031D02*
X7506753Y-15742079D01*
X7506753Y-15742079D02*
X7506753Y-15761127D01*
X7506753Y-15761127D02*
X7497229Y-15789698D01*
X7497229Y-15789698D02*
X7382943Y-15903984D01*
X7382943Y-15903984D02*
X7506753Y-15903984D01*
X7630562Y-15703984D02*
X7649610Y-15703984D01*
X7649610Y-15703984D02*
X7668658Y-15713508D01*
X7668658Y-15713508D02*
X7678182Y-15723031D01*
X7678182Y-15723031D02*
X7687705Y-15742079D01*
X7687705Y-15742079D02*
X7697229Y-15780174D01*
X7697229Y-15780174D02*
X7697229Y-15827793D01*
X7697229Y-15827793D02*
X7687705Y-15865888D01*
X7687705Y-15865888D02*
X7678182Y-15884936D01*
X7678182Y-15884936D02*
X7668658Y-15894460D01*
X7668658Y-15894460D02*
X7649610Y-15903984D01*
X7649610Y-15903984D02*
X7630562Y-15903984D01*
X7630562Y-15903984D02*
X7611515Y-15894460D01*
X7611515Y-15894460D02*
X7601991Y-15884936D01*
X7601991Y-15884936D02*
X7592467Y-15865888D01*
X7592467Y-15865888D02*
X7582943Y-15827793D01*
X7582943Y-15827793D02*
X7582943Y-15780174D01*
X7582943Y-15780174D02*
X7592467Y-15742079D01*
X7592467Y-15742079D02*
X7601991Y-15723031D01*
X7601991Y-15723031D02*
X7611515Y-15713508D01*
X7611515Y-15713508D02*
X7630562Y-15703984D01*
X7821039Y-15703984D02*
X7840086Y-15703984D01*
X7840086Y-15703984D02*
X7859134Y-15713508D01*
X7859134Y-15713508D02*
X7868658Y-15723031D01*
X7868658Y-15723031D02*
X7878182Y-15742079D01*
X7878182Y-15742079D02*
X7887705Y-15780174D01*
X7887705Y-15780174D02*
X7887705Y-15827793D01*
X7887705Y-15827793D02*
X7878182Y-15865888D01*
X7878182Y-15865888D02*
X7868658Y-15884936D01*
X7868658Y-15884936D02*
X7859134Y-15894460D01*
X7859134Y-15894460D02*
X7840086Y-15903984D01*
X7840086Y-15903984D02*
X7821039Y-15903984D01*
X7821039Y-15903984D02*
X7801991Y-15894460D01*
X7801991Y-15894460D02*
X7792467Y-15884936D01*
X7792467Y-15884936D02*
X7782943Y-15865888D01*
X7782943Y-15865888D02*
X7773420Y-15827793D01*
X7773420Y-15827793D02*
X7773420Y-15780174D01*
X7773420Y-15780174D02*
X7782943Y-15742079D01*
X7782943Y-15742079D02*
X7792467Y-15723031D01*
X7792467Y-15723031D02*
X7801991Y-15713508D01*
X7801991Y-15713508D02*
X7821039Y-15703984D01*
X7973420Y-15903984D02*
X7973420Y-15770650D01*
X7973420Y-15789698D02*
X7982943Y-15780174D01*
X7982943Y-15780174D02*
X8001991Y-15770650D01*
X8001991Y-15770650D02*
X8030563Y-15770650D01*
X8030563Y-15770650D02*
X8049610Y-15780174D01*
X8049610Y-15780174D02*
X8059134Y-15799222D01*
X8059134Y-15799222D02*
X8059134Y-15903984D01*
X8059134Y-15799222D02*
X8068658Y-15780174D01*
X8068658Y-15780174D02*
X8087705Y-15770650D01*
X8087705Y-15770650D02*
X8116277Y-15770650D01*
X8116277Y-15770650D02*
X8135324Y-15780174D01*
X8135324Y-15780174D02*
X8144848Y-15799222D01*
X8144848Y-15799222D02*
X8144848Y-15903984D01*
X8240086Y-15903984D02*
X8240086Y-15770650D01*
X8240086Y-15789698D02*
X8249610Y-15780174D01*
X8249610Y-15780174D02*
X8268658Y-15770650D01*
X8268658Y-15770650D02*
X8297229Y-15770650D01*
X8297229Y-15770650D02*
X8316277Y-15780174D01*
X8316277Y-15780174D02*
X8325801Y-15799222D01*
X8325801Y-15799222D02*
X8325801Y-15903984D01*
X8325801Y-15799222D02*
X8335324Y-15780174D01*
X8335324Y-15780174D02*
X8354372Y-15770650D01*
X8354372Y-15770650D02*
X8382943Y-15770650D01*
X8382943Y-15770650D02*
X8401991Y-15780174D01*
X8401991Y-15780174D02*
X8411515Y-15799222D01*
X8411515Y-15799222D02*
X8411515Y-15903984D01*
X8801991Y-15694460D02*
X8630563Y-15951603D01*
X9059134Y-15703984D02*
X9078182Y-15703984D01*
X9078182Y-15703984D02*
X9097229Y-15713508D01*
X9097229Y-15713508D02*
X9106753Y-15723031D01*
X9106753Y-15723031D02*
X9116277Y-15742079D01*
X9116277Y-15742079D02*
X9125801Y-15780174D01*
X9125801Y-15780174D02*
X9125801Y-15827793D01*
X9125801Y-15827793D02*
X9116277Y-15865888D01*
X9116277Y-15865888D02*
X9106753Y-15884936D01*
X9106753Y-15884936D02*
X9097229Y-15894460D01*
X9097229Y-15894460D02*
X9078182Y-15903984D01*
X9078182Y-15903984D02*
X9059134Y-15903984D01*
X9059134Y-15903984D02*
X9040087Y-15894460D01*
X9040087Y-15894460D02*
X9030563Y-15884936D01*
X9030563Y-15884936D02*
X9021039Y-15865888D01*
X9021039Y-15865888D02*
X9011515Y-15827793D01*
X9011515Y-15827793D02*
X9011515Y-15780174D01*
X9011515Y-15780174D02*
X9021039Y-15742079D01*
X9021039Y-15742079D02*
X9030563Y-15723031D01*
X9030563Y-15723031D02*
X9040087Y-15713508D01*
X9040087Y-15713508D02*
X9059134Y-15703984D01*
X9211515Y-15884936D02*
X9221039Y-15894460D01*
X9221039Y-15894460D02*
X9211515Y-15903984D01*
X9211515Y-15903984D02*
X9201991Y-15894460D01*
X9201991Y-15894460D02*
X9211515Y-15884936D01*
X9211515Y-15884936D02*
X9211515Y-15903984D01*
X9411515Y-15903984D02*
X9297229Y-15903984D01*
X9354372Y-15903984D02*
X9354372Y-15703984D01*
X9354372Y-15703984D02*
X9335325Y-15732555D01*
X9335325Y-15732555D02*
X9316277Y-15751603D01*
X9316277Y-15751603D02*
X9297229Y-15761127D01*
X9487706Y-15723031D02*
X9497229Y-15713508D01*
X9497229Y-15713508D02*
X9516277Y-15703984D01*
X9516277Y-15703984D02*
X9563896Y-15703984D01*
X9563896Y-15703984D02*
X9582944Y-15713508D01*
X9582944Y-15713508D02*
X9592468Y-15723031D01*
X9592468Y-15723031D02*
X9601991Y-15742079D01*
X9601991Y-15742079D02*
X9601991Y-15761127D01*
X9601991Y-15761127D02*
X9592468Y-15789698D01*
X9592468Y-15789698D02*
X9478182Y-15903984D01*
X9478182Y-15903984D02*
X9601991Y-15903984D01*
X9773420Y-15703984D02*
X9735325Y-15703984D01*
X9735325Y-15703984D02*
X9716277Y-15713508D01*
X9716277Y-15713508D02*
X9706753Y-15723031D01*
X9706753Y-15723031D02*
X9687706Y-15751603D01*
X9687706Y-15751603D02*
X9678182Y-15789698D01*
X9678182Y-15789698D02*
X9678182Y-15865888D01*
X9678182Y-15865888D02*
X9687706Y-15884936D01*
X9687706Y-15884936D02*
X9697229Y-15894460D01*
X9697229Y-15894460D02*
X9716277Y-15903984D01*
X9716277Y-15903984D02*
X9754372Y-15903984D01*
X9754372Y-15903984D02*
X9773420Y-15894460D01*
X9773420Y-15894460D02*
X9782944Y-15884936D01*
X9782944Y-15884936D02*
X9792468Y-15865888D01*
X9792468Y-15865888D02*
X9792468Y-15818269D01*
X9792468Y-15818269D02*
X9782944Y-15799222D01*
X9782944Y-15799222D02*
X9773420Y-15789698D01*
X9773420Y-15789698D02*
X9754372Y-15780174D01*
X9754372Y-15780174D02*
X9716277Y-15780174D01*
X9716277Y-15780174D02*
X9697229Y-15789698D01*
X9697229Y-15789698D02*
X9687706Y-15799222D01*
X9687706Y-15799222D02*
X9678182Y-15818269D01*
X9916277Y-15703984D02*
X9935325Y-15703984D01*
X9935325Y-15703984D02*
X9954372Y-15713508D01*
X9954372Y-15713508D02*
X9963896Y-15723031D01*
X9963896Y-15723031D02*
X9973420Y-15742079D01*
X9973420Y-15742079D02*
X9982944Y-15780174D01*
X9982944Y-15780174D02*
X9982944Y-15827793D01*
X9982944Y-15827793D02*
X9973420Y-15865888D01*
X9973420Y-15865888D02*
X9963896Y-15884936D01*
X9963896Y-15884936D02*
X9954372Y-15894460D01*
X9954372Y-15894460D02*
X9935325Y-15903984D01*
X9935325Y-15903984D02*
X9916277Y-15903984D01*
X9916277Y-15903984D02*
X9897229Y-15894460D01*
X9897229Y-15894460D02*
X9887706Y-15884936D01*
X9887706Y-15884936D02*
X9878182Y-15865888D01*
X9878182Y-15865888D02*
X9868658Y-15827793D01*
X9868658Y-15827793D02*
X9868658Y-15780174D01*
X9868658Y-15780174D02*
X9878182Y-15742079D01*
X9878182Y-15742079D02*
X9887706Y-15723031D01*
X9887706Y-15723031D02*
X9897229Y-15713508D01*
X9897229Y-15713508D02*
X9916277Y-15703984D01*
X10059134Y-15703984D02*
X10059134Y-15742079D01*
X10135325Y-15703984D02*
X10135325Y-15742079D01*
X10430563Y-15980174D02*
X10421039Y-15970650D01*
X10421039Y-15970650D02*
X10401991Y-15942079D01*
X10401991Y-15942079D02*
X10392468Y-15923031D01*
X10392468Y-15923031D02*
X10382944Y-15894460D01*
X10382944Y-15894460D02*
X10373420Y-15846841D01*
X10373420Y-15846841D02*
X10373420Y-15808746D01*
X10373420Y-15808746D02*
X10382944Y-15761127D01*
X10382944Y-15761127D02*
X10392468Y-15732555D01*
X10392468Y-15732555D02*
X10401991Y-15713508D01*
X10401991Y-15713508D02*
X10421039Y-15684936D01*
X10421039Y-15684936D02*
X10430563Y-15675412D01*
X10592468Y-15770650D02*
X10592468Y-15903984D01*
X10544849Y-15694460D02*
X10497230Y-15837317D01*
X10497230Y-15837317D02*
X10621039Y-15837317D01*
X10849611Y-15903984D02*
X10849611Y-15703984D01*
X10935325Y-15903984D02*
X10935325Y-15799222D01*
X10935325Y-15799222D02*
X10925801Y-15780174D01*
X10925801Y-15780174D02*
X10906753Y-15770650D01*
X10906753Y-15770650D02*
X10878182Y-15770650D01*
X10878182Y-15770650D02*
X10859134Y-15780174D01*
X10859134Y-15780174D02*
X10849611Y-15789698D01*
X11059134Y-15903984D02*
X11040087Y-15894460D01*
X11040087Y-15894460D02*
X11030563Y-15884936D01*
X11030563Y-15884936D02*
X11021039Y-15865888D01*
X11021039Y-15865888D02*
X11021039Y-15808746D01*
X11021039Y-15808746D02*
X11030563Y-15789698D01*
X11030563Y-15789698D02*
X11040087Y-15780174D01*
X11040087Y-15780174D02*
X11059134Y-15770650D01*
X11059134Y-15770650D02*
X11087706Y-15770650D01*
X11087706Y-15770650D02*
X11106753Y-15780174D01*
X11106753Y-15780174D02*
X11116277Y-15789698D01*
X11116277Y-15789698D02*
X11125801Y-15808746D01*
X11125801Y-15808746D02*
X11125801Y-15865888D01*
X11125801Y-15865888D02*
X11116277Y-15884936D01*
X11116277Y-15884936D02*
X11106753Y-15894460D01*
X11106753Y-15894460D02*
X11087706Y-15903984D01*
X11087706Y-15903984D02*
X11059134Y-15903984D01*
X11240087Y-15903984D02*
X11221039Y-15894460D01*
X11221039Y-15894460D02*
X11211515Y-15875412D01*
X11211515Y-15875412D02*
X11211515Y-15703984D01*
X11392468Y-15894460D02*
X11373420Y-15903984D01*
X11373420Y-15903984D02*
X11335325Y-15903984D01*
X11335325Y-15903984D02*
X11316277Y-15894460D01*
X11316277Y-15894460D02*
X11306753Y-15875412D01*
X11306753Y-15875412D02*
X11306753Y-15799222D01*
X11306753Y-15799222D02*
X11316277Y-15780174D01*
X11316277Y-15780174D02*
X11335325Y-15770650D01*
X11335325Y-15770650D02*
X11373420Y-15770650D01*
X11373420Y-15770650D02*
X11392468Y-15780174D01*
X11392468Y-15780174D02*
X11401991Y-15799222D01*
X11401991Y-15799222D02*
X11401991Y-15818269D01*
X11401991Y-15818269D02*
X11306753Y-15837317D01*
X11478182Y-15894460D02*
X11497230Y-15903984D01*
X11497230Y-15903984D02*
X11535325Y-15903984D01*
X11535325Y-15903984D02*
X11554372Y-15894460D01*
X11554372Y-15894460D02*
X11563896Y-15875412D01*
X11563896Y-15875412D02*
X11563896Y-15865888D01*
X11563896Y-15865888D02*
X11554372Y-15846841D01*
X11554372Y-15846841D02*
X11535325Y-15837317D01*
X11535325Y-15837317D02*
X11506753Y-15837317D01*
X11506753Y-15837317D02*
X11487706Y-15827793D01*
X11487706Y-15827793D02*
X11478182Y-15808746D01*
X11478182Y-15808746D02*
X11478182Y-15799222D01*
X11478182Y-15799222D02*
X11487706Y-15780174D01*
X11487706Y-15780174D02*
X11506753Y-15770650D01*
X11506753Y-15770650D02*
X11535325Y-15770650D01*
X11535325Y-15770650D02*
X11554372Y-15780174D01*
X11630563Y-15980174D02*
X11640087Y-15970650D01*
X11640087Y-15970650D02*
X11659134Y-15942079D01*
X11659134Y-15942079D02*
X11668658Y-15923031D01*
X11668658Y-15923031D02*
X11678182Y-15894460D01*
X11678182Y-15894460D02*
X11687706Y-15846841D01*
X11687706Y-15846841D02*
X11687706Y-15808746D01*
X11687706Y-15808746D02*
X11678182Y-15761127D01*
X11678182Y-15761127D02*
X11668658Y-15732555D01*
X11668658Y-15732555D02*
X11659134Y-15713508D01*
X11659134Y-15713508D02*
X11640087Y-15684936D01*
X11640087Y-15684936D02*
X11630563Y-15675412D01*
M02*
