%TF.GenerationSoftware,KiCad,Pcbnew,8.0.5*%
%TF.CreationDate,2024-09-20T19:17:28+02:00*%
%TF.ProjectId,Symetric12VPS,53796d65-7472-4696-9331-325650532e6b,rev?*%
%TF.SameCoordinates,Original*%
%TF.FileFunction,Drillmap*%
%TF.FilePolarity,Positive*%
%FSLAX45Y45*%
G04 Gerber Fmt 4.5, Leading zero omitted, Abs format (unit mm)*
G04 Created by KiCad (PCBNEW 8.0.5) date 2024-09-20 19:17:28*
%MOMM*%
%LPD*%
G01*
G04 APERTURE LIST*
%ADD10C,0.050000*%
%ADD11C,0.200000*%
G04 APERTURE END LIST*
D10*
X9262110Y-8252460D02*
X20438110Y-8252460D01*
X20438110Y-8252460D02*
X20438110Y-12748260D01*
X9262110Y-12748260D02*
X9262110Y-8252460D01*
X20438110Y-12748260D02*
X9262110Y-12748260D01*
D11*
X9520387Y-13062244D02*
X9520387Y-12862244D01*
X9520387Y-12862244D02*
X9568006Y-12862244D01*
X9568006Y-12862244D02*
X9596577Y-12871768D01*
X9596577Y-12871768D02*
X9615625Y-12890815D01*
X9615625Y-12890815D02*
X9625149Y-12909863D01*
X9625149Y-12909863D02*
X9634673Y-12947958D01*
X9634673Y-12947958D02*
X9634673Y-12976529D01*
X9634673Y-12976529D02*
X9625149Y-13014625D01*
X9625149Y-13014625D02*
X9615625Y-13033672D01*
X9615625Y-13033672D02*
X9596577Y-13052720D01*
X9596577Y-13052720D02*
X9568006Y-13062244D01*
X9568006Y-13062244D02*
X9520387Y-13062244D01*
X9720387Y-13062244D02*
X9720387Y-12928910D01*
X9720387Y-12967006D02*
X9729911Y-12947958D01*
X9729911Y-12947958D02*
X9739434Y-12938434D01*
X9739434Y-12938434D02*
X9758482Y-12928910D01*
X9758482Y-12928910D02*
X9777530Y-12928910D01*
X9844196Y-13062244D02*
X9844196Y-12928910D01*
X9844196Y-12862244D02*
X9834673Y-12871768D01*
X9834673Y-12871768D02*
X9844196Y-12881291D01*
X9844196Y-12881291D02*
X9853720Y-12871768D01*
X9853720Y-12871768D02*
X9844196Y-12862244D01*
X9844196Y-12862244D02*
X9844196Y-12881291D01*
X9968006Y-13062244D02*
X9948958Y-13052720D01*
X9948958Y-13052720D02*
X9939434Y-13033672D01*
X9939434Y-13033672D02*
X9939434Y-12862244D01*
X10072768Y-13062244D02*
X10053720Y-13052720D01*
X10053720Y-13052720D02*
X10044196Y-13033672D01*
X10044196Y-13033672D02*
X10044196Y-12862244D01*
X10301339Y-13062244D02*
X10301339Y-12862244D01*
X10301339Y-12862244D02*
X10368006Y-13005101D01*
X10368006Y-13005101D02*
X10434673Y-12862244D01*
X10434673Y-12862244D02*
X10434673Y-13062244D01*
X10615625Y-13062244D02*
X10615625Y-12957482D01*
X10615625Y-12957482D02*
X10606101Y-12938434D01*
X10606101Y-12938434D02*
X10587054Y-12928910D01*
X10587054Y-12928910D02*
X10548958Y-12928910D01*
X10548958Y-12928910D02*
X10529911Y-12938434D01*
X10615625Y-13052720D02*
X10596577Y-13062244D01*
X10596577Y-13062244D02*
X10548958Y-13062244D01*
X10548958Y-13062244D02*
X10529911Y-13052720D01*
X10529911Y-13052720D02*
X10520387Y-13033672D01*
X10520387Y-13033672D02*
X10520387Y-13014625D01*
X10520387Y-13014625D02*
X10529911Y-12995577D01*
X10529911Y-12995577D02*
X10548958Y-12986053D01*
X10548958Y-12986053D02*
X10596577Y-12986053D01*
X10596577Y-12986053D02*
X10615625Y-12976529D01*
X10710863Y-12928910D02*
X10710863Y-13128910D01*
X10710863Y-12938434D02*
X10729911Y-12928910D01*
X10729911Y-12928910D02*
X10768006Y-12928910D01*
X10768006Y-12928910D02*
X10787054Y-12938434D01*
X10787054Y-12938434D02*
X10796577Y-12947958D01*
X10796577Y-12947958D02*
X10806101Y-12967006D01*
X10806101Y-12967006D02*
X10806101Y-13024148D01*
X10806101Y-13024148D02*
X10796577Y-13043196D01*
X10796577Y-13043196D02*
X10787054Y-13052720D01*
X10787054Y-13052720D02*
X10768006Y-13062244D01*
X10768006Y-13062244D02*
X10729911Y-13062244D01*
X10729911Y-13062244D02*
X10710863Y-13052720D01*
X10891815Y-13043196D02*
X10901339Y-13052720D01*
X10901339Y-13052720D02*
X10891815Y-13062244D01*
X10891815Y-13062244D02*
X10882292Y-13052720D01*
X10882292Y-13052720D02*
X10891815Y-13043196D01*
X10891815Y-13043196D02*
X10891815Y-13062244D01*
X10891815Y-12938434D02*
X10901339Y-12947958D01*
X10901339Y-12947958D02*
X10891815Y-12957482D01*
X10891815Y-12957482D02*
X10882292Y-12947958D01*
X10882292Y-12947958D02*
X10891815Y-12938434D01*
X10891815Y-12938434D02*
X10891815Y-12957482D01*
M02*
