%TF.GenerationSoftware,KiCad,Pcbnew,8.0.5*%
%TF.CreationDate,2024-09-20T19:17:19+02:00*%
%TF.ProjectId,Symetric12VPS,53796d65-7472-4696-9331-325650532e6b,rev?*%
%TF.SameCoordinates,Original*%
%TF.FileFunction,Soldermask,Top*%
%TF.FilePolarity,Negative*%
%FSLAX46Y46*%
G04 Gerber Fmt 4.6, Leading zero omitted, Abs format (unit mm)*
G04 Created by KiCad (PCBNEW 8.0.5) date 2024-09-20 19:17:19*
%MOMM*%
%LPD*%
G01*
G04 APERTURE LIST*
G04 Aperture macros list*
%AMRoundRect*
0 Rectangle with rounded corners*
0 $1 Rounding radius*
0 $2 $3 $4 $5 $6 $7 $8 $9 X,Y pos of 4 corners*
0 Add a 4 corners polygon primitive as box body*
4,1,4,$2,$3,$4,$5,$6,$7,$8,$9,$2,$3,0*
0 Add four circle primitives for the rounded corners*
1,1,$1+$1,$2,$3*
1,1,$1+$1,$4,$5*
1,1,$1+$1,$6,$7*
1,1,$1+$1,$8,$9*
0 Add four rect primitives between the rounded corners*
20,1,$1+$1,$2,$3,$4,$5,0*
20,1,$1+$1,$4,$5,$6,$7,0*
20,1,$1+$1,$6,$7,$8,$9,0*
20,1,$1+$1,$8,$9,$2,$3,0*%
G04 Aperture macros list end*
%ADD10RoundRect,0.101600X0.775000X-0.775000X0.775000X0.775000X-0.775000X0.775000X-0.775000X-0.775000X0*%
%ADD11C,1.753200*%
%ADD12RoundRect,0.101600X-0.650000X-0.650000X0.650000X-0.650000X0.650000X0.650000X-0.650000X0.650000X0*%
%ADD13C,1.503200*%
%ADD14RoundRect,0.101600X0.775000X0.775000X-0.775000X0.775000X-0.775000X-0.775000X0.775000X-0.775000X0*%
%ADD15RoundRect,0.101600X-0.775000X0.775000X-0.775000X-0.775000X0.775000X-0.775000X0.775000X0.775000X0*%
%ADD16C,6.553200*%
%ADD17RoundRect,0.101600X-0.850000X0.850000X-0.850000X-0.850000X0.850000X-0.850000X0.850000X0.850000X0*%
%ADD18C,1.903200*%
%ADD19RoundRect,0.538300X-0.538300X0.538300X-0.538300X-0.538300X0.538300X-0.538300X0.538300X0.538300X0*%
%ADD20C,2.153200*%
%ADD21RoundRect,0.101600X-0.775000X-0.775000X0.775000X-0.775000X0.775000X0.775000X-0.775000X0.775000X0*%
%ADD22RoundRect,0.101600X0.650000X0.650000X-0.650000X0.650000X-0.650000X-0.650000X0.650000X-0.650000X0*%
%ADD23RoundRect,0.538300X0.538300X-0.538300X0.538300X0.538300X-0.538300X0.538300X-0.538300X-0.538300X0*%
G04 APERTURE END LIST*
D10*
%TO.C,C2*%
X141135100Y-98466600D03*
D11*
X141135100Y-90966590D03*
%TD*%
D12*
%TO.C,C4*%
X177448620Y-89339110D03*
D13*
X179988620Y-89339110D03*
%TD*%
D12*
%TO.C,C5*%
X177448620Y-103381610D03*
D13*
X179988620Y-103381610D03*
%TD*%
D14*
%TO.C,D2*%
X108618120Y-94716600D03*
D11*
X99738080Y-94716600D03*
%TD*%
D15*
%TO.C,C7*%
X141135100Y-111794590D03*
D11*
X141135100Y-119294600D03*
%TD*%
D16*
%TO.C,*%
X96812100Y-86715600D03*
%TD*%
%TO.C,*%
X96812100Y-123291600D03*
%TD*%
D10*
%TO.C,C3*%
X160693100Y-98466600D03*
D11*
X160693100Y-90966590D03*
%TD*%
D17*
%TO.C,U1*%
X178523600Y-93843960D03*
D18*
X178523600Y-96383960D03*
X178523600Y-98923960D03*
%TD*%
D19*
%TO.C,J1*%
X99738080Y-102884580D03*
D20*
X99738080Y-107884570D03*
%TD*%
D10*
%TO.C,C1*%
X121309590Y-98378720D03*
D11*
X121309590Y-90878710D03*
%TD*%
D16*
%TO.C,*%
X200190100Y-123291600D03*
%TD*%
D17*
%TO.C,U2*%
X178523600Y-111270490D03*
D18*
X178523600Y-113810490D03*
X178523600Y-116350490D03*
%TD*%
D21*
%TO.C,D3*%
X99738080Y-115544600D03*
D11*
X108618120Y-115544600D03*
%TD*%
D15*
%TO.C,C6*%
X121323100Y-111794590D03*
D11*
X121323100Y-119294600D03*
%TD*%
D22*
%TO.C,C10*%
X179901850Y-121096020D03*
D13*
X177361850Y-121096020D03*
%TD*%
D15*
%TO.C,C8*%
X160693100Y-111794590D03*
D11*
X160693100Y-119294600D03*
%TD*%
D12*
%TO.C,C9*%
X177448620Y-106710170D03*
D13*
X179988620Y-106710170D03*
%TD*%
D16*
%TO.C,*%
X200190100Y-86715600D03*
%TD*%
D23*
%TO.C,J2*%
X197319100Y-109674590D03*
D20*
X197319100Y-104674600D03*
X197319100Y-99674610D03*
%TD*%
D15*
%TO.C,D1*%
X173049240Y-91943940D03*
D11*
X173049240Y-100823930D03*
%TD*%
M02*
