%TF.GenerationSoftware,KiCad,Pcbnew,8.0.5*%
%TF.CreationDate,2024-09-20T19:17:18+02:00*%
%TF.ProjectId,Symetric12VPS,53796d65-7472-4696-9331-325650532e6b,rev?*%
%TF.SameCoordinates,Original*%
%TF.FileFunction,Copper,L1,Top*%
%TF.FilePolarity,Positive*%
%FSLAX46Y46*%
G04 Gerber Fmt 4.6, Leading zero omitted, Abs format (unit mm)*
G04 Created by KiCad (PCBNEW 8.0.5) date 2024-09-20 19:17:18*
%MOMM*%
%LPD*%
G01*
G04 APERTURE LIST*
G04 Aperture macros list*
%AMRoundRect*
0 Rectangle with rounded corners*
0 $1 Rounding radius*
0 $2 $3 $4 $5 $6 $7 $8 $9 X,Y pos of 4 corners*
0 Add a 4 corners polygon primitive as box body*
4,1,4,$2,$3,$4,$5,$6,$7,$8,$9,$2,$3,0*
0 Add four circle primitives for the rounded corners*
1,1,$1+$1,$2,$3*
1,1,$1+$1,$4,$5*
1,1,$1+$1,$6,$7*
1,1,$1+$1,$8,$9*
0 Add four rect primitives between the rounded corners*
20,1,$1+$1,$2,$3,$4,$5,0*
20,1,$1+$1,$4,$5,$6,$7,0*
20,1,$1+$1,$6,$7,$8,$9,0*
20,1,$1+$1,$8,$9,$2,$3,0*%
G04 Aperture macros list end*
%TA.AperFunction,ComponentPad*%
%ADD10R,1.550000X1.550000*%
%TD*%
%TA.AperFunction,ComponentPad*%
%ADD11C,1.550000*%
%TD*%
%TA.AperFunction,ComponentPad*%
%ADD12R,1.300000X1.300000*%
%TD*%
%TA.AperFunction,ComponentPad*%
%ADD13C,1.300000*%
%TD*%
%TA.AperFunction,ComponentPad*%
%ADD14C,6.350000*%
%TD*%
%TA.AperFunction,ComponentPad*%
%ADD15R,1.700000X1.700000*%
%TD*%
%TA.AperFunction,ComponentPad*%
%ADD16C,1.700000*%
%TD*%
%TA.AperFunction,ComponentPad*%
%ADD17RoundRect,0.487500X-0.487500X0.487500X-0.487500X-0.487500X0.487500X-0.487500X0.487500X0.487500X0*%
%TD*%
%TA.AperFunction,ComponentPad*%
%ADD18C,1.950000*%
%TD*%
%TA.AperFunction,ComponentPad*%
%ADD19RoundRect,0.487500X0.487500X-0.487500X0.487500X0.487500X-0.487500X0.487500X-0.487500X-0.487500X0*%
%TD*%
%TA.AperFunction,Conductor*%
%ADD20C,0.889000*%
%TD*%
G04 APERTURE END LIST*
D10*
%TO.P,C2,1*%
%TO.N,GND*%
X141135100Y-98466600D03*
D11*
%TO.P,C2,2*%
%TO.N,NetC1_2*%
X141135100Y-90966590D03*
%TD*%
D12*
%TO.P,C4,1*%
%TO.N,GND*%
X177448620Y-89339110D03*
D13*
%TO.P,C4,2*%
%TO.N,NetC1_2*%
X179988620Y-89339110D03*
%TD*%
D12*
%TO.P,C5,1*%
%TO.N,GND*%
X177448620Y-103381610D03*
D13*
%TO.P,C5,2*%
%TO.N,NetC5_2*%
X179988620Y-103381610D03*
%TD*%
D10*
%TO.P,D2,1*%
%TO.N,NetC1_2*%
X108618120Y-94716600D03*
D11*
%TO.P,D2,2*%
%TO.N,NetD2_2*%
X99738080Y-94716600D03*
%TD*%
D10*
%TO.P,C7,1*%
%TO.N,NetC6_1*%
X141135100Y-111794590D03*
D11*
%TO.P,C7,2*%
%TO.N,GND*%
X141135100Y-119294600D03*
%TD*%
D14*
%TO.P,,1*%
%TO.N,GND*%
X96812100Y-86715600D03*
%TD*%
%TO.P,,1*%
%TO.N,GND*%
X96812100Y-123291600D03*
%TD*%
D10*
%TO.P,C3,1*%
%TO.N,GND*%
X160693100Y-98466600D03*
D11*
%TO.P,C3,2*%
%TO.N,NetC1_2*%
X160693100Y-90966590D03*
%TD*%
D15*
%TO.P,U1,1*%
%TO.N,NetC1_2*%
X178523600Y-93843960D03*
D16*
%TO.P,U1,2*%
%TO.N,GND*%
X178523600Y-96383960D03*
%TO.P,U1,3*%
%TO.N,NetC5_2*%
X178523600Y-98923960D03*
%TD*%
D17*
%TO.P,J1,1*%
%TO.N,NetD2_2*%
X99738080Y-102884580D03*
D18*
%TO.P,J1,2*%
%TO.N,GND*%
X99738080Y-107884570D03*
%TD*%
D10*
%TO.P,C1,1*%
%TO.N,GND*%
X121309590Y-98378720D03*
D11*
%TO.P,C1,2*%
%TO.N,NetC1_2*%
X121309590Y-90878710D03*
%TD*%
D14*
%TO.P,,1*%
%TO.N,GND*%
X200190100Y-123291600D03*
%TD*%
D15*
%TO.P,U2,1*%
%TO.N,GND*%
X178523600Y-111270490D03*
D16*
%TO.P,U2,2*%
%TO.N,NetC6_1*%
X178523600Y-113810490D03*
%TO.P,U2,3*%
%TO.N,NetC10_1*%
X178523600Y-116350490D03*
%TD*%
D10*
%TO.P,D3,1*%
%TO.N,NetD2_2*%
X99738080Y-115544600D03*
D11*
%TO.P,D3,2*%
%TO.N,NetC6_1*%
X108618120Y-115544600D03*
%TD*%
D10*
%TO.P,C6,1*%
%TO.N,NetC6_1*%
X121323100Y-111794590D03*
D11*
%TO.P,C6,2*%
%TO.N,GND*%
X121323100Y-119294600D03*
%TD*%
D12*
%TO.P,C10,1*%
%TO.N,NetC10_1*%
X179901850Y-121096020D03*
D13*
%TO.P,C10,2*%
%TO.N,GND*%
X177361850Y-121096020D03*
%TD*%
D10*
%TO.P,C8,1*%
%TO.N,NetC6_1*%
X160693100Y-111794590D03*
D11*
%TO.P,C8,2*%
%TO.N,GND*%
X160693100Y-119294600D03*
%TD*%
D12*
%TO.P,C9,1*%
%TO.N,GND*%
X177448620Y-106710170D03*
D13*
%TO.P,C9,2*%
%TO.N,NetC6_1*%
X179988620Y-106710170D03*
%TD*%
D14*
%TO.P,,1*%
%TO.N,GND*%
X200190100Y-86715600D03*
%TD*%
D19*
%TO.P,J2,1*%
%TO.N,NetC5_2*%
X197319100Y-109674590D03*
D18*
%TO.P,J2,2*%
%TO.N,GND*%
X197319100Y-104674600D03*
%TO.P,J2,3*%
%TO.N,NetC10_1*%
X197319100Y-99674610D03*
%TD*%
D10*
%TO.P,D1,1*%
%TO.N,NetC1_2*%
X173049240Y-91943940D03*
D11*
%TO.P,D1,2*%
%TO.N,NetC5_2*%
X173049240Y-100823930D03*
%TD*%
D20*
%TO.N,NetD2_2*%
X99738080Y-115544600D02*
X99738080Y-110967620D01*
X99738080Y-102884580D02*
X99738080Y-94716600D01*
X99738080Y-110967620D02*
X101765100Y-108940600D01*
X99752720Y-104642220D02*
X101765100Y-106654600D01*
X99738080Y-102884580D02*
X99752720Y-102899220D01*
X99752720Y-104642220D02*
X99752720Y-102899220D01*
X101765100Y-108940600D02*
X101765100Y-106654600D01*
%TO.N,NetC10_1*%
X178523600Y-119717770D02*
X178523600Y-116350490D01*
X178523600Y-116350490D02*
X182493210Y-116350490D01*
X182493210Y-116350490D02*
X197319100Y-101524600D01*
X178523600Y-119717770D02*
X179901850Y-121096020D01*
X197319100Y-101524600D02*
X197319100Y-99674610D01*
%TO.N,NetC6_1*%
X121323100Y-111794590D02*
X141135100Y-111794590D01*
X160693100Y-111794590D02*
X162709000Y-113810490D01*
X162709000Y-113810490D02*
X178671420Y-113810490D01*
X179988620Y-110047680D02*
X179988620Y-106710170D01*
X108618120Y-115544600D02*
X112368130Y-111794590D01*
X180072100Y-112840570D02*
X180072100Y-110131160D01*
X178678770Y-113655310D02*
X179257350Y-113655310D01*
X178523600Y-113810490D02*
X178678770Y-113655310D01*
X112368130Y-111794590D02*
X121323100Y-111794590D01*
X179257350Y-113655310D02*
X180072100Y-112840570D01*
X179988620Y-110047680D02*
X180072100Y-110131160D01*
X141135100Y-111794590D02*
X160693100Y-111794590D01*
%TO.N,NetC5_2*%
X178523600Y-101916590D02*
X178523600Y-98923960D01*
X198319100Y-97174600D02*
X199819100Y-98674600D01*
X174949210Y-98923960D02*
X178523600Y-98923960D01*
X178523600Y-98923960D02*
X193569740Y-98923960D01*
X195319100Y-97174600D02*
X198319100Y-97174600D01*
X199819100Y-107174590D02*
X197319100Y-109674590D01*
X178523600Y-101916590D02*
X179988620Y-103381610D01*
X199819100Y-98674600D02*
X199819100Y-107174590D01*
X193569740Y-98923960D02*
X195319100Y-97174600D01*
X173049240Y-100823930D02*
X174949210Y-98923960D01*
%TO.N,NetC1_2*%
X121353530Y-90922650D02*
X160649160Y-90922650D01*
X160693100Y-90966590D02*
X172071890Y-90966590D01*
X172071890Y-90966590D02*
X173049240Y-91943940D01*
X160649160Y-90922650D02*
X160693100Y-90966590D01*
X173049240Y-91943940D02*
X174949260Y-93843960D01*
X117471700Y-94716600D02*
X121309590Y-90878710D01*
X174949260Y-93843960D02*
X178523600Y-93843960D01*
X179988620Y-92378940D02*
X179988620Y-89339110D01*
X121309590Y-90878710D02*
X121353530Y-90922650D01*
X108618120Y-94716600D02*
X117471700Y-94716600D01*
X178523600Y-93843960D02*
X179988620Y-92378940D01*
%TD*%
M02*
